<svg width="312" height="302" viewBox="0 0 312 302" stroke="#111E45" fill="none" xmlns="http://www.w3.org/2000/svg">
<path d="M17.6159 226.617H27.914V228.555L22.4107 231.286C21.6924 231.723 21.485 232.35 21.505 233.061L292.774 232.974C292.843 232.062 292.429 231.432 291.619 231.033L291.534 230.981V226.617H297.348L311.245 234.785C311.227 235.796 309.99 236.034 297.219 236.026H290.526H21.7186H15.0259C2.25505 236.034 1.01778 235.796 1 234.785L17.6159 226.617Z"    />
<path d="M27.9142 205.13H33.6051V205.678H33.753V205.13H35.0756V205.678H35.2237V205.13H44.693V205.678C44.7423 205.678 44.7916 205.678 44.8411 205.678V205.13H46.1637V205.678C46.2129 205.678 46.2622 205.678 46.3116 205.678V205.13H55.7811V205.678C55.8304 205.678 55.8797 205.678 55.9292 205.678V205.13H57.2518V205.678C57.301 205.678 57.3503 205.678 57.3997 205.678V205.13H66.8693V205.678C66.9186 205.678 66.9679 205.678 67.0172 205.678V205.13H68.3399V205.678C68.3891 205.678 68.4385 205.678 68.4879 205.678V205.13H77.9573V205.678C78.0065 205.678 78.0559 205.678 78.1053 205.678V205.13H79.428V205.678C79.4772 205.678 79.5265 205.678 79.5759 205.678V205.13H89.0454V205.678C89.0946 205.678 89.1438 205.678 89.1933 205.678V205.13H90.5161V205.678C90.5653 205.678 90.6146 205.678 90.664 205.678V205.13H100.133V205.678C100.183 205.678 100.232 205.678 100.281 205.678V205.13H101.604V205.678C101.653 205.678 101.702 205.678 101.752 205.678V205.13H111.221V205.678C111.271 205.678 111.32 205.678 111.369 205.678V205.13H112.692V205.678C112.741 205.678 112.791 205.678 112.84 205.678V205.13H122.309V205.678C122.359 205.678 122.408 205.678 122.457 205.678V205.13H123.78V205.678C123.829 205.678 123.879 205.678 123.928 205.678V205.13H133.398V205.678C133.447 205.678 133.496 205.678 133.546 205.678V205.13H134.868V205.678C134.917 205.678 134.967 205.678 135.016 205.678V205.13H144.486V205.678C144.535 205.678 144.584 205.678 144.634 205.678V205.13H145.956V205.678C146.006 205.678 146.055 205.678 146.104 205.678V205.13H155.574V205.678C155.623 205.678 155.672 205.678 155.722 205.678V205.13H157.044V205.678C157.094 205.678 157.143 205.678 157.192 205.678V205.13H166.662V205.678H166.81V205.13H168.132V205.678H168.28V205.13H172.245V208.563H179.128V209.138H179.524V208.563H180.847V209.138H181.243V208.563H190.828V209.138C190.96 209.138 191.092 209.138 191.225 209.138V208.563H192.547V209.138C192.679 209.138 192.811 209.138 192.944 209.138V208.563H202.529V209.138C202.661 209.138 202.793 209.138 202.925 209.138V208.563H204.248V209.138C204.38 209.138 204.512 209.138 204.644 209.138V208.563H214.229V209.138C214.361 209.138 214.493 209.138 214.626 209.138V208.563H215.948V209.138C216.08 209.138 216.212 209.138 216.345 209.138V208.563H225.93V209.138C226.062 209.138 226.194 209.138 226.326 209.138V208.563H227.649V209.138C227.781 209.138 227.913 209.138 228.045 209.138V208.563H237.63V209.138C237.762 209.138 237.894 209.138 238.027 209.138V208.563H239.349V209.138C239.481 209.138 239.613 209.138 239.745 209.138V208.563H249.331V209.138C249.463 209.138 249.595 209.138 249.727 209.138V208.563H251.05V209.138C251.182 209.138 251.314 209.138 251.446 209.138V208.563H261.031V209.138C261.163 209.138 261.296 209.138 261.428 209.138V208.563H262.75V209.138C262.882 209.138 263.014 209.138 263.147 209.138V208.563H272.732V209.138C272.864 209.138 272.996 209.138 273.128 209.138V208.563H274.451V209.138C274.583 209.138 274.715 209.138 274.847 209.138V208.563H284.432V209.138H284.829V208.563H286.151V209.138H286.547V208.563H291.534V226.617V230.981V232.975L27.9142 233.059V228.555V226.617V205.13Z"    />
<path d="M311.245 234.785V280.035C311.227 280.557 309.99 282.103 297.219 282.099H290.526H21.7186H15.0259C2.25505 282.104 1.01778 280.557 1 280.035V234.785C1.01758 235.796 2.25505 236.034 15.0259 236.026H21.7186H290.526H297.219C309.99 236.034 311.227 235.796 311.245 234.785Z"    />
<path d="M199.063 94.9668H214.827L216.393 94.9669V97.3223C216.393 97.6996 216.702 98.0082 217.079 98.0082H280.479C280.856 98.0082 281.165 97.6996 281.165 97.3223V94.9668H287.343C292.846 94.9668 297.348 99.4688 297.348 104.971V226.617H291.534V208.563H286.548V209.138H286.151V208.563H284.829V209.138H284.432V208.563H274.847V209.138C274.715 209.138 274.583 209.138 274.451 209.138V208.563H273.128V209.138C272.996 209.138 272.864 209.138 272.732 209.138V208.563H263.147V209.138C263.014 209.138 262.882 209.138 262.75 209.138V208.563H261.428V209.138C261.296 209.138 261.163 209.138 261.031 209.138V208.563H251.446V209.138C251.314 209.138 251.182 209.138 251.05 209.138V208.563H249.727V209.138C249.595 209.138 249.463 209.138 249.331 209.138V208.563H239.746V209.138C239.613 209.138 239.481 209.138 239.349 209.138V208.563H238.027V209.138C237.895 209.138 237.762 209.138 237.63 209.138V208.563H228.045V209.138C227.913 209.138 227.781 209.138 227.649 209.138V208.563H226.326V209.138C226.194 209.138 226.062 209.138 225.93 209.138V208.563H216.345V209.138C216.213 209.138 216.08 209.138 215.948 209.138V208.563H214.626V209.138C214.494 209.138 214.361 209.138 214.229 209.138V208.563H204.644V209.138C204.512 209.138 204.38 209.138 204.248 209.138V208.563H202.925V209.138C202.793 209.138 202.661 209.138 202.529 209.138V208.563H192.944V209.138C192.811 209.138 192.679 209.138 192.547 209.138V208.563H191.225V209.138C191.092 209.138 190.96 209.138 190.828 209.138V208.563H181.243V209.138H180.847V208.563H179.524V209.138H179.128V208.563H172.245V205.13H168.28V205.678H168.132V205.13H166.81V205.678H166.662V205.13H157.192V205.678C157.143 205.678 157.094 205.678 157.044 205.678V205.13H155.722V205.678C155.672 205.678 155.623 205.678 155.574 205.678V205.13H146.104V205.678C146.055 205.678 146.006 205.678 145.956 205.678V205.13H144.634V205.678C144.584 205.678 144.535 205.678 144.486 205.678V205.13H135.016V205.678C134.967 205.678 134.918 205.678 134.868 205.678V205.13H133.546V205.678C133.496 205.678 133.447 205.678 133.398 205.678V205.13H123.928V205.678C123.879 205.678 123.829 205.678 123.78 205.678V205.13H122.457V205.678C122.408 205.678 122.359 205.678 122.31 205.678V205.13H112.84V205.678C112.791 205.678 112.741 205.678 112.692 205.678V205.13H111.369V205.678C111.32 205.678 111.271 205.678 111.221 205.678V205.13H101.752V205.678C101.703 205.678 101.653 205.678 101.604 205.678V205.13H100.281V205.678C100.232 205.678 100.183 205.678 100.134 205.678V205.13H90.664V205.678C90.6148 205.678 90.5654 205.678 90.5161 205.678V205.13H89.1933V205.678C89.1441 205.678 89.0947 205.678 89.0454 205.678V205.13H79.5759V205.678C79.5267 205.678 79.4773 205.678 79.428 205.678V205.13H78.1054V205.678C78.0561 205.678 78.0066 205.678 77.9574 205.678V205.13H68.488V205.678C68.4387 205.678 68.3892 205.678 68.3399 205.678V205.13H67.0173V205.678C66.9681 205.678 66.9187 205.678 66.8694 205.678V205.13H57.3998V205.678C57.3505 205.678 57.3011 205.678 57.2519 205.678V205.13H55.9292V205.678C55.88 205.678 55.8305 205.678 55.7812 205.678V205.13H46.3117V205.678C46.2625 205.678 46.2131 205.678 46.1638 205.678V205.13H45.6822V157.17L42.692 110.578V12.9093C42.692 6.35905 48.0511 1 54.6014 1H187.154C193.704 1 199.063 6.35905 199.063 12.9093V94.9668ZM291.534 232.975V230.981L291.619 231.033C292.429 231.432 292.843 232.062 292.774 232.974L291.534 232.975Z"    />
<path d="M45.5397 110.486L48.53 157.078V202.282H175.092V205.715H294.382V223.769H294.5V104.971C294.5 101.041 291.274 97.8144 287.343 97.8144H283.978C283.738 99.5312 282.261 100.856 280.479 100.856H217.079C215.297 100.856 213.82 99.5313 213.58 97.8145L196.215 97.8144V12.9091C196.215 7.93074 192.132 3.84766 187.154 3.84766H54.6013C49.623 3.84766 45.5397 7.93074 45.5397 12.9091V110.486Z"    />
<path d="M280.479 98.0081H217.079C216.702 98.0081 216.393 97.6995 216.393 97.3222V94.9668L214.827 94.9667C214.699 94.9667 214.524 92.2432 217.079 92.2432H280.479C280.856 92.2432 281.165 92.5517 281.165 92.9291V97.3222C281.165 97.6995 280.856 98.0081 280.479 98.0081Z"    />
<path d="M311.245 280.035V291.29C311.264 295.472 310.193 296.446 297.219 296.416H290.526H21.7188H15.0261C2.05254 296.446 0.981694 295.472 1.00023 291.29V280.035C1.01781 280.557 2.25528 282.103 15.0261 282.099H21.7188H290.526H297.219C309.99 282.104 311.227 280.557 311.245 280.035Z"    />
<path d="M96.7858 93.305C96.7858 94.3517 97.3091 94.875 98.3558 94.875H143.459C144.506 94.875 145.029 94.3517 145.029 93.305C145.029 92.2583 144.506 91.7349 143.459 91.7349H98.3558C97.3091 91.7349 96.7858 92.2583 96.7858 93.305Z"    />
<path d="M169.872 205.131V177.128H166.098V174.872H147.258V177.128H143.484V205.131H144.486V205.678C144.535 205.678 144.584 205.678 144.633 205.678V205.131H145.956V205.678C146.005 205.678 146.055 205.678 146.104 205.678V205.131H155.574V205.678C155.623 205.678 155.672 205.678 155.722 205.678V205.131H157.044V205.678C157.093 205.678 157.143 205.678 157.192 205.678V205.131H166.662V205.678H166.81V205.131H168.132V205.678H168.28V205.131H169.872Z"    />
<path d="M143.484 174.871V144.168H169.872V174.871H143.484Z"    />
<path d="M143.484 146.603V109.535C143.484 117.773 147.603 121.891 155.841 121.891H157.516C165.753 121.891 169.872 117.773 169.872 109.535V146.603H143.484Z"    />
<path d="M30.9662 210.84H33.7524V211.5H35.0751V210.84H37.8611V230.204H35.0751V230.147C35.0751 230.033 34.9822 229.94 34.8684 229.94H33.9592C33.8454 229.94 33.7524 230.033 33.7524 230.147V230.204H30.9662V210.84Z"    />
<path d="M30.1377 214.054H30.9662V215.377H30.1377V214.054Z"    />
<path d="M37.8615 214.054H38.69V215.377H37.8615V214.054Z"    />
<path d="M282.042 214.873H284.828V215.534H286.151V214.873H288.937V232.662H282.042V214.873Z"    />
<path d="M281.214 218.087H282.042V219.41H281.214V218.087Z"    />
<path d="M288.937 218.087H289.766V219.41H288.937V218.087Z"    />
<path d="M42.0537 210.84C42.9824 210.84 43.9111 210.84 44.8399 210.84C44.8399 211.06 44.8399 211.28 44.8399 211.5C45.2808 211.5 45.7216 211.5 46.1626 211.5C46.1626 211.28 46.1626 211.06 46.1626 210.84C47.0912 210.84 48.0199 210.84 48.9485 210.84C48.9485 217.295 48.9485 223.749 48.9485 230.204C48.0199 230.204 47.0912 230.204 46.1626 230.204C46.1626 230.185 46.1626 230.166 46.1626 230.147C46.1626 230.033 46.0696 229.94 45.9558 229.94C45.6527 229.94 45.3497 229.94 45.0467 229.94C44.9329 229.94 44.8399 230.033 44.8399 230.147C44.8399 230.166 44.8399 230.185 44.8399 230.204C43.9111 230.204 42.9824 230.204 42.0537 230.204C42.0537 223.749 42.0537 217.295 42.0537 210.84Z"    />
<path d="M41.2252 214.054C41.5013 214.054 41.7775 214.054 42.0538 214.054C42.0538 214.495 42.0538 214.936 42.0538 215.377C41.7775 215.377 41.5013 215.377 41.2252 215.377C41.2252 214.936 41.2252 214.495 41.2252 214.054Z"    />
<path d="M48.9485 214.054C49.2246 214.054 49.5009 214.054 49.7772 214.054C49.7772 214.495 49.7772 214.936 49.7772 215.377C49.5009 215.377 49.2246 215.377 48.9485 215.377C48.9485 214.936 48.9485 214.495 48.9485 214.054Z"    />
<path d="M53.1417 210.84C54.0704 210.84 54.9991 210.84 55.9279 210.84C55.9279 211.06 55.9279 211.28 55.9279 211.5C56.3688 211.5 56.8096 211.5 57.2506 211.5C57.2506 211.28 57.2506 211.06 57.2506 210.84C58.1792 210.84 59.1079 210.84 60.0366 210.84C60.0366 217.295 60.0366 223.749 60.0366 230.204C59.1079 230.204 58.1792 230.204 57.2506 230.204C57.2506 230.185 57.2506 230.166 57.2506 230.147C57.2506 230.033 57.1576 229.94 57.0438 229.94C56.7407 229.94 56.4376 229.94 56.1346 229.94C56.0209 229.94 55.9279 230.033 55.9279 230.147C55.9279 230.166 55.9279 230.185 55.9279 230.204C54.9991 230.204 54.0704 230.204 53.1417 230.204C53.1417 223.749 53.1417 217.295 53.1417 210.84Z"    />
<path d="M52.3132 214.054C52.5894 214.054 52.8657 214.054 53.1419 214.054C53.1419 214.495 53.1419 214.936 53.1419 215.377C52.8657 215.377 52.5894 215.377 52.3132 215.377C52.3132 214.936 52.3132 214.495 52.3132 214.054Z"    />
<path d="M60.037 214.054C60.3131 214.054 60.5893 214.054 60.8655 214.054C60.8655 214.495 60.8655 214.936 60.8655 215.377C60.5893 215.377 60.3131 215.377 60.037 215.377C60.037 214.936 60.037 214.495 60.037 214.054Z"    />
<path d="M64.2297 210.84C65.1584 210.84 66.087 210.84 67.0158 210.84C67.0158 211.06 67.0158 211.28 67.0158 211.5C67.4567 211.5 67.8975 211.5 68.3385 211.5C68.3385 211.28 68.3385 211.06 68.3385 210.84C69.2672 210.84 70.1959 210.84 71.1246 210.84C71.1246 217.295 71.1246 223.749 71.1246 230.204C70.1959 230.204 69.2672 230.204 68.3385 230.204C68.3385 230.185 68.3385 230.166 68.3385 230.147C68.3385 230.033 68.2455 229.94 68.1317 229.94C67.8286 229.94 67.5256 229.94 67.2226 229.94C67.1088 229.94 67.0158 230.033 67.0158 230.147C67.0158 230.166 67.0158 230.185 67.0158 230.204C66.087 230.204 65.1584 230.204 64.2297 230.204C64.2297 223.749 64.2297 217.295 64.2297 210.84Z"    />
<path d="M63.4012 214.054C63.6773 214.054 63.9537 214.054 64.2299 214.054C64.2299 214.495 64.2299 214.936 64.2299 215.377C63.9537 215.377 63.6773 215.377 63.4012 215.377C63.4012 214.936 63.4012 214.495 63.4012 214.054Z"    />
<path d="M71.1245 214.054C71.4006 214.054 71.6768 214.054 71.9531 214.054C71.9531 214.495 71.9531 214.936 71.9531 215.377C71.6768 215.377 71.4006 215.377 71.1245 215.377C71.1245 214.936 71.1245 214.495 71.1245 214.054Z"    />
<path d="M75.3187 210.84C76.2474 210.84 77.1761 210.84 78.1049 210.84C78.1049 211.06 78.1049 211.28 78.1049 211.5C78.5458 211.5 78.9866 211.5 79.4276 211.5C79.4276 211.28 79.4276 211.06 79.4276 210.84C80.3563 210.84 81.285 210.84 82.2137 210.84C82.2137 217.295 82.2137 223.749 82.2137 230.204C81.285 230.204 80.3563 230.204 79.4276 230.204C79.4276 230.185 79.4276 230.166 79.4276 230.147C79.4276 230.033 79.3346 229.94 79.2208 229.94C78.9177 229.94 78.6147 229.94 78.3117 229.94C78.1979 229.94 78.1049 230.033 78.1049 230.147C78.1049 230.166 78.1049 230.185 78.1049 230.204C77.1761 230.204 76.2474 230.204 75.3187 230.204C75.3187 223.749 75.3187 217.295 75.3187 210.84Z"    />
<path d="M74.4902 214.054C74.7663 214.054 75.0425 214.054 75.3188 214.054C75.3188 214.495 75.3188 214.936 75.3188 215.377C75.0425 215.377 74.7663 215.377 74.4902 215.377C74.4902 214.936 74.4902 214.495 74.4902 214.054Z"    />
<path d="M82.2135 214.054C82.4896 214.054 82.7658 214.054 83.042 214.054C83.042 214.495 83.042 214.936 83.042 215.377C82.7658 215.377 82.4896 215.377 82.2135 215.377C82.2135 214.936 82.2135 214.495 82.2135 214.054Z"    />
<path d="M86.4059 210.84C87.3346 210.84 88.2633 210.84 89.1921 210.84C89.1921 211.06 89.1921 211.28 89.1921 211.5C89.6329 211.5 90.0739 211.5 90.5149 211.5C90.5149 211.28 90.5149 211.06 90.5149 210.84C91.4436 210.84 92.3721 210.84 93.3008 210.84C93.3008 217.295 93.3008 223.749 93.3008 230.204C92.3721 230.204 91.4436 230.204 90.5149 230.204C90.5149 230.185 90.5149 230.166 90.5149 230.147C90.5149 230.033 90.4219 229.94 90.3081 229.94C90.005 229.94 89.7019 229.94 89.3989 229.94C89.2851 229.94 89.1921 230.033 89.1921 230.147C89.1921 230.166 89.1921 230.185 89.1921 230.204C88.2633 230.204 87.3346 230.204 86.4059 230.204C86.4059 223.749 86.4059 217.295 86.4059 210.84Z"    />
<path d="M85.5774 214.054C85.8535 214.054 86.1296 214.054 86.4058 214.054C86.4058 214.495 86.4058 214.936 86.4058 215.377C86.1296 215.377 85.8535 215.377 85.5774 215.377C85.5774 214.936 85.5774 214.495 85.5774 214.054Z"    />
<path d="M93.3007 214.054C93.5767 214.054 93.853 214.054 94.1292 214.054C94.1292 214.495 94.1292 214.936 94.1292 215.377C93.853 215.377 93.5767 215.377 93.3007 215.377C93.3007 214.936 93.3007 214.495 93.3007 214.054Z"    />
<path d="M97.4939 210.84C98.4226 210.84 99.3513 210.84 100.28 210.84C100.28 211.06 100.28 211.28 100.28 211.5C100.721 211.5 101.162 211.5 101.603 211.5C101.603 211.28 101.603 211.06 101.603 210.84C102.531 210.84 103.46 210.84 104.389 210.84C104.389 217.295 104.389 223.749 104.389 230.204C103.46 230.204 102.531 230.204 101.603 230.204C101.603 230.185 101.603 230.166 101.603 230.147C101.603 230.033 101.51 229.94 101.396 229.94C101.093 229.94 100.79 229.94 100.487 229.94C100.373 229.94 100.28 230.033 100.28 230.147C100.28 230.166 100.28 230.185 100.28 230.204C99.3513 230.204 98.4226 230.204 97.4939 230.204C97.4939 223.749 97.4939 217.295 97.4939 210.84Z"    />
<path d="M96.6654 214.054C96.9415 214.054 97.2177 214.054 97.4939 214.054C97.4939 214.495 97.4939 214.936 97.4939 215.377C97.2177 215.377 96.9415 215.377 96.6654 215.377C96.6654 214.936 96.6654 214.495 96.6654 214.054Z"    />
<path d="M104.389 214.054C104.665 214.054 104.941 214.054 105.217 214.054C105.217 214.495 105.217 214.936 105.217 215.377C104.941 215.377 104.665 215.377 104.389 215.377C104.389 214.936 104.389 214.495 104.389 214.054Z"    />
<path d="M108.582 210.84C109.511 210.84 110.439 210.84 111.368 210.84C111.368 211.06 111.368 211.28 111.368 211.5C111.809 211.5 112.25 211.5 112.691 211.5C112.691 211.28 112.691 211.06 112.691 210.84C113.619 210.84 114.548 210.84 115.477 210.84C115.477 217.295 115.477 223.749 115.477 230.204C114.548 230.204 113.619 230.204 112.691 230.204C112.691 230.185 112.691 230.166 112.691 230.147C112.691 230.033 112.598 229.94 112.484 229.94C112.181 229.94 111.878 229.94 111.575 229.94C111.461 229.94 111.368 230.033 111.368 230.147C111.368 230.166 111.368 230.185 111.368 230.204C110.439 230.204 109.511 230.204 108.582 230.204C108.582 223.749 108.582 217.295 108.582 210.84Z"    />
<path d="M107.753 214.054C108.03 214.054 108.306 214.054 108.582 214.054C108.582 214.495 108.582 214.936 108.582 215.377C108.306 215.377 108.03 215.377 107.753 215.377C107.753 214.936 107.753 214.495 107.753 214.054Z"    />
<path d="M115.477 214.054C115.753 214.054 116.029 214.054 116.306 214.054C116.306 214.495 116.306 214.936 116.306 215.377C116.029 215.377 115.753 215.377 115.477 215.377C115.477 214.936 115.477 214.495 115.477 214.054Z"    />
<path d="M119.67 210.84C120.599 210.84 121.527 210.84 122.456 210.84C122.456 211.06 122.456 211.28 122.456 211.5C122.897 211.5 123.338 211.5 123.779 211.5C123.779 211.28 123.779 211.06 123.779 210.84C124.707 210.84 125.636 210.84 126.565 210.84C126.565 217.295 126.565 223.749 126.565 230.204C125.636 230.204 124.707 230.204 123.779 230.204C123.779 230.185 123.779 230.166 123.779 230.147C123.779 230.033 123.686 229.94 123.572 229.94C123.269 229.94 122.966 229.94 122.663 229.94C122.549 229.94 122.456 230.033 122.456 230.147C122.456 230.166 122.456 230.185 122.456 230.204C121.527 230.204 120.599 230.204 119.67 230.204C119.67 223.749 119.67 217.295 119.67 210.84Z"    />
<path d="M118.841 214.054C119.118 214.054 119.394 214.054 119.67 214.054C119.67 214.495 119.67 214.936 119.67 215.377C119.394 215.377 119.118 215.377 118.841 215.377C118.841 214.936 118.841 214.495 118.841 214.054Z"    />
<path d="M126.565 214.054C126.841 214.054 127.117 214.054 127.393 214.054C127.393 214.495 127.393 214.936 127.393 215.377C127.117 215.377 126.841 215.377 126.565 215.377C126.565 214.936 126.565 214.495 126.565 214.054Z"    />
<path d="M130.759 210.84C131.688 210.84 132.616 210.84 133.545 210.84C133.545 211.06 133.545 211.28 133.545 211.5C133.986 211.5 134.427 211.5 134.868 211.5C134.868 211.28 134.868 211.06 134.868 210.84C135.796 210.84 136.725 210.84 137.654 210.84C137.654 217.295 137.654 223.749 137.654 230.204C136.725 230.204 135.796 230.204 134.868 230.204C134.868 230.185 134.868 230.166 134.868 230.147C134.868 230.033 134.775 229.94 134.661 229.94C134.358 229.94 134.055 229.94 133.752 229.94C133.638 229.94 133.545 230.033 133.545 230.147C133.545 230.166 133.545 230.185 133.545 230.204C132.616 230.204 131.688 230.204 130.759 230.204C130.759 223.749 130.759 217.295 130.759 210.84Z"    />
<path d="M129.93 214.054C130.206 214.054 130.483 214.054 130.759 214.054C130.759 214.495 130.759 214.936 130.759 215.377C130.483 215.377 130.206 215.377 129.93 215.377C129.93 214.936 129.93 214.495 129.93 214.054Z"    />
<path d="M137.654 214.054C137.93 214.054 138.206 214.054 138.482 214.054C138.482 214.495 138.482 214.936 138.482 215.377C138.206 215.377 137.93 215.377 137.654 215.377C137.654 214.936 137.654 214.495 137.654 214.054Z"    />
<path d="M141.847 210.84C142.776 210.84 143.704 210.84 144.633 210.84C144.633 211.06 144.633 211.28 144.633 211.5C145.074 211.5 145.515 211.5 145.956 211.5C145.956 211.28 145.956 211.06 145.956 210.84C146.884 210.84 147.813 210.84 148.742 210.84V223.751H142.343C142.166 223.751 141.997 223.787 141.847 223.838V210.84Z"    />
<path d="M141.018 214.054C141.295 214.054 141.571 214.054 141.847 214.054C141.847 214.495 141.847 214.936 141.847 215.377C141.571 215.377 141.295 215.377 141.018 215.377C141.018 214.936 141.018 214.495 141.018 214.054Z"    />
<path d="M148.742 214.054C149.018 214.054 149.294 214.054 149.57 214.054C149.57 214.495 149.57 214.936 149.57 215.377C149.294 215.377 149.018 215.377 148.742 215.377C148.742 214.936 148.742 214.495 148.742 214.054Z"    />
<path d="M152.935 210.84C153.864 210.84 154.792 210.84 155.721 210.84C155.721 211.06 155.721 211.28 155.721 211.5C156.162 211.5 156.603 211.5 157.044 211.5C157.044 211.28 157.044 211.06 157.044 210.84C157.973 210.84 158.901 210.84 159.83 210.84V223.751H152.935V210.84Z"    />
<path d="M152.106 214.054C152.383 214.054 152.659 214.054 152.935 214.054C152.935 214.495 152.935 214.936 152.935 215.377C152.659 215.377 152.383 215.377 152.106 215.377C152.106 214.936 152.106 214.495 152.106 214.054Z"    />
<path d="M159.83 214.054C160.106 214.054 160.382 214.054 160.658 214.054C160.658 214.495 160.658 214.936 160.658 215.377C160.382 215.377 160.106 215.377 159.83 215.377C159.83 214.936 159.83 214.495 159.83 214.054Z"    />
<path d="M164.022 210.84H166.809V211.5H168.131V210.84H170.917V223.751H164.022V210.84Z"    />
<path d="M163.194 214.054H164.023V215.377H163.194V214.054Z"    />
<path d="M170.918 214.054H171.746V215.377H170.918V214.054Z"    />
<path d="M270.342 214.873C271.271 214.873 272.199 214.873 273.128 214.873C273.128 215.093 273.128 215.313 273.128 215.534C273.569 215.534 274.01 215.534 274.451 215.534C274.451 215.313 274.451 215.093 274.451 214.873C275.38 214.873 276.308 214.873 277.237 214.873V232.666H270.342V214.873Z"    />
<path d="M269.514 218.087C269.79 218.087 270.066 218.087 270.342 218.087C270.342 218.528 270.342 218.969 270.342 219.41C270.066 219.41 269.79 219.41 269.514 219.41C269.514 218.969 269.514 218.528 269.514 218.087Z"    />
<path d="M277.237 218.087C277.513 218.087 277.789 218.087 278.065 218.087C278.065 218.528 278.065 218.969 278.065 219.41C277.789 219.41 277.513 219.41 277.237 219.41C277.237 218.969 277.237 218.528 277.237 218.087Z"    />
<path d="M258.641 214.873C259.57 214.873 260.498 214.873 261.427 214.873C261.427 215.093 261.427 215.313 261.427 215.534C261.868 215.534 262.309 215.534 262.75 215.534C262.75 215.313 262.75 215.093 262.75 214.873C263.679 214.873 264.607 214.873 265.536 214.873V232.669H258.641V214.873Z"    />
<path d="M257.812 218.087C258.089 218.087 258.365 218.087 258.641 218.087C258.641 218.528 258.641 218.969 258.641 219.41C258.365 219.41 258.089 219.41 257.812 219.41C257.812 218.969 257.812 218.528 257.812 218.087Z"    />
<path d="M265.536 218.087C265.812 218.087 266.088 218.087 266.364 218.087C266.364 218.528 266.364 218.969 266.364 219.41C266.088 219.41 265.812 219.41 265.536 219.41C265.536 218.969 265.536 218.528 265.536 218.087Z"    />
<path d="M246.941 214.873C247.869 214.873 248.798 214.873 249.727 214.873C249.727 215.093 249.727 215.313 249.727 215.534C250.168 215.534 250.609 215.534 251.05 215.534C251.05 215.313 251.05 215.093 251.05 214.873C251.978 214.873 252.907 214.873 253.836 214.873V232.673H246.941V214.873Z"    />
<path d="M246.112 218.087C246.388 218.087 246.665 218.087 246.941 218.087C246.941 218.528 246.941 218.969 246.941 219.41C246.665 219.41 246.388 219.41 246.112 219.41C246.112 218.969 246.112 218.528 246.112 218.087Z"    />
<path d="M253.836 218.087C254.112 218.087 254.388 218.087 254.664 218.087C254.664 218.528 254.664 218.969 254.664 219.41C254.388 219.41 254.112 219.41 253.836 219.41C253.836 218.969 253.836 218.528 253.836 218.087Z"    />
<path d="M235.241 214.873C236.169 214.873 237.098 214.873 238.027 214.873C238.027 215.093 238.027 215.313 238.027 215.534C238.468 215.534 238.908 215.534 239.349 215.534C239.349 215.313 239.349 215.093 239.349 214.873C240.278 214.873 241.207 214.873 242.136 214.873V232.677H235.241V214.873Z"    />
<path d="M234.412 218.087C234.688 218.087 234.964 218.087 235.241 218.087C235.241 218.528 235.241 218.969 235.241 219.41C234.964 219.41 234.688 219.41 234.412 219.41C234.412 218.969 234.412 218.528 234.412 218.087Z"    />
<path d="M242.136 218.087C242.412 218.087 242.688 218.087 242.964 218.087C242.964 218.528 242.964 218.969 242.964 219.41C242.688 219.41 242.412 219.41 242.136 219.41C242.136 218.969 242.136 218.528 242.136 218.087Z"    />
<path d="M223.54 214.873C224.468 214.873 225.397 214.873 226.326 214.873C226.326 215.093 226.326 215.313 226.326 215.534C226.767 215.534 227.207 215.534 227.648 215.534C227.648 215.313 227.648 215.093 227.648 214.873C228.577 214.873 229.506 214.873 230.434 214.873V232.681H223.54V214.873Z"    />
<path d="M222.711 218.087C222.987 218.087 223.263 218.087 223.54 218.087C223.54 218.528 223.54 218.969 223.54 219.41C223.263 219.41 222.987 219.41 222.711 219.41C222.711 218.969 222.711 218.528 222.711 218.087Z"    />
<path d="M230.434 218.087C230.71 218.087 230.987 218.087 231.263 218.087C231.263 218.528 231.263 218.969 231.263 219.41C230.987 219.41 230.71 219.41 230.434 219.41C230.434 218.969 230.434 218.528 230.434 218.087Z"    />
<path d="M211.839 214.873C212.768 214.873 213.697 214.873 214.626 214.873C214.626 215.093 214.626 215.313 214.626 215.534C215.066 215.534 215.507 215.534 215.948 215.534C215.948 215.313 215.948 215.093 215.948 214.873C216.877 214.873 217.806 214.873 218.734 214.873V232.684H211.839V214.873Z"    />
<path d="M211.011 218.087C211.287 218.087 211.563 218.087 211.839 218.087C211.839 218.528 211.839 218.969 211.839 219.41C211.563 219.41 211.287 219.41 211.011 219.41C211.011 218.969 211.011 218.528 211.011 218.087Z"    />
<path d="M218.734 218.087C219.01 218.087 219.286 218.087 219.563 218.087C219.563 218.528 219.563 218.969 219.563 219.41C219.286 219.41 219.01 219.41 218.734 219.41C218.734 218.969 218.734 218.528 218.734 218.087Z"    />
<path d="M200.139 214.873C201.068 214.873 201.997 214.873 202.925 214.873C202.925 215.093 202.925 215.313 202.925 215.534C203.366 215.534 203.807 215.534 204.248 215.534C204.248 215.313 204.248 215.093 204.248 214.873C205.177 214.873 206.105 214.873 207.034 214.873V232.688H200.139V214.873Z"    />
<path d="M199.311 218.087C199.587 218.087 199.863 218.087 200.139 218.087C200.139 218.528 200.139 218.969 200.139 219.41C199.863 219.41 199.587 219.41 199.311 219.41C199.311 218.969 199.311 218.528 199.311 218.087Z"    />
<path d="M207.034 218.087C207.31 218.087 207.586 218.087 207.863 218.087C207.863 218.528 207.863 218.969 207.863 219.41C207.586 219.41 207.31 219.41 207.034 219.41C207.034 218.969 207.034 218.528 207.034 218.087Z"    />
<path d="M188.438 214.873C189.367 214.873 190.296 214.873 191.224 214.873C191.224 215.093 191.224 215.313 191.224 215.534C191.665 215.534 192.106 215.534 192.547 215.534C192.547 215.313 192.547 215.093 192.547 214.873C193.476 214.873 194.405 214.873 195.333 214.873V232.692H188.438V214.873Z"    />
<path d="M187.61 218.087C187.886 218.087 188.162 218.087 188.439 218.087C188.439 218.528 188.439 218.969 188.439 219.41C188.162 219.41 187.886 219.41 187.61 219.41C187.61 218.969 187.61 218.528 187.61 218.087Z"    />
<path d="M195.333 218.087C195.609 218.087 195.885 218.087 196.162 218.087C196.162 218.528 196.162 218.969 196.162 219.41C195.885 219.41 195.609 219.41 195.333 219.41C195.333 218.969 195.333 218.528 195.333 218.087Z"    />
<path d="M176.738 214.873H179.524V215.534H180.847V214.873H183.633V232.696H176.738V214.873Z"    />
<path d="M175.91 218.087H176.738V219.41H175.91V218.087Z"    />
<path d="M183.633 218.087H184.461V219.41H183.633V218.087Z"    />
<path d="M33.5993 296.416V298.939C33.5993 300.071 31.2463 301 30.1138 301H18.6339C17.5015 301 15.1486 300.072 15.1486 298.939V296.416H21.7183H33.5993Z"    />
<path d="M297.322 296.416V298.939C297.322 300.071 294.969 301 293.837 301H282.357C281.224 301 278.871 300.072 278.871 298.939V296.416H290.526H297.219L297.322 296.416Z"    />
<path d="M74.5505 18.6114V82.5177C74.5505 83.9419 75.2627 84.654 76.6869 84.654H165.129C166.553 84.654 167.265 83.9419 167.265 82.5177V18.6114C167.265 17.1872 166.553 16.4751 165.129 16.4751H76.6869C75.2627 16.4751 74.5505 17.1872 74.5505 18.6114Z"    />
<path d="M111.729 8.58453V13.0934C111.729 13.5228 111.944 13.7375 112.373 13.7375H129.442C129.872 13.7375 130.086 13.5228 130.086 13.0934V8.58453C130.086 8.15514 129.872 7.94043 129.442 7.94043H112.373C111.944 7.94043 111.729 8.15514 111.729 8.58453Z"    />
<path d="M141.505 233.017H171.851V226.168C171.851 226.168 171.346 226.617 170.73 226.617H142.627C142.01 226.617 141.505 226.168 141.505 226.168V233.017Z"    />
<path d="M141.2 226.744H172.157V224.514C172.157 224.514 171.642 224.065 171.013 224.065H142.344C141.715 224.065 141.2 224.514 141.2 224.514V226.744Z"    />
</svg>
