<svg width="20" height="20" viewBox="0 0 20 20" fill="none" xmlns="http://www.w3.org/2000/svg">
<path d="M16.1504 10.0078L16.0811 9.96289C15.7093 9.72363 15.3308 9.51572 14.9736 9.36523C14.7071 9.25295 14.447 9.17078 14.208 9.13281L13.9766 9.11035C13.6733 9.10158 13.3161 9.18154 12.9443 9.31348C12.6639 9.41302 12.3691 9.54385 12.0742 9.69531L11.7803 9.85254L11.7793 9.85352C11.4574 10.0347 11.1443 10.231 10.8408 10.4414L10.54 10.6562L10.5264 10.667L10.5166 10.6738L10.5127 10.6768L10.5059 10.6816L10.4727 10.7041L10.4697 10.709L10.4668 10.7119L10.0791 10.9746L10.0781 10.9756C9.8847 11.1016 9.63259 11.2597 9.3418 11.4268L9.03906 11.5957C8.2379 12.0315 7.08685 12.5541 6.02832 12.5889H5.7832C5.20714 12.5701 4.60346 12.4248 4.04785 12.2393L3.84961 12.1729V15.5039L3.9375 15.5439L4.13672 15.6348L4.1377 15.6357C4.52204 15.8073 4.87852 15.9384 5.18359 16.0254C5.41021 16.09 5.61467 16.1321 5.7832 16.1465L5.93945 16.1514C6.13524 16.1445 6.4011 16.0782 6.70508 15.9668C6.93549 15.8823 7.19413 15.7694 7.4707 15.6309L7.75293 15.4834C8.04827 15.3223 8.33711 15.1495 8.61816 14.9648L8.89648 14.7764L8.90039 14.7734L8.91113 14.7656L8.91211 14.7646C8.98163 14.7114 9.052 14.6586 9.12305 14.6074L9.33887 14.457C9.61663 14.2679 10.0079 14.0137 10.4629 13.7578L10.4619 13.7568C11.2296 13.3294 12.4942 12.7159 13.792 12.6729H14.0518C14.7086 12.6922 15.3558 12.867 15.9434 13.1064L16.1504 13.1914V10.0078ZM16.1504 4.95605L16.0908 4.91113C16.0155 4.85421 15.9392 4.79794 15.8623 4.74316L15.6289 4.58203C15.2447 4.32592 14.9069 4.14417 14.6338 4.02637C14.3665 3.91105 14.1454 3.84963 14 3.84961C13.809 3.84961 13.553 3.90839 13.2598 4.01367C13.0374 4.09352 12.7874 4.20263 12.5186 4.33984L12.2441 4.48633C11.8905 4.684 11.5486 4.90217 11.2197 5.13867L10.21 3.76953C10.2726 3.724 10.3585 3.6628 10.4639 3.59082C10.6996 3.42971 11.0321 3.21456 11.418 3C12.1961 2.56734 13.1675 2.15039 14 2.15039C14.8248 2.15042 15.7917 2.64775 16.5713 3.16797C16.957 3.42538 17.2896 3.68355 17.5254 3.87695C17.6431 3.97345 17.7369 4.05332 17.8008 4.10938C17.8196 4.12587 17.8361 4.14027 17.8496 4.15234V16.2822C17.7565 16.2053 17.6406 16.1104 17.5049 16.0059C17.2305 15.7945 16.8769 15.5386 16.4814 15.293L16.0732 15.0527H16.0723C15.5033 14.7382 14.8675 14.4668 14.2617 14.3906L14.0039 14.3701C13.114 14.345 12.0828 14.7989 11.292 15.2412C10.8928 15.4645 10.5472 15.6887 10.3018 15.8574C10.179 15.9418 10.0812 16.0129 10.0137 16.0625C9.97993 16.0873 9.95336 16.1067 9.93555 16.1201C9.92672 16.1268 9.91967 16.1322 9.91504 16.1357C9.9135 16.1369 9.91217 16.1379 9.91113 16.1387L9.91016 16.1396C9.90915 16.1404 9.90733 16.1411 9.90527 16.1426C9.90112 16.1456 9.895 16.1503 9.88672 16.1562C9.86987 16.1683 9.84421 16.1863 9.81152 16.209C9.74617 16.2544 9.65116 16.3201 9.53125 16.3984C9.29093 16.5554 8.95229 16.7651 8.5625 16.9766C7.7766 17.4028 6.80342 17.8218 5.99512 17.8486L5.8457 17.8496C5.08819 17.8326 4.18653 17.5176 3.44434 17.1865C3.05187 17.0115 2.70969 16.8343 2.46582 16.7012C2.34394 16.6346 2.24622 16.5788 2.17969 16.54C2.16907 16.5339 2.15942 16.5278 2.15039 16.5225V4.34277C2.2485 4.39642 2.37477 4.4657 2.52441 4.54199C2.80001 4.6825 3.15328 4.85235 3.54492 5.01562L3.94727 5.1748C4.60996 5.42214 5.35167 5.62695 6 5.62695C6.86451 5.62694 7.89373 5.17477 8.68945 4.73926C9.09105 4.51945 9.44062 4.30038 9.68945 4.13574C9.80481 4.05942 9.89808 3.99377 9.96582 3.94629L10.9756 5.31348L10.6289 5.55273L10.6279 5.55371C10.4199 5.69143 10.1476 5.86349 9.83301 6.0459L9.50488 6.23145C8.69372 6.6769 7.33085 7.32714 6 7.32715C5.34117 7.32715 4.66215 7.18808 4.04395 7L3.84961 6.94141V10.3408L3.94141 10.3799C4.56744 10.6437 5.22299 10.8498 5.75293 10.8848L5.97168 10.8887C6.52601 10.8701 7.24556 10.6028 7.93555 10.2549L8.22852 10.1016L8.22949 10.1006C8.55234 9.92455 8.86773 9.7353 9.1748 9.5332L9.47949 9.32715L9.4834 9.32422L9.49414 9.31641L9.49316 9.31543L9.5127 9.30273L9.51465 9.30078L9.90527 9.02051L9.90625 9.01953C10.0991 8.88698 10.3529 8.72043 10.6455 8.5459L10.9502 8.36914C11.7029 7.94919 12.7844 7.44702 13.8174 7.41211L14.0234 7.41113C14.6704 7.429 15.3332 7.64849 15.9355 7.93457L16.1504 8.03613V4.95605Z" fill="#122940" stroke="white" stroke-width="0.3"/>
</svg>
