<svg width="36" height="36" viewBox="0 0 36 36" fill="none" xmlns="http://www.w3.org/2000/svg">
<path d="M29.25 14.3271V33.75H6.75V2.25H17.3665L29.25 14.3271Z" stroke="#1E4062" stroke-width="1.5"/>
<path d="M18 2.25V15.75H29.25" stroke="#1E4062" stroke-width="1.5"/>
<path d="M9.7 26V18.8H12.61C12.68 18.8 12.7667 18.8033 12.87 18.81C12.9733 18.8133 13.0717 18.8233 13.165 18.84C13.565 18.9033 13.8983 19.04 14.165 19.25C14.435 19.46 14.6367 19.725 14.77 20.045C14.9033 20.365 14.97 20.7183 14.97 21.105C14.97 21.495 14.9033 21.85 14.77 22.17C14.6367 22.49 14.435 22.755 14.165 22.965C13.8983 23.175 13.565 23.3117 13.165 23.375C13.0717 23.3883 12.9717 23.3983 12.865 23.405C12.7617 23.4117 12.6767 23.415 12.61 23.415H10.745V26H9.7ZM10.745 22.425H12.57C12.6367 22.425 12.71 22.4217 12.79 22.415C12.8733 22.4083 12.9517 22.3967 13.025 22.38C13.2383 22.33 13.41 22.2383 13.54 22.105C13.67 21.9683 13.7633 21.8117 13.82 21.635C13.8767 21.4583 13.905 21.2817 13.905 21.105C13.905 20.9283 13.8767 20.7533 13.82 20.58C13.7633 20.4033 13.67 20.2483 13.54 20.115C13.41 19.9783 13.2383 19.885 13.025 19.835C12.9517 19.815 12.8733 19.8017 12.79 19.795C12.71 19.7883 12.6367 19.785 12.57 19.785H10.745V22.425ZM15.9695 26V18.8H18.2245C18.2912 18.8 18.4145 18.8017 18.5945 18.805C18.7779 18.8083 18.9529 18.8217 19.1195 18.845C19.6829 18.915 20.1562 19.1167 20.5395 19.45C20.9262 19.7833 21.2179 20.2067 21.4145 20.72C21.6112 21.23 21.7095 21.79 21.7095 22.4C21.7095 23.0133 21.6112 23.5767 21.4145 24.09C21.2179 24.6 20.9262 25.0217 20.5395 25.355C20.1562 25.685 19.6829 25.885 19.1195 25.955C18.9529 25.9783 18.7779 25.9917 18.5945 25.995C18.4145 25.9983 18.2912 26 18.2245 26H15.9695ZM17.0395 25.005H18.2245C18.3379 25.005 18.4729 25.0017 18.6295 24.995C18.7862 24.9883 18.9245 24.975 19.0445 24.955C19.4112 24.885 19.7079 24.7267 19.9345 24.48C20.1645 24.23 20.3329 23.9233 20.4395 23.56C20.5462 23.1967 20.5995 22.81 20.5995 22.4C20.5995 21.9767 20.5445 21.585 20.4345 21.225C20.3245 20.8617 20.1545 20.5583 19.9245 20.315C19.6979 20.0683 19.4045 19.9117 19.0445 19.845C18.9245 19.8217 18.7845 19.8083 18.6245 19.805C18.4679 19.7983 18.3345 19.795 18.2245 19.795H17.0395V25.005ZM22.8738 26V18.8H27.1388V19.845H23.9188V21.875H26.5388V22.925H23.9188V26H22.8738Z" fill="#122940"/>
</svg>
