<svg width="283" height="302" viewBox="0 0 283 302" stroke="#111E45" fill="none" xmlns="http://www.w3.org/2000/svg">
<path d="M7.61934 282.414H10.7315H272.185H275.297C278.818 282.401 281.98 282.455 282.219 279.845V277.797V162.6V135.182L275.678 129.942V137.245H275.297H272.185H259.292V137.327C257.167 137.327 255.428 138.978 255.286 141.067H255.276V228.8C255.276 229.043 255.078 229.241 254.835 229.241H254.151C253.91 229.241 253.71 229.041 253.71 228.8V139.742V139.3V139.294V139.288V139.282V139.277V139.271C253.71 138.571 253.618 137.892 253.446 137.246H253.432C252.535 134.029 249.572 131.651 246.079 131.651H92.5207C89.0278 131.651 86.0641 134.029 85.1676 137.246H85.1531C84.9815 137.892 84.8895 138.571 84.8895 139.271V139.277V139.282V139.288V139.294V139.3V139.742V228.8C84.8895 229.041 84.6898 229.241 84.4489 229.241H83.764C83.5216 229.241 83.3235 229.043 83.3235 228.8V141.067H83.3137C83.1716 138.978 81.4325 137.327 79.3077 137.327V137.245H10.7308H7.61866C7.08266 137.245 6.55526 137.245 6.04492 137.234V131.776L0.697266 135.176V159.207V277.796V279.844C0.936362 282.453 4.09791 282.4 7.61866 282.412L7.61934 282.414Z"  />
<path d="M7.61934 282.413H10.7315H272.185H275.297C278.818 282.401 281.98 282.454 282.219 279.844V277.797V135.563L282.1 135.538C281.453 137.543 278.526 137.234 275.297 137.245H272.185H259.292V137.328C257.167 137.328 255.428 138.978 255.286 141.067H255.276V228.801C255.276 229.043 255.078 229.241 254.835 229.241H254.151C253.91 229.241 253.71 229.042 253.71 228.801V139.743V139.301V139.295V139.289V139.282V139.278V139.272C253.71 138.571 253.618 137.893 253.446 137.247H253.432C252.535 134.03 249.572 131.651 246.079 131.651H92.5207C89.0278 131.651 86.0641 134.03 85.1676 137.247H85.1531C84.9815 137.893 84.8895 138.571 84.8895 139.272V139.278V139.282V139.289V139.295V139.301V139.743V228.801C84.8895 229.041 84.6893 229.241 84.4489 229.241H83.764C83.5221 229.241 83.3235 229.043 83.3235 228.801V141.067H83.3137C83.1716 138.978 81.4325 137.328 79.3077 137.328V137.245H10.7308H7.61866C4.38963 137.234 1.55645 137.626 0.909231 135.62L0.697266 135.654V277.797V279.844C0.936362 282.454 4.09791 282.401 7.61866 282.413L7.61934 282.413Z"  />
<path d="M251.707 203.083V253.996V254.438V254.445V254.451V254.457V254.461V254.467C251.707 255.168 251.618 255.846 251.45 256.493H251.436C250.561 259.71 247.667 262.088 244.257 262.088H94.3426C90.9326 262.088 88.0392 259.71 87.164 256.493H87.15C86.9824 255.846 86.8926 255.168 86.8926 254.467V254.461V254.457V254.451V254.445V254.438V253.996V203.083H251.707Z"  />
<path d="M89.7383 145.574V246.531C89.7383 252.841 92.8932 255.996 99.203 255.996H239.991C246.3 255.996 249.455 252.841 249.455 246.531V145.574C249.455 139.264 246.3 136.109 239.991 136.109H99.203C92.8932 136.109 89.7383 139.264 89.7383 145.574Z"  />
<path d="M103.738 145.377V248.503C103.738 250.343 104.659 251.263 106.499 251.263H241.568C243.409 251.263 244.329 250.343 244.329 248.503V145.377C244.329 143.536 243.409 142.616 241.568 142.616H106.499C104.659 142.616 103.738 143.536 103.738 145.377Z"  />
<path fill-rule="evenodd" clip-rule="evenodd" d="M93.4653 144.584V157.109C93.4653 158.027 93.9244 158.486 94.8425 158.486C95.7605 158.486 96.2195 158.027 96.2195 157.109V144.584C96.2195 143.666 95.7605 143.207 94.8425 143.207C93.9244 143.207 93.4653 143.666 93.4653 144.584Z" fill="#ECECED"  />
<path d="M278.098 282.36V296.239C278.114 300.122 277.172 301.028 265.755 300.999H259.866H23.3187H17.4293C6.0126 301.028 5.07025 300.122 5.08663 296.239V282.374C5.88169 282.411 6.73931 282.41 7.61928 282.413H10.7314H17.4293H23.3187H259.866H265.755H272.185H275.297C276.277 282.408 277.229 282.413 278.098 282.36Z"  />
<path d="M18.8697 126.603H118.224V110.554H40.4088H32.4432C31.0986 110.554 30.8158 110.77 29.6863 111.422L6.57953 124.911C5.82534 125.594 5.59946 126.602 8.10486 126.603H18.8697ZM122.998 126.603H161.035V110.554H122.998V126.603ZM161.998 126.603H171.996V124.924C170.798 124.899 169.992 124.854 169.992 124.801V121.618L167.489 121.319L167.481 121.241V114.995L169.421 110.554H161.998L161.998 126.603ZM176.101 126.603H208.809V122.144C208.079 122.132 207.529 122.082 207.529 122.023V120.169L178.058 121.871V124.801C178.058 124.853 177.273 124.898 176.101 124.923V126.603ZM209.638 126.603H262.896H273.661C276.166 126.603 275.94 125.594 275.186 124.911L257.369 111.422C256.385 110.69 256.405 110.554 254.612 110.554H241.357H216.596L216.912 118.926V118.996L210.72 119.88V122.023C210.72 122.077 210.268 122.123 209.639 122.139L209.638 126.603Z"  />
<path d="M6.04549 125.927L6.08422 125.645C5.97272 126.149 6.42499 126.602 8.10421 126.603H18.869H161.997H171.996M171.996 131.65H161.997H92.5207C89.0278 131.65 86.0641 134.029 85.1676 137.245H85.1532C84.9816 137.892 84.8894 138.571 84.8894 139.271V139.277V139.281V139.287V139.293V139.3V139.742V228.8C84.8894 229.041 84.6898 229.24 84.4489 229.24H83.7641C83.5217 229.24 83.3235 229.042 83.3235 228.8V141.066H83.3137C83.1716 138.977 81.4325 137.327 79.3077 137.327V137.244H10.7309H7.61866C7.08266 137.244 6.55526 137.244 6.04492 137.234V125.926M169.43 126.602H190.544H262.895H273.66C274.978 126.601 275.53 126.299 275.656 125.935C275.656 125.93 275.656 125.92 275.656 125.922L275.679 125.993V137.243H275.299H272.186H259.293V137.325C257.168 137.325 255.429 138.976 255.287 141.065H255.277V228.798C255.277 229.041 255.079 229.239 254.837 229.239H254.152C253.911 229.239 253.711 229.039 253.711 228.798V139.74V139.298V139.292V139.286V139.28V139.275V139.269C253.711 138.569 253.619 137.89 253.448 137.244H253.433C252.537 134.027 249.573 131.649 246.08 131.649H190.546H169.431"  />
<path d="M162.771 96.9934L170.457 97.4181L163.475 97.0322L162.771 96.9934ZM35.1962 110.554H118.224V104.394C116.83 104.365 115.893 104.311 115.893 104.25V100.549L112.983 100.201L112.973 100.111V92.8469L115.791 86.3972L158.184 76.1276L158.247 76.1323L164.196 76.4422L170.019 85.8349L170.458 97.4195V97.5008L163.256 98.5292V101.021C163.256 101.084 162.731 101.138 162 101.157V110.555H169.423L169.906 109.45L206.36 100.619L206.414 100.624L211.529 100.89L216.537 108.967L216.597 110.557H255.897H256.646C259.289 110.503 260.908 109.722 262.116 107.538L281.501 53.6887C283.411 49.3309 275.865 46.4621 268.043 46.5611H255.897H27.6683H15.5216C7.69946 46.4621 0.153734 49.3309 2.06375 53.6887L25.589 107.538C26.8855 110.2 28.8492 110.56 31.8079 110.557L35.1962 110.554ZM122.997 110.554H161.034V101.16C160.186 101.147 159.546 101.09 159.546 101.02V98.8643L125.273 100.844V104.25C125.273 104.311 124.361 104.363 122.997 104.393V110.554Z"  />
<path d="M162.771 96.9934L170.457 97.4181L163.475 97.0323L162.771 96.9934ZM45.6933 49.2777H237.46H266.995C271.549 49.2053 272.536 51.1801 271.404 55.0303L256.444 100.57C254.456 106.172 255.337 105.172 244.587 105.496H237.46H214.385L211.527 100.887L206.411 100.62L206.358 100.616L186.219 105.494H161.998V101.153C162.728 101.134 163.254 101.081 163.254 101.018V98.5259L170.455 97.4976V97.4162L170.017 85.8316L164.193 76.4389L158.244 76.129L158.182 76.1243L115.789 86.394L112.971 92.8436V100.108L112.98 100.198L115.891 100.546V104.247C115.891 104.308 116.827 104.361 118.222 104.391V105.493H45.6912H42.485C31.7351 105.169 32.6158 106.168 30.6276 100.567L11.7472 55.027C10.6144 51.1768 11.6016 49.202 16.1559 49.2744L45.6933 49.2777ZM161.034 105.496H122.997V104.393C124.361 104.364 125.273 104.311 125.273 104.25V100.844L159.546 98.8643V101.02C159.546 101.09 160.186 101.147 161.034 101.16V105.496Z"  />
<path d="M255.374 103.88L254.809 105.628C252.853 111.23 253.719 110.231 243.142 110.554H236.129H216.596L216.535 108.964L214.385 105.496H237.46H244.587C252.349 105.263 254.048 105.718 255.141 103.88H255.374ZM169.421 110.554H161.998V105.496H186.22L169.904 109.449L169.421 110.554ZM161.035 110.554H122.998V105.496H161.035V110.554ZM118.224 110.554H47.4381H44.2833C33.7059 110.231 34.5723 111.23 32.6162 105.628L31.8792 103.88H31.9345C33.0273 105.718 34.7251 105.263 42.4877 105.496H45.6938H118.224V110.554Z"  />
<path d="M281.794 51.6568V44.9375C281.849 42.6294 281.098 42.1066 279.505 40.7429L254.473 9.97029C249.466 4.37092 247.748 2.86509 239.28 2.45856C177.665 0.780923 115.957 0.481603 54.1339 1.92136L53.746 2.29312C51.9447 2.34626 50.1241 2.40104 48.2645 2.45856C39.7958 2.86509 38.0781 4.37092 33.0714 9.97029L4.07213 40.7429C2.47912 42.1066 1.72818 42.6294 1.78253 44.9375V51.5165H1.88869C2.83859 48.4041 9.08477 46.4766 15.5197 46.558H27.6663H255.895H268.041C274.573 46.4754 280.909 48.462 281.712 51.6568H281.794Z"  />
<path d="M281.794 51.7845V44.9372C281.838 43.0655 281.353 42.3679 280.318 41.4438C277.947 39.4609 273.051 38.3068 268.041 38.3702H255.895H27.6664H15.5197C10.6284 38.3083 5.84622 39.4072 3.41607 41.3048C2.27336 42.3016 1.73626 42.9731 1.78254 44.9372V51.6289H1.85714C2.68896 48.4505 9.00737 46.4753 15.5197 46.5577H27.6664H255.895H268.041C274.66 46.4739 281.078 48.5148 281.741 51.7845H281.794Z"  />
<path d="M240.416 49.2781L234.293 68.6696C230.6 77.7909 222.24 77.1343 200.293 77.8335L165.567 78.6526L164.195 76.4412L158.246 76.1314L158.184 76.1267L145.842 79.1164L144.701 79.1434L89.109 77.8322C67.1617 77.133 58.802 77.7898 55.1085 68.6683L47.9314 49.2769H237.46L240.416 49.2781Z"  />
<path d="M244.962 49.2782L238.761 69.5728C234.885 79.4669 226.111 78.7546 203.075 79.5131L166.651 80.4011L164.196 76.4413L158.246 76.1315L158.184 76.1268L138.923 80.7927L86.379 79.5118C63.3434 78.7533 54.5693 79.4656 50.6927 69.5715L43.4248 49.2769H45.6936H237.46L244.962 49.2782Z"  />
<path d="M112.973 100.111L162.771 96.9937L170.457 97.4184V97.4998L163.256 98.5281V97.666C163.256 97.5868 162.426 97.5227 161.402 97.5227C160.378 97.5227 159.548 97.5868 159.548 97.666V98.8644L125.275 100.844V100.368C125.275 100.276 123.175 100.202 120.585 100.202C117.995 100.202 115.895 100.276 115.895 100.368V100.549L112.985 100.202L112.973 100.111Z"  />
<path d="M158.247 76.1313L164.196 76.4413L170.019 85.8341L170.458 97.4186L163.476 97.0328L163.421 85.8418L158.247 76.1313Z"  />
<path d="M115.791 86.3975L158.184 76.1279L158.246 76.1326L163.421 85.8431L163.476 97.0341L162.771 96.9954L112.973 100.113V92.8489L115.791 86.3975Z"  />
<path d="M122.998 104.393V126.603H118.224V104.394C118.917 104.407 119.723 104.414 120.583 104.414C121.466 104.414 122.292 104.407 122.998 104.393Z"  />
<path d="M161.998 101.156V126.603H161.034V101.16C161.152 101.16 161.275 101.165 161.4 101.165C161.609 101.165 161.81 101.16 161.998 101.158V101.156Z"  />
<path d="M163.254 97.6662V101.02C163.254 101.099 162.424 101.164 161.4 101.164C160.376 101.164 159.546 101.099 159.546 101.02V97.6662C159.546 97.587 160.376 97.5229 161.4 97.5229C162.424 97.5229 163.254 97.587 163.254 97.6662Z"  />
<path d="M125.273 100.367V104.25C125.273 104.342 123.173 104.416 120.583 104.416C117.993 104.416 115.893 104.342 115.893 104.25V100.367C115.893 100.276 117.993 100.202 120.583 100.202C123.173 100.202 125.273 100.276 125.273 100.367Z"  />
<path d="M167.481 121.241L210.303 118.56L216.912 118.925V118.995L210.72 119.88V119.138C210.72 119.07 210.006 119.015 209.125 119.015C208.245 119.015 207.531 119.07 207.531 119.138V120.169L178.059 121.871V121.462C178.059 121.383 176.254 121.319 174.026 121.319C171.799 121.319 169.993 121.383 169.993 121.462V121.618L167.491 121.319L167.481 121.241Z"  />
<path d="M206.411 100.621L211.527 100.887L216.535 108.964L216.912 118.926L210.908 118.594L210.861 108.971L206.411 100.621Z"  />
<path d="M169.904 109.449L206.358 100.618L206.412 100.622L210.861 108.972L210.908 118.596L210.303 118.562L167.481 121.243V114.996L169.904 109.449Z"  />
<path d="M176.101 124.923V126.603H171.996V124.923C172.592 124.923 173.285 124.923 174.025 124.923C174.784 124.923 175.494 124.923 176.101 124.923Z"  />
<path d="M209.638 122.14V126.603H208.809V122.14C208.911 122.141 209.016 122.141 209.124 122.141C209.304 122.141 209.477 122.14 209.638 122.141V122.14Z"  />
<path d="M210.718 119.139V122.023C210.718 122.091 210.004 122.146 209.123 122.146C208.243 122.146 207.529 122.091 207.529 122.023V119.139C207.529 119.071 208.243 119.016 209.123 119.016C210.004 119.016 210.718 119.071 210.718 119.139Z"  />
<path d="M178.058 121.462V124.801C178.058 124.88 176.252 124.944 174.025 124.944C171.797 124.944 169.992 124.88 169.992 124.801V121.462C169.992 121.383 171.797 121.319 174.025 121.319C176.252 121.319 178.058 121.383 178.058 121.462Z"  />
<path d="M27.4625 162.131C29.2937 162.131 31.05 162.858 32.3449 164.153C33.6397 165.448 34.3672 167.204 34.3672 169.036C34.3672 170.401 33.9622 171.736 33.2035 172.872C32.4448 174.007 31.3665 174.892 30.1048 175.415C28.8431 175.937 27.4548 176.074 26.1154 175.808C24.776 175.541 23.5456 174.884 22.58 173.918C21.6143 172.952 20.9567 171.722 20.6903 170.383C20.4239 169.043 20.5606 167.655 21.0832 166.393C21.6059 165.132 22.4909 164.053 23.6264 163.294C24.7619 162.536 26.0968 162.131 27.4625 162.131Z"  />
<path d="M27.463 165.598C28.3746 165.598 29.2488 165.96 29.8935 166.605C30.5381 167.25 30.9003 168.124 30.9003 169.035C30.9003 169.715 30.6986 170.38 30.3209 170.945C29.9432 171.51 29.4065 171.951 28.7784 172.211C28.1503 172.471 27.4591 172.539 26.7923 172.407C26.1256 172.274 25.5131 171.947 25.0324 171.466C24.5517 170.985 24.2243 170.373 24.0917 169.706C23.9591 169.039 24.0271 168.348 24.2873 167.72C24.5474 167.092 24.988 166.555 25.5532 166.177C26.1185 165.8 26.7831 165.598 27.463 165.598Z"  />
<path d="M27.0872 164.472V169.417H27.8385V164.472H27.0872Z"  />
</svg>
