<svg width="226" height="302" viewBox="0 0 226 302" stroke="#111E45" fill="none" xmlns="http://www.w3.org/2000/svg">
<path d="M0.697266 289.769C0.697266 291.372 1.61307 293.464 4.78063 293.524L14.9648 293.715H52.2466H173.622H210.904L221.088 293.524C224.256 293.464 225.172 291.372 225.172 289.769L223.856 31.0153C223.266 7.06721 201.284 1.52247 156.857 1.33793L130.537 1.05868L130.528 1H125.007H100.862H95.3408L95.332 1.05868L69.0119 1.33793C24.5845 1.52247 2.60288 7.06721 2.01228 31.0153L0.697266 289.769Z"   />
<path d="M20.1281 147.202C34.6738 161.885 54.4809 158.242 107.041 159.829H120.703C173.262 158.242 193.069 161.885 207.615 147.202C215.925 139.106 216.014 104.413 215.832 81.5582C213.643 57.4742 216.122 24.2464 203.359 11.7616C195.233 2.72035 152.991 3.70538 119.751 3.14689L118.264 2.90186C116.829 2.94932 115.362 2.99036 113.872 3.02692C112.382 2.99026 110.915 2.94932 109.479 2.90186L107.992 3.14689C74.7521 3.70538 32.51 2.72035 24.3845 11.7616C11.6216 24.2464 14.1005 57.4742 11.9109 81.5582C11.7289 104.413 11.8181 139.106 20.1281 147.202Z"   />
<path d="M24.8887 143.197C38.6957 157.904 57.497 154.255 107.387 155.844H120.356C170.246 154.255 189.047 157.904 202.854 143.197C210.742 135.087 210.827 100.336 210.654 77.4432C208.686 54.6 210.689 23.5478 200.622 9.69703C188.221 2.87591 150.209 3.65865 119.751 3.14689L118.264 2.90186C116.828 2.94932 115.362 2.99036 113.872 3.02692C112.381 2.99026 110.915 2.94932 109.479 2.90186L107.992 3.14689C77.5338 3.65865 39.5224 2.87591 27.1212 9.69703C17.054 23.5478 19.0568 54.6 17.0888 77.4432C16.916 100.336 17.0007 135.087 24.8887 143.197Z"   />
<path d="M20.1281 147.202C34.6738 161.885 54.4809 158.242 107.041 159.829H120.703C173.262 158.242 193.069 161.885 207.615 147.202C215.925 139.106 216.014 104.413 215.832 81.5582C213.643 57.4742 216.122 24.2464 203.359 11.7616C195.233 2.72035 152.991 3.70538 119.751 3.14689L118.264 2.90186C116.829 2.94932 115.362 2.99036 113.872 3.02692C112.382 2.99026 110.915 2.94932 109.479 2.90186L107.992 3.14689C74.7521 3.70538 32.51 2.72035 24.3845 11.7616C11.6216 24.2464 14.1005 57.4742 11.9109 81.5582C11.7289 104.413 11.8181 139.106 20.1281 147.202Z"   />
<path d="M178.966 183.627C193.476 183.627 205.347 198.13 205.347 212.639V238.479C205.347 252.988 193.475 268.805 178.967 268.805C164.458 268.805 152.586 252.988 152.586 238.479V212.639C152.586 198.129 164.457 183.627 178.966 183.627Z"   />
<path d="M24.4175 150.894C19.222 159.112 16.8139 172.441 15.2763 187.366H14.4369C14.1623 173.437 15.0418 159.85 20.5756 147.643C21.8115 148.849 23.0863 149.93 24.4175 150.894Z"   />
<path d="M203.3 150.894C208.496 159.112 210.904 172.441 212.441 187.366H213.281C213.556 173.437 212.676 159.85 207.142 147.643C205.906 148.849 204.632 149.93 203.3 150.894Z"   />
<path d="M88.2437 137.496C88.2437 139.779 89.3851 140.921 91.668 140.921H134.459C136.741 140.921 137.883 139.779 137.883 137.496C137.883 135.213 136.741 134.072 134.459 134.072H91.668C89.3851 134.072 88.2437 135.213 88.2437 137.496Z"   />
<path d="M163.565 21.3794C163.565 23.6623 164.706 24.8038 166.989 24.8038H179.049C181.332 24.8038 182.474 23.6623 182.474 21.3794C182.474 19.0965 181.332 17.9551 179.049 17.9551H166.989C164.706 17.9551 163.565 19.0965 163.565 21.3794Z"   />
<path d="M44.1575 30.8923V123.6C44.1575 126.303 45.5091 127.655 48.2123 127.655H179.531C182.234 127.655 183.586 126.303 183.586 123.6V30.8923C183.586 28.189 182.234 26.8374 179.531 26.8374H48.2123C45.5091 26.8374 44.1575 28.189 44.1575 30.8923Z"   />
<path d="M202.063 293.715L199.968 298.775C199.546 299.795 198.31 300.703 197.21 300.782C193.135 301.073 189.893 301.073 185.818 300.782C184.717 300.703 183.482 299.795 183.06 298.775L180.965 293.715H202.063Z"   />
<path d="M44.9049 293.715L42.8103 298.775C42.3883 299.795 41.1525 300.703 40.0523 300.782C35.9772 301.073 32.735 301.073 28.6598 300.782C27.5597 300.703 26.324 299.795 25.9018 298.775L23.8074 293.715H44.9049Z"   />
<path d="M77.421 229.849L79.047 232.361C79.3703 232.861 79.7817 232.949 80.2813 232.626L85.7469 229.088C86.2464 228.765 86.3345 228.354 86.0112 227.854L84.3853 225.342C84.0619 224.842 83.6505 224.754 83.1509 225.077L77.6854 228.614C77.1858 228.938 77.0977 229.349 77.421 229.849Z"   />
<path d="M73.7007 233.636C71.3157 232.949 69.571 230.75 69.571 228.143C69.571 225.525 71.3318 223.317 73.7338 222.641L73.7579 222.712C71.9834 223.867 70.8099 225.868 70.8099 228.143C70.8099 230.406 71.9704 232.397 73.7283 233.556L73.7007 233.636Z"   />
<path d="M75.3484 231.516C73.883 231.094 72.811 229.743 72.811 228.141C72.811 226.532 73.8929 225.176 75.3687 224.76L75.3835 224.804C74.2932 225.514 73.5722 226.743 73.5722 228.141C73.5722 229.532 74.2852 230.755 75.3653 231.467L75.3484 231.516Z"   />
<path d="M88.9931 233.636C91.3782 232.949 93.1229 230.75 93.1229 228.143C93.1229 225.525 91.362 223.317 88.9602 222.641L88.936 222.712C90.7105 223.867 91.8841 225.868 91.8841 228.143C91.8841 230.406 90.7235 232.397 88.9656 233.556L88.9931 233.636Z"   />
<path d="M87.3457 231.516C88.8111 231.094 89.8831 229.743 89.8831 228.141C89.8831 226.532 88.8012 225.176 87.3254 224.76L87.3105 224.804C88.4008 225.514 89.1219 226.743 89.1219 228.141C89.1219 229.532 88.4088 230.755 87.3287 231.467L87.3457 231.516Z"   />
<path d="M3.47827 289.769C3.47827 291.372 4.37138 293.464 7.46047 293.524L17.3923 293.715H53.7504H172.119H208.477L218.409 293.524C221.498 293.464 222.391 291.372 222.391 289.769L221.108 31.0153C220.532 7.06721 199.095 1.52247 155.769 1.33793L130.101 1.05868L130.092 1H124.708H101.162H95.7771L95.7687 1.05868L70.1008 1.33793C26.7741 1.52247 5.3371 7.06721 4.76117 31.0153L3.47827 289.769Z"   />
</svg>
