<svg width="414" height="302" viewBox="0 0 414 302" stroke="#111E45" fill="none" xmlns="http://www.w3.org/2000/svg">
<path d="M362.752 136.7C362.791 136.917 362.83 137.133 362.868 137.348M364.366 167.609C364.352 167.614 364.339 167.62 364.324 167.623C362.207 168.103 358.122 158.597 353.898 144.247L358.075 143.301L358.112 143.293V143.288C359.533 142.799 358.575 133.114 355.948 121.516C353.299 109.819 349.956 100.607 348.482 100.941C348.432 100.952 348.385 100.976 348.34 101.009L344.277 101.929C341.9 87.3237 341.406 76.9178 343.326 75.8354"     />
<path d="M404.03 56.7312L369.771 64.4898L367.275 52.524L363.838 38.2657L398.091 30.5083L400.483 41.0662L403.731 40.3305L404.828 45.1721L401.579 45.9079L404.03 56.7312ZM362.199 66.2046L360.648 66.5561L325.494 74.5174C324.958 70.7425 324.15 66.3535 323.052 61.5044C321.953 56.6552 320.591 52.0567 319.304 48.3514L354.653 40.3461L356.009 40.0387L359.232 51.4365L362.199 66.2046Z"     />
<path d="M360.221 55.1339C360.073 54.4462 359.946 53.8676 359.761 53.0499C359.576 52.2322 359.334 51.1968 359.116 50.2941M360.221 55.1339L358.954 50.3308L359.116 50.2941M360.221 55.1339L358.152 55.6025L323.512 63.5879C323.364 62.9005 323.237 62.3215 323.052 61.504C322.867 60.6865 322.62 59.6522 322.395 58.7509L357.045 50.7631L359.116 50.2941M404.828 45.1717L367.498 53.4859C367.323 52.6947 367.143 51.8902 366.965 51.101C366.786 50.3118 366.61 49.5475 366.431 48.7775V48.6372L403.732 40.3301L404.828 45.1717Z"     />
<path d="M397.839 53.7966L373.379 59.3361L373.116 58.1752L397.576 52.6357L397.839 53.7966Z"     />
<path d="M395.522 20.1914C399.339 19.3268 404.805 29.0951 407.73 42.0093C410.654 54.9238 409.931 66.0939 406.113 66.9584C403.745 67.4949 400.741 63.9361 398.104 58.0734L404.031 56.7312L401.579 45.9079L404.828 45.1722L403.732 40.3305L400.483 41.0662L398.092 30.5083L392.127 31.8592C391.952 25.3262 393.129 20.7332 395.522 20.1914Z"     />
<path d="M406.113 66.9581L409.747 66.135C413.564 65.2704 414.288 54.1004 411.364 41.1862C408.439 28.2717 402.973 18.5036 399.156 19.3682L395.525 20.1912C397.282 19.7931 399.388 21.6487 401.435 25.0257L401.457 25.0623C401.585 25.2749 401.713 25.4934 401.841 25.718L401.87 25.7677L401.987 25.9764L402.122 26.2201C402.3 26.5466 402.478 26.8847 402.655 27.2331L402.662 27.2473C402.74 27.4017 402.818 27.558 402.896 27.7164L402.931 27.7877L403.035 28.003L403.156 28.2565L403.185 28.3179L403.191 28.3301L403.239 28.433L403.34 28.6493L403.439 28.8668L403.477 28.9508C403.541 29.0904 403.604 29.2315 403.667 29.3737L403.732 29.5234L403.83 29.7476L403.835 29.7551L403.963 30.0537V30.0583L404.038 30.2359L404.134 30.4663L404.205 30.6371L404.215 30.6608L404.341 30.9695L404.35 30.9932L404.431 31.1959L404.496 31.3594L404.59 31.5977L404.713 31.9168L404.725 31.9488L404.797 32.1384L404.903 32.4207L404.942 32.5242L404.957 32.565L405.078 32.8941L405.094 32.9395L405.166 33.1374L405.305 33.528L405.311 33.5437L405.317 33.5609L405.473 34.0097L405.508 34.1144L405.653 34.5391L405.667 34.5837L405.672 34.591L405.694 34.6579L405.829 35.0661L405.867 35.182L406.011 35.6328L406.022 35.6666L406.045 35.7405L406.173 36.1509L406.205 36.2536L406.342 36.7066L406.361 36.768L406.386 36.8517L406.501 37.2419L406.542 37.3815L406.681 37.8663L406.707 37.9583L406.823 38.3754L406.858 38.502C406.904 38.6686 406.949 38.8363 406.994 39.0047L407.02 39.1031L407.135 39.545L407.157 39.626L407.171 39.6819L407.298 40.1807L407.317 40.2579C407.361 40.4348 407.405 40.6124 407.448 40.7905L407.453 40.8072L407.46 40.8359C407.501 41.0032 407.541 41.1723 407.58 41.3408L407.609 41.4653C407.652 41.6457 407.693 41.8271 407.735 42.0087C407.775 42.1878 407.815 42.3664 407.854 42.5447L407.885 42.6909L407.973 43.098L408.007 43.2585L408.118 43.7951L408.128 43.8432L408.22 44.309L408.252 44.4704L408.349 44.9776L408.364 45.0566L408.443 45.4865L408.474 45.6587L408.559 46.143L408.564 46.1727V46.1773L408.647 46.6707L408.673 46.8298L408.742 47.2608L408.753 47.3301L408.757 47.3495C408.784 47.521 408.81 47.6917 408.835 47.8619L408.85 47.9609L408.916 48.419L408.925 48.4882C408.949 48.6622 408.973 48.8348 408.996 49.007L409.007 49.0949L409.057 49.4845L409.078 49.6565L409.135 50.1323L409.141 50.1854L409.189 50.6201L409.202 50.7412C409.22 50.9032 409.236 51.0643 409.252 51.2247V51.2339L409.296 51.6908L409.312 51.8737L409.337 52.1706L409.351 52.3369L409.38 52.7019V52.7195L409.4 52.9967L409.411 53.1642L409.427 53.4075C409.436 53.5447 409.443 53.6808 409.45 53.8163L409.458 53.9624L409.472 54.2257L409.483 54.4649V54.4793L409.496 54.8249L409.503 55.0396L409.508 55.2176L409.515 55.4591L409.52 55.6513L409.525 55.9953L409.529 56.2246V56.4322V56.5889C409.529 56.8725 409.526 57.1515 409.52 57.4261V57.498C409.513 57.7822 409.504 58.0618 409.491 58.3363L409.487 58.4247C409.474 58.7029 409.457 58.976 409.437 59.2441L409.433 59.2913L409.412 59.5574L409.407 59.5857C409.36 60.1451 409.3 60.6789 409.226 61.1855L409.221 61.2096C408.74 64.4829 407.691 66.6008 406.113 66.9581ZM406.113 66.9581C405.941 66.9975 405.764 67.0138 405.586 67.01L405.6 67.0743L406.113 66.9581ZM395.285 20.2611L395.28 20.2458L395.521 20.1912C395.44 20.2093 395.361 20.2339 395.284 20.2612L395.285 20.2611Z"     />
<path d="M351.796 29.8289C352.648 29.6362 357.195 39.813 360.145 52.8388C363.095 65.8646 364.154 76.6397 362.565 77.1866V77.1912L362.524 77.2005L350.324 79.9824C348.753 76.6631 347.413 74.8788 346.466 75.0931L343.562 75.7508V75.7554M343.562 75.7554C343.547 75.7554 343.532 75.7554 343.518 75.7605C343.532 75.7559 343.547 75.7559 343.562 75.7554ZM343.562 75.7554C344.506 75.607 345.83 77.3875 347.375 80.6543L344.772 81.248L342.141 81.848L192.072 116.068L191.987 115.948C193.425 114.971 192.409 104.399 189.543 91.7408C186.676 79.0821 183.096 69.0642 181.37 68.7309L181.35 68.6844L351.634 29.9051C351.684 29.8685 350.941 30.0223 351.793 29.8292"     />
<path d="M337.417 77.2468L331.537 78.5784C331.218 78.6506 330.898 78.4486 330.825 78.1293C330.753 77.8102 330.955 77.4899 331.274 77.4176L337.154 76.086C337.473 76.0137 337.794 76.2157 337.866 76.535C337.938 76.8543 337.736 77.1746 337.417 77.2468Z"     />
<path d="M358.826 72.3982L346.854 75.1094C346.719 75.0714 346.589 75.065 346.466 75.0928L343.562 75.7505V75.7551M343.562 75.7551C343.548 75.7551 343.533 75.7551 343.518 75.7602C343.533 75.7556 343.548 75.7556 343.562 75.7551ZM343.562 75.7551C343.668 75.7384 343.78 75.748 343.895 75.7791L343.539 75.8595L343.176 75.9418L342.383 76.1214C342.063 76.1937 341.743 75.9917 341.671 75.6724C341.599 75.3531 341.801 75.0329 342.12 74.9607L358.56 71.2373C358.879 71.165 359.199 71.3669 359.272 71.6863C359.344 72.0055 359.142 72.3258 358.823 72.3981"     />
<path d="M349.133 1.01929L345.885 1.7549V1.75999C349.321 1.20928 357.247 23.4997 363.641 51.7338C370.035 79.968 372.487 103.498 369.149 104.482V104.487L372.397 103.751C375.806 102.979 373.361 79.3558 366.936 50.9873C360.511 22.6187 352.539 0.247273 349.13 1.0194L349.133 1.01929Z"     />
<path d="M298.478 41.9438C299.538 42.4295 303.828 52.1319 306.727 64.9363C309.627 77.7407 310.737 88.7374 309.148 89.2843V89.2889L309.106 89.2986L192.075 116.069L192.068 116.039C193.506 115.061 192.417 104.423 189.545 91.7413C186.684 79.1056 183.099 69.0646 181.372 68.7314L181.353 68.6848L298.219 42.003L298.478 41.9438Z"     />
<path d="M314.45 38.2869C315.427 37.6457 319.962 47.868 322.799 61.2967C325.637 74.7251 326.808 85.0976 325.22 85.6441V85.6487L325.178 85.658L192.306 116.016L192.262 115.823C193.395 114.007 192.276 103.798 189.546 91.7404C186.815 79.6828 183.425 69.9882 181.621 68.837L181.586 68.6822L314.291 38.3626C314.34 38.326 313.472 38.9284 314.449 38.287L314.45 38.2869Z"     />
<path d="M308.378 89.5304C302.667 83.5341 297.82 75.2285 296.009 67.1917C294.263 59.4475 294.368 49.4669 297.708 42.186"     />
<path d="M204.234 108.216L198.354 109.547C198.035 109.62 197.714 109.418 197.642 109.098C197.57 108.779 197.772 108.459 198.091 108.386L203.971 107.055C204.29 106.982 204.61 107.184 204.683 107.504C204.755 107.823 204.553 108.143 204.234 108.216Z"     />
<path d="M263.198 94.862L209.998 106.91C209.679 106.983 209.359 106.781 209.287 106.461C209.214 106.142 209.416 105.822 209.736 105.749L262.935 93.7012C263.254 93.6289 263.574 93.8309 263.646 94.1502C263.719 94.4695 263.517 94.7897 263.198 94.862Z"     />
<path d="M192.033 116.629C188.488 112.907 185.28 108.082 182.924 103.036M178.443 85.5858C177.971 79.5828 178.443 73.2139 180.703 68.2856"     />
<path d="M145.081 95.1313L181.101 84.8257C184.659 90.2929 185.747 96.3195 185.155 102.727L147.967 107.876L145.081 95.1313Z"     />
<path d="M167.344 83.5306C170.041 82.9199 173.561 88.3103 175.205 95.5703C176.849 102.83 175.995 109.211 173.299 109.822C171.64 110.198 169.67 108.303 168.017 105.1L169.303 104.921C169.869 105.695 170.42 106.092 170.89 105.986C172.229 105.683 172.403 101.417 171.28 96.4592C170.157 91.5011 168.162 87.7273 166.823 88.0304C166.447 88.1158 166.162 88.5141 165.973 89.1533L164.635 89.5358C164.822 86.215 165.768 83.8877 167.344 83.5306Z"     />
<path d="M167.722 101.558L159.904 102.838C159.581 102.891 159.282 102.669 159.241 102.343C159.2 102.018 159.43 101.709 159.754 101.656L167.572 100.375C167.896 100.322 168.194 100.545 168.235 100.871C168.276 101.196 168.046 101.505 167.722 101.558Z"     />
<path d="M156.984 103.35L152.057 104.01C151.733 104.054 151.426 103.825 151.375 103.502C151.324 103.179 151.547 102.879 151.871 102.836L156.797 102.176C157.121 102.132 157.428 102.361 157.479 102.684C157.53 103.006 157.308 103.306 156.984 103.35Z"     />
<path d="M142.887 103.981L142.175 100.835L142.152 100.733L144.413 95.3241L145.081 95.1313L146.524 101.504L147.967 107.876L147.243 108.015L142.91 104.083L142.887 103.981Z"     />
<path d="M185.007 67.9077C187.831 68.1175 192.274 81.4128 193.502 90.5302"     />
<path d="M204.502 63.4922C207.326 63.702 211.769 76.9973 212.998 86.1148"     />
<path d="M223.998 59.0771C226.821 59.2869 231.265 72.5821 232.493 81.6994"     />
<path d="M243.493 54.6621C246.317 54.8719 250.76 68.1669 251.989 77.2845"     />
<path d="M188.516 67.1128C190.066 67.2281 192.105 71.2891 193.832 76.4374"     />
<path d="M192.405 66.2319C193.956 66.3473 195.994 70.4083 197.721 75.5565"     />
<path d="M196.294 65.3511C197.845 65.4662 199.884 69.5275 201.61 74.6758"     />
<path d="M200.183 64.4702C201.734 64.5854 203.773 68.6463 205.499 73.7949"     />
<path d="M208.115 62.6738C209.666 62.7892 211.705 66.8501 213.431 71.9982"     />
<path d="M212.005 61.793C213.555 61.9083 215.594 65.9692 217.321 71.1173"     />
<path d="M215.894 60.9126C217.444 61.0276 219.483 65.0887 221.21 70.2366"     />
<path d="M219.783 60.0317C221.334 60.1469 223.373 64.2079 225.099 69.356"     />
<path d="M228.176 58.1309C229.726 58.2462 231.765 62.3071 233.491 67.4553"     />
<path d="M232.065 57.25C233.615 57.365 235.654 61.4262 237.381 66.5744"     />
<path d="M235.953 56.3691C237.504 56.4843 239.543 60.5453 241.269 65.6937"     />
<path d="M239.843 55.4883C241.393 55.6036 243.432 59.6647 245.159 64.8128"     />
<path d="M85.7396 115.755L142.747 103.361L142.315 101.456L94.1726 112.585L85.7396 115.755Z"     />
<path d="M367.345 69.9155C367.389 70.1575 367.432 70.3999 367.475 70.6401M369.15 104.481C369.134 104.486 369.119 104.494 369.103 104.497C366.735 105.034 362.167 94.4032 357.444 78.3555L362.114 77.2977L362.156 77.2884V77.2839C363.744 76.737 362.673 65.9063 359.735 52.936C356.773 39.8547 353.035 29.5532 351.387 29.9263C351.33 29.9393 351.278 29.9652 351.228 30.002L346.684 31.031C344.039 14.7874 343.479 3.18991 345.585 1.87305"     />
<path d="M263.075 50.0591C265.899 50.2689 270.342 63.564 271.571 72.6814"     />
<path d="M282.571 45.644C285.395 45.8538 289.838 59.1487 291.066 68.2662"     />
<path d="M247.193 53.6558C248.744 53.7711 250.782 57.8322 252.509 62.9802"     />
<path d="M251.083 52.7754C252.633 52.8907 254.672 56.9517 256.398 62.0997"     />
<path d="M254.971 51.8945C256.522 52.0095 258.561 56.0707 260.287 61.2185"     />
<path d="M258.86 51.0137C260.411 51.1288 262.45 55.1898 264.176 60.3379"     />
<path d="M267.253 49.1128C268.804 49.2281 270.843 53.2891 272.569 58.4374"     />
<path d="M271.143 48.2319C272.693 48.3469 274.732 52.4082 276.459 57.5563"     />
<path d="M275.032 47.3511C276.582 47.4662 278.621 51.5272 280.348 56.6757"     />
<path d="M278.921 46.4702C280.472 46.5856 282.51 50.6466 284.237 55.7947"     />
<path d="M165.005 86.8394L166.823 88.0306C167.971 88.7825 170.157 91.5013 171.28 96.4593C172.403 101.417 171.89 105.046 170.89 105.986L169.587 107.211L68.4538 125.14L68.4435 125.103C69.3404 124.451 69.5578 121.982 68.9008 119.224C68.1737 116.17 66.6512 113.917 65.5004 114.191C65.4781 114.196 65.4559 114.203 65.4341 114.21L65.4248 114.177L165.005 86.8394Z"     />
<path d="M64.733 114.191C66.1172 113.917 67.9485 116.17 68.8233 119.223C69.6979 122.277 69.2849 124.975 67.9003 125.249C66.5161 125.522 64.6849 123.269 63.8101 120.216C62.9354 117.162 63.3487 114.465 64.733 114.191Z"     />
<path d="M66.0277 118.589C66.1965 118.548 66.4199 118.879 66.5265 119.327C66.6332 119.775 66.5828 120.171 66.4139 120.211C66.2451 120.251 66.0219 119.921 65.9152 119.473C65.8085 119.025 65.859 118.629 66.0277 118.589Z"     />
<path d="M395.556 124.91L364.921 131.848L362.69 121.148L359.616 108.399L390.246 101.462L392.384 110.903L395.289 110.245L396.269 114.574L393.364 115.232L395.556 124.91ZM358.151 133.382L356.763 133.696L325.329 140.815C324.85 137.439 324.127 133.515 323.145 129.179C322.163 124.843 320.944 120.731 319.794 117.417L351.402 110.259L352.616 109.984L355.497 120.176L358.151 133.382Z"     />
<path d="M356.382 123.483C356.25 122.868 356.136 122.35 355.971 121.619C355.805 120.888 355.589 119.962 355.394 119.155M356.382 123.483L355.249 119.188L355.394 119.155M356.382 123.483L354.532 123.902L323.556 131.042C323.424 130.428 323.31 129.91 323.145 129.179C322.98 128.448 322.759 127.523 322.557 126.717L353.542 119.574L355.394 119.155M396.27 114.575L362.889 122.009C362.732 121.302 362.572 120.582 362.412 119.877C362.252 119.171 362.095 118.487 361.935 117.799V117.673L395.289 110.245L396.27 114.575Z"     />
<path d="M390.02 122.287L368.148 127.24L367.913 126.202L389.785 121.249L390.02 122.287Z"     />
<path d="M387.948 92.2366C391.361 91.4635 396.249 100.198 398.864 111.746C401.479 123.294 400.832 133.283 397.419 134.056C395.301 134.535 392.615 131.353 390.257 126.111L395.556 124.911L393.364 115.232L396.269 114.574L395.289 110.245L392.384 110.903L390.245 101.462L384.912 102.67C384.755 96.828 385.808 92.7212 387.948 92.2366Z"     />
<path d="M397.419 134.056L400.668 133.32C404.081 132.547 404.729 122.559 402.113 111.011C399.498 99.4625 394.61 90.7277 391.197 91.5007L387.947 92.235C389.518 91.8792 391.401 93.5386 393.232 96.558L393.251 96.5904C393.366 96.7805 393.481 96.9761 393.595 97.1767L393.621 97.2211L393.726 97.4077L393.846 97.6257C394.006 97.9178 394.165 98.2199 394.323 98.5314L394.329 98.5439C394.399 98.6819 394.469 98.8217 394.538 98.9633L394.57 99.0273L394.663 99.2197L394.771 99.4465L394.797 99.5012L394.802 99.5122L394.845 99.6043L394.935 99.7978L395.025 99.9921L395.058 100.067C395.115 100.192 395.172 100.318 395.228 100.445L395.287 100.579L395.374 100.78L395.379 100.786L395.493 101.053V101.058L395.56 101.217L395.646 101.423L395.709 101.576L395.718 101.597L395.831 101.873L395.839 101.894L395.911 102.076L395.97 102.222L396.053 102.435L396.164 102.72L396.174 102.749L396.239 102.918L396.334 103.171L396.369 103.263L396.382 103.3L396.49 103.594L396.505 103.635L396.569 103.812L396.693 104.161L396.699 104.176L396.704 104.191L396.844 104.592L396.876 104.686L397.005 105.066L397.018 105.106L397.023 105.112L397.042 105.172L397.163 105.537L397.196 105.641L397.326 106.044L397.335 106.074L397.356 106.14L397.471 106.508L397.499 106.599L397.622 107.004L397.639 107.059L397.661 107.134L397.764 107.483L397.8 107.608L397.924 108.041L397.948 108.124L398.051 108.497L398.083 108.61C398.124 108.759 398.164 108.909 398.204 109.059L398.228 109.147L398.332 109.542L398.351 109.615L398.364 109.665L398.477 110.111L398.494 110.18C398.533 110.338 398.573 110.497 398.611 110.656L398.616 110.671L398.622 110.697C398.658 110.847 398.694 110.998 398.729 111.148L398.755 111.26C398.793 111.421 398.831 111.583 398.867 111.746C398.903 111.906 398.939 112.065 398.974 112.225L399.003 112.356L399.081 112.72L399.111 112.863L399.211 113.343L399.219 113.386L399.302 113.803L399.331 113.947L399.417 114.401L399.43 114.471L399.501 114.856L399.529 115.01L399.605 115.443L399.609 115.469V115.474L399.683 115.915L399.707 116.057L399.768 116.443L399.778 116.505L399.783 116.522C399.807 116.676 399.83 116.828 399.852 116.981L399.865 117.069L399.924 117.479L399.933 117.54C399.955 117.696 399.975 117.85 399.996 118.004L400.006 118.083L400.051 118.431L400.07 118.585L400.12 119.011L400.126 119.058L400.169 119.447L400.181 119.555C400.196 119.7 400.212 119.844 400.225 119.987V119.996L400.264 120.404L400.278 120.568L400.301 120.833L400.314 120.982L400.339 121.308V121.324L400.357 121.572L400.367 121.722L400.381 121.939C400.389 122.062 400.396 122.183 400.402 122.305L400.409 122.435L400.421 122.671L400.431 122.885V122.898L400.444 123.207L400.45 123.399L400.455 123.558L400.46 123.774L400.465 123.946L400.47 124.253V124.458V124.644V124.784C400.47 125.038 400.467 125.287 400.462 125.533V125.597C400.456 125.851 400.447 126.101 400.436 126.347L400.432 126.426C400.42 126.675 400.405 126.919 400.388 127.158L400.383 127.201L400.364 127.439V127.464C400.323 127.964 400.268 128.441 400.202 128.894L400.198 128.915C399.767 131.842 398.829 133.736 397.419 134.056ZM397.419 134.056C397.264 134.09 397.107 134.105 396.947 134.102L396.96 134.16L397.419 134.056ZM387.736 92.2992L387.731 92.2853L387.946 92.2367C387.874 92.2529 387.804 92.2751 387.734 92.2994L387.736 92.2992Z"     />
<path d="M348.848 100.854C349.61 100.682 353.676 109.782 356.313 121.43C358.951 133.078 359.898 142.713 358.478 143.202V143.206L358.441 143.215L206.025 177.97L205.949 177.863C207.235 176.989 206.327 167.536 203.763 156.217C201.2 144.897 197.998 135.939 196.455 135.641L196.437 135.6L348.705 100.923C348.75 100.89 348.085 101.028 348.847 100.855L348.848 100.854Z"     />
<path d="M336.627 143.657L336.156 141.581C336.235 141.927 336.447 142.061 336.793 141.982L329.459 143.643C329.805 143.565 329.939 143.353 329.861 143.007L330.331 145.083C330.253 144.737 330.04 144.603 329.694 144.681L337.028 143.02C336.682 143.099 336.548 143.311 336.627 143.657Z"     />
<path d="M355.77 139.322L355.3 137.246C355.379 137.592 355.591 137.725 355.937 137.647L339.16 141.447C339.506 141.368 339.64 141.156 339.562 140.81L340.032 142.886C339.953 142.54 339.741 142.406 339.395 142.485L356.172 138.685C355.826 138.764 355.692 138.976 355.77 139.322Z"     />
<path d="M346.466 75.0928L343.562 75.7505V75.7551C346.635 75.2627 353.722 95.1948 359.44 120.442C365.158 145.689 367.35 166.73 364.365 167.609V167.614L367.269 166.956C370.317 166.266 368.131 145.142 362.386 119.775C356.641 94.4074 349.513 74.4027 346.464 75.093L346.466 75.0928Z"     />
<path d="M301.171 111.688C302.119 112.122 305.955 120.798 308.547 132.247C311.141 143.697 312.132 153.53 310.712 154.019V154.024L310.674 154.033L206.025 177.971L206.019 177.944C207.305 177.07 206.331 167.557 203.763 156.217C201.204 144.918 197.998 135.94 196.454 135.642L196.437 135.6L300.939 111.741L301.171 111.688Z"     />
<path d="M315.453 108.418C316.327 107.844 320.381 116.985 322.919 128.993C325.456 141.001 326.503 150.276 325.083 150.764V150.769L325.046 150.777L206.231 177.923L206.192 177.751C207.205 176.127 206.205 166.998 203.763 156.216C201.321 145.434 198.29 136.765 196.677 135.736L196.645 135.598L315.31 108.486C315.355 108.453 314.579 108.992 315.452 108.418L315.453 108.418Z"     />
<path d="M310.024 154.24C304.917 148.877 300.583 141.45 298.963 134.264C297.402 127.339 297.495 118.414 300.483 111.904"     />
<path d="M217.534 171.349L217.064 169.273C217.142 169.619 217.354 169.753 217.7 169.675L210.366 171.336C210.712 171.258 210.846 171.045 210.768 170.699L211.238 172.775C211.16 172.429 210.948 172.296 210.602 172.374L217.935 170.713C217.589 170.791 217.456 171.003 217.534 171.349Z"     />
<path d="M270.26 159.408L269.789 157.332C269.868 157.678 270.08 157.812 270.426 157.734L220.779 168.977C221.125 168.899 221.259 168.687 221.181 168.341L221.651 170.417C221.572 170.071 221.36 169.937 221.014 170.015L270.661 158.772C270.315 158.85 270.181 159.062 270.26 159.408Z"     />
<path d="M205.987 178.471C202.817 175.143 199.949 170.829 197.842 166.316M193.836 150.712C193.413 145.345 193.836 139.65 195.856 135.243"     />
<path d="M164.002 159.248L196.212 150.033C199.393 154.922 200.367 160.311 199.837 166.04L166.583 170.644L164.002 159.248Z"     />
<path d="M183.911 148.875C186.322 148.329 189.469 153.149 190.94 159.641C192.41 166.133 191.647 171.839 189.235 172.385C187.752 172.721 185.99 171.026 184.512 168.162L185.662 168.002C186.168 168.694 186.661 169.049 187.081 168.954C188.278 168.683 188.434 164.869 187.43 160.436C186.426 156.002 184.642 152.627 183.445 152.899C183.108 152.975 182.854 153.331 182.684 153.903L181.488 154.245C181.655 151.275 182.501 149.194 183.911 148.875Z"     />
<path d="M184.842 165.438L184.573 163.323C184.618 163.675 184.816 163.823 185.166 163.765L176.072 165.255C176.422 165.197 176.575 164.992 176.53 164.64L176.799 166.755C176.754 166.402 176.557 166.255 176.206 166.312L185.3 164.823C184.95 164.881 184.797 165.086 184.842 165.438Z"     />
<path d="M175.256 167.052L174.923 164.951C174.978 165.301 175.182 165.453 175.533 165.406L169.021 166.279C169.372 166.232 169.52 166.033 169.464 165.683L169.798 167.784C169.742 167.433 169.539 167.282 169.188 167.329L175.7 166.456C175.349 166.503 175.201 166.702 175.256 167.052Z"     />
<path d="M162.041 167.161L161.404 164.348L161.383 164.257L163.405 159.42L164.002 159.248L165.293 164.946L166.583 170.644L165.936 170.768L162.062 167.253L162.041 167.161Z"     />
<path d="M199.705 134.905C202.229 135.092 206.202 146.981 207.301 155.134"     />
<path d="M217.137 130.957C219.662 131.144 223.635 143.033 224.734 151.186"     />
<path d="M234.57 127.008C237.095 127.196 241.068 139.085 242.167 147.237"     />
<path d="M252.003 123.06C254.528 123.248 258.501 135.136 259.6 143.289"     />
<path d="M202.843 134.194C204.229 134.297 206.052 137.928 207.596 142.532"     />
<path d="M206.32 133.406C207.707 133.509 209.53 137.141 211.074 141.744"     />
<path d="M209.798 132.619C211.185 132.722 213.008 136.353 214.552 140.956"     />
<path d="M213.276 131.831C214.662 131.934 216.485 135.565 218.029 140.169"     />
<path d="M220.368 130.225C221.755 130.328 223.578 133.959 225.122 138.563"     />
<path d="M223.846 129.437C225.233 129.54 227.056 133.171 228.6 137.775"     />
<path d="M227.324 128.649C228.71 128.752 230.533 132.384 232.077 136.987"     />
<path d="M230.802 127.862C232.188 127.965 234.011 131.596 235.555 136.2"     />
<path d="M238.306 126.162C239.693 126.265 241.516 129.897 243.06 134.5"     />
<path d="M241.784 125.375C243.171 125.478 244.994 129.109 246.538 133.712"     />
<path d="M245.261 124.587C246.648 124.69 248.471 128.321 250.015 132.925"     />
<path d="M248.739 123.799C250.126 123.902 251.949 127.534 253.493 132.137"     />
<path d="M110.94 177.69L161.916 166.607L161.53 164.903L118.48 174.855L110.94 177.69Z"     />
<path d="M269.514 118.944C272.038 119.132 276.011 131.021 277.11 139.173"     />
<path d="M286.947 114.996C289.472 115.184 293.445 127.072 294.544 135.225"     />
<path d="M255.312 122.161C256.698 122.264 258.521 125.896 260.065 130.499"     />
<path d="M258.789 121.373C260.176 121.476 261.999 125.107 263.543 129.711"     />
<path d="M262.267 120.585C263.654 120.689 265.477 124.32 267.021 128.923"     />
<path d="M265.745 119.798C267.131 119.901 268.954 123.532 270.498 128.136"     />
<path d="M273.25 118.099C274.636 118.202 276.459 121.833 278.003 126.437"     />
<path d="M276.727 117.311C278.114 117.414 279.937 121.045 281.481 125.648"     />
<path d="M280.205 116.523C281.592 116.626 283.415 120.257 284.959 124.861"     />
<path d="M283.683 115.735C285.069 115.838 286.892 119.47 288.436 124.073"     />
<path d="M181.819 151.833L183.445 152.899C184.471 153.571 186.426 156.002 187.43 160.436C188.434 164.869 187.975 168.114 187.081 168.955L185.916 170.05L95.4823 186.082L95.473 186.049C96.275 185.466 96.4692 183.258 95.8818 180.791C95.2316 178.061 93.8702 176.046 92.8411 176.291C92.8212 176.296 92.8013 176.302 92.7818 176.308L92.7739 176.278L181.819 151.833Z"     />
<path d="M92.1554 176.291C92.4497 176.233 92.7778 176.303 93.1209 176.497C93.464 176.692 93.8153 177.007 94.155 177.425C94.4946 177.843 94.8158 178.356 95.1002 178.933C95.3847 179.511 95.6268 180.142 95.8127 180.791C96.0928 181.769 96.2352 182.751 96.2217 183.613C96.2083 184.475 96.0398 185.177 95.7374 185.633C95.435 186.088 95.0124 186.275 94.523 186.17C94.0336 186.066 93.4993 185.674 92.9878 185.045C92.4764 184.415 92.0106 183.577 91.6494 182.635C91.2883 181.693 91.048 180.69 90.9589 179.753C90.8698 178.816 90.9358 177.987 91.1488 177.371C91.3618 176.754 91.7121 176.379 92.1554 176.291Z"     />
<path d="M93.3134 180.224C93.4643 180.188 93.6641 180.483 93.7594 180.884C93.8548 181.284 93.8098 181.638 93.6587 181.674C93.5078 181.71 93.3082 181.415 93.2127 181.014C93.1173 180.614 93.1625 180.26 93.3134 180.224Z"     />
<path d="M384.646 202.501L356.307 204.654L355.727 194.781L354.664 182.962L382.999 180.81L383.662 189.544L386.349 189.339L386.654 193.344L383.966 193.549L384.646 202.501ZM350.044 205.129L348.76 205.227L319.681 207.435C319.7 204.351 319.572 200.742 319.268 196.731C318.963 192.72 318.417 188.878 317.826 185.76L347.066 183.539L348.188 183.454L349.418 192.958L350.044 205.129Z"     />
<path d="M349.772 196.035C349.735 195.467 349.702 194.989 349.65 194.312C349.599 193.636 349.528 192.779 349.46 192.03M349.772 196.035L349.327 192.04L349.46 192.03M349.772 196.035L348.06 196.165L319.389 198.453C319.352 197.886 319.319 197.407 319.268 196.731C319.217 196.055 319.142 195.198 319.068 194.449L347.747 192.16L349.46 192.03M386.654 193.344L355.791 195.577C355.745 194.924 355.696 194.258 355.647 193.606C355.597 192.953 355.547 192.32 355.495 191.683L355.512 191.571L386.35 189.339L386.654 193.344Z"     />
<path d="M380.038 199.42L359.805 200.956L359.732 199.996L379.965 198.459L380.038 199.42Z"     />
<path d="M382.164 172.248C385.321 172.008 388.539 180.474 389.35 191.157C390.162 201.839 388.26 210.694 385.102 210.934C383.142 211.082 381.16 207.878 379.744 202.874L384.646 202.501L383.966 193.548L386.653 193.344L386.349 189.339L383.662 189.543L382.999 180.81L378.064 181.185C378.698 175.935 380.184 172.398 382.164 172.248Z"     />
<path d="M385.17 172.02C388.327 171.78 391.545 180.246 392.356 190.928C393.168 201.611 391.266 210.466 388.108 210.705L385.102 210.934C384.959 210.944 384.816 210.938 384.673 210.913L384.678 210.966L385.103 210.934C386.407 210.835 387.498 209.264 388.271 206.701L388.276 206.682C388.396 206.285 388.507 205.865 388.611 205.423L388.616 205.401L388.665 205.19L388.673 205.153C388.72 204.941 388.766 204.724 388.809 204.503L388.823 204.433C388.866 204.214 388.906 203.992 388.945 203.765L388.955 203.708C388.992 203.489 389.027 203.266 389.061 203.039L389.08 202.913L389.104 202.747L389.129 202.563L389.165 202.287L389.185 202.133L389.209 201.939L389.225 201.796L389.245 201.623L389.275 201.345V201.333L389.294 201.14L389.315 200.928L389.326 200.81C389.336 200.701 389.346 200.591 389.355 200.48L389.371 200.283L389.382 200.148L389.399 199.924V199.91L389.419 199.614L389.428 199.479L389.443 199.239L389.451 199.09L389.471 198.72L389.471 198.712C389.478 198.582 389.483 198.451 389.488 198.319L389.493 198.221L389.506 197.867V197.824L389.517 197.437L389.522 197.296L389.528 196.979V196.907C389.528 196.766 389.533 196.625 389.533 196.483L389.534 196.427V196.052V195.972C389.534 195.832 389.533 195.693 389.534 195.552L389.534 195.536V195.479L389.529 195.126V194.996L389.521 194.591L389.521 194.586V194.562L389.51 194.165L389.506 194.023L389.494 193.67L389.489 193.604L389.472 193.187L389.465 193.054L389.446 192.67V192.631L389.421 192.188L389.413 192.056L389.391 191.72L389.383 191.599C389.373 191.451 389.362 191.304 389.351 191.156C389.339 191.005 389.328 190.855 389.315 190.706L389.306 190.603C389.295 190.463 389.283 190.323 389.27 190.185V190.161V190.147C389.257 189.999 389.243 189.852 389.228 189.705L389.222 189.641L389.179 189.227L389.175 189.18L389.167 189.113L389.127 188.746L389.118 188.664C389.102 188.524 389.086 188.384 389.069 188.245L389.056 188.14L389.012 187.792L389.003 187.716L388.949 187.311L388.933 187.194L388.887 186.869L388.877 186.799L388.87 186.747L388.813 186.369L388.8 186.283L388.746 185.939L388.737 185.877L388.732 185.849L388.67 185.471L388.653 185.374L388.594 185.031L388.584 184.975V184.969L388.578 184.931L388.513 184.574L388.497 184.486L388.425 184.108L388.42 184.094L388.415 184.08L388.35 183.751L388.317 183.584L388.309 183.546L388.251 183.268L388.244 183.234L388.225 183.147L388.173 182.908L388.138 182.748L388.132 182.721L388.071 182.451L388.024 182.249L387.991 182.11L387.95 181.938L387.946 181.918L387.882 181.656L387.877 181.636L387.84 181.491L387.79 181.295L387.751 181.144V181.14L387.684 180.886V180.879L387.632 180.688L387.598 180.56C387.564 180.439 387.53 180.319 387.496 180.2L387.476 180.128L387.422 179.942L387.367 179.757L387.34 179.669L387.336 179.658L387.32 179.606L387.253 179.389L387.195 179.204L387.176 179.142C387.132 179.007 387.088 178.872 387.044 178.739L387.039 178.727C386.939 178.428 386.837 178.136 386.733 177.854L386.654 177.642L386.584 177.462L386.568 177.419C386.492 177.224 386.415 177.034 386.338 176.848L386.324 176.816C385.086 173.871 383.62 172.137 382.167 172.247L385.17 172.02ZM381.966 172.276V172.263L382.165 172.248C382.098 172.253 382.032 172.264 381.967 172.276L381.966 172.276Z"     />
<path d="M346.026 174.783C346.73 174.73 349.164 183.413 349.983 194.188C350.801 204.963 350.373 213.713 349.036 213.962V213.967L349.002 213.971L207.976 224.892L207.922 224.786C209.189 224.174 209.628 215.593 208.833 205.122C208.038 194.651 206.359 186.209 205.017 185.737L205.007 185.698L345.89 174.828C345.934 174.805 345.321 174.84 346.026 174.786V174.783Z"     />
<path d="M329.418 211.476L329.272 209.555C329.296 209.875 329.468 210.023 329.788 209.999L323.004 210.514C323.324 210.49 323.472 210.318 323.448 209.998L323.594 211.918C323.569 211.598 323.397 211.45 323.077 211.474L329.861 210.959C329.541 210.983 329.393 211.156 329.418 211.476Z"     />
<path d="M347.127 210.13L346.981 208.21C347.005 208.53 347.177 208.678 347.497 208.654L331.978 209.832C332.298 209.808 332.446 209.636 332.422 209.316L332.567 211.236C332.543 210.916 332.371 210.768 332.051 210.793L347.57 209.614C347.25 209.638 347.102 209.81 347.127 210.13Z"     />
<path d="M347.306 151.409L344.62 151.613L344.62 151.618C347.435 151.584 351.139 170.363 352.912 193.718C354.686 217.074 353.862 236.197 351.074 236.588L351.074 236.593L353.76 236.389C356.58 236.175 357.421 216.978 355.639 193.512C353.856 170.045 350.126 151.196 347.306 151.41V151.409Z"     />
<path d="M301.917 178.165C302.707 178.679 304.991 186.952 305.796 197.544C306.6 208.136 306.186 217.069 304.849 217.318L304.85 217.323L304.815 217.327L207.976 224.892V224.868C209.243 224.255 209.631 215.612 208.834 205.122C208.04 194.67 206.36 186.208 205.018 185.737L205.008 185.698L301.704 178.184L301.917 178.165Z"     />
<path d="M315.133 177.129C315.991 176.732 318.409 185.45 319.09 196.534C319.771 207.618 319.48 216.059 318.144 216.308L318.144 216.313L318.109 216.317L208.167 224.878L208.155 224.719C209.276 223.399 209.59 215.095 208.833 205.121C208.075 195.147 206.511 186.987 205.203 185.852L205.193 185.724L314.997 177.174C315.042 177.15 314.275 177.53 315.133 177.132L315.133 177.129Z"     />
<path d="M304.205 217.424C300.344 211.948 297.448 204.726 296.95 198.08C296.47 191.675 297.735 183.699 301.272 178.267"     />
<path d="M219.153 220.488L219.007 218.568C219.032 218.888 219.204 219.036 219.524 219.011L212.74 219.527C213.06 219.502 213.208 219.33 213.183 219.01L213.329 220.931C213.305 220.611 213.133 220.463 212.813 220.487L219.597 219.972C219.277 219.996 219.129 220.168 219.153 220.488Z"     />
<path d="M267.928 216.784L267.782 214.863C267.806 215.183 267.979 215.331 268.299 215.307L222.372 218.795C222.692 218.771 222.84 218.598 222.816 218.279L222.962 220.199C222.937 219.879 222.765 219.731 222.445 219.755L268.371 216.267C268.051 216.292 267.904 216.464 267.928 216.784Z"     />
<path d="M207.875 225.334C205.479 221.935 203.483 217.693 202.194 213.375M200.675 198.878C201.008 194.018 202.139 188.976 204.533 185.299"     />
<path d="M172.842 202.566L202.892 198.584C205.092 203.381 205.25 208.334 204.017 213.392L173.643 213.108L172.842 202.566Z"     />
<path d="M192.035 195.918C194.266 195.749 196.444 200.48 196.901 206.486C197.357 212.491 195.918 217.497 193.687 217.667C192.315 217.771 190.963 216.021 190.019 213.261L191.069 213.271C191.43 213.957 191.825 214.341 192.213 214.311C193.321 214.227 193.966 210.834 193.654 206.732C193.343 202.631 192.193 199.374 191.085 199.458C190.774 199.482 190.499 199.767 190.272 200.256L189.156 200.404C189.699 197.768 190.731 196.018 192.035 195.918Z"     />
<path d="M190.675 210.867L190.714 208.938C190.708 209.259 190.865 209.418 191.186 209.413L182.849 209.541C183.17 209.536 183.334 209.373 183.341 209.052L183.302 210.981C183.308 210.659 183.151 210.501 182.83 210.506L191.167 210.377C190.845 210.382 190.681 210.545 190.675 210.867Z"     />
<path d="M181.881 211.042L181.86 209.117C181.864 209.438 182.026 209.601 182.347 209.605L176.402 209.524C176.723 209.528 176.881 209.37 176.878 209.049L176.899 210.974C176.895 210.653 176.733 210.49 176.413 210.486L182.357 210.567C182.037 210.563 181.878 210.721 181.881 211.042Z"     />
<path d="M170.038 209.39L169.841 206.787L169.834 206.703L172.285 202.642L172.842 202.566L173.242 207.838L173.643 213.109L173.047 213.134L170.045 209.474L170.038 209.39Z"     />
<path d="M122.904 212.044L169.999 208.876L169.88 207.3L130.029 210.506L122.904 212.044Z"     />
<path d="M353.723 208.709C353.729 208.908 353.735 209.107 353.741 209.304M351.074 236.588C351.06 236.588 351.047 236.594 351.034 236.596C349.075 236.744 346.678 227.695 344.798 214.291L348.662 213.998L348.696 213.993L348.696 213.989C350.032 213.739 350.458 204.944 349.643 194.215C348.821 183.394 347.049 174.706 345.686 174.81C345.639 174.814 345.594 174.828 345.55 174.851L341.791 175.137C341.591 161.314 342.595 151.764 344.58 151.613M344.579 151.616C344.593 151.616 344.608 151.616 344.622 151.616H344.579Z"     />
<path d="M209.965 185.64C211.834 190.183 213.21 199.759 213.119 206.711"     />
<path d="M229.874 184.029C231.763 188.532 233.159 198.195 233.068 205.195"     />
<path d="M249.784 182.419C251.693 186.881 253.108 196.631 253.017 203.68"     />
<path d="M269.69 180.809C271.621 185.225 273.058 195.064 272.965 202.165"     />
<path d="M213.549 185.35C214.305 187.18 214.98 189.834 215.511 192.806"     />
<path d="M217.521 185.028C218.28 186.86 218.957 189.521 219.49 192.504"     />
<path d="M221.492 184.708C222.254 186.539 222.935 189.209 223.469 192.202"     />
<path d="M225.464 184.386C226.229 186.218 226.913 188.897 227.449 191.9"     />
<path d="M233.564 183.731C234.336 185.564 235.026 188.259 235.566 191.283"     />
<path d="M237.536 183.41C238.31 185.243 239.003 187.946 239.545 190.98"     />
<path d="M241.507 183.089C242.286 184.923 242.981 187.633 243.525 190.678"     />
<path d="M245.479 182.768C246.261 184.602 246.959 187.321 247.504 190.376"     />
<path d="M254.049 182.074C254.838 183.909 255.542 186.645 256.092 189.724"     />
<path d="M258.021 181.753C258.813 183.587 259.52 186.333 260.072 189.421"     />
<path d="M261.992 181.432C262.788 183.267 263.498 186.02 264.052 189.12"     />
<path d="M265.964 181.11C266.762 182.945 267.476 185.706 268.031 188.816"     />
<path d="M289.78 179.185C291.696 183.631 293.119 193.411 293.027 200.477"     />
<path d="M273.562 180.496C274.339 182.33 275.033 185.038 275.576 188.079"     />
<path d="M277.534 180.175C278.314 182.009 279.011 184.725 279.556 187.777"     />
<path d="M281.504 179.854C282.288 181.688 282.988 184.412 283.536 187.475"     />
<path d="M285.476 179.533C286.263 181.367 286.967 184.1 287.515 187.173"     />
<path d="M189.771 198.29L191.085 199.458C191.915 200.196 193.343 202.631 193.654 206.732C193.966 210.833 193.125 213.677 192.213 214.311L191.026 215.137L107.958 217.509L107.953 217.478C108.748 217.062 109.215 215.112 109.016 212.826C108.795 210.296 107.844 208.312 106.89 208.395C106.872 208.395 106.853 208.4 106.835 208.403L106.83 208.375L189.771 198.29Z"     />
<path d="M106.277 208.305C106.548 208.292 106.832 208.398 107.114 208.618C107.395 208.837 107.668 209.166 107.916 209.585C108.165 210.004 108.385 210.505 108.563 211.06C108.741 211.614 108.874 212.212 108.954 212.817C109.075 213.73 109.073 214.627 108.947 215.397C108.82 216.166 108.576 216.773 108.245 217.141C107.915 217.508 107.511 217.62 107.087 217.461C106.663 217.303 106.237 216.881 105.862 216.25C105.488 215.619 105.182 214.807 104.984 213.916C104.785 213.025 104.703 212.095 104.747 211.245C104.792 210.395 104.961 209.661 105.233 209.138C105.505 208.615 105.868 208.325 106.277 208.305Z"     />
<path d="M106.792 211.978C106.932 211.966 107.072 212.257 107.104 212.628C107.136 212.999 107.049 213.31 106.909 213.322C106.769 213.334 106.63 213.043 106.597 212.672C106.565 212.301 106.652 211.99 106.792 211.978Z"     />
<path d="M353.764 276.393L330.29 275.224L330.837 267.064L331.189 257.257L354.658 258.426L354.298 265.66L356.524 265.771L356.359 269.088L354.133 268.977L353.764 276.393ZM325.103 274.966L324.04 274.913L299.953 273.714C300.288 271.185 300.557 268.211 300.722 264.889C300.888 261.566 300.838 258.358 300.676 255.738L324.895 256.944L325.825 256.99L325.849 264.915L325.103 274.966Z"     />
<path d="M325.821 267.476C325.85 267.007 325.872 266.611 325.9 266.051C325.928 265.49 325.958 264.78 325.98 264.159M325.821 267.476L325.869 264.153L325.98 264.159M325.821 267.476L324.403 267.406L300.644 266.315C300.672 265.845 300.694 265.449 300.722 264.889C300.751 264.329 300.778 263.618 300.795 262.997L324.561 264.088L325.98 264.159M356.359 269.088L330.807 267.725C330.837 267.183 330.866 266.633 330.893 266.092C330.919 265.551 330.944 265.027 330.967 264.499L330.993 264.408L356.524 265.771L356.359 269.088Z"     />
<path d="M350.302 273.388L333.543 272.553L333.582 271.758L350.342 272.592L350.302 273.388Z"     />
<path d="M354.86 251.315C357.476 251.445 359.239 258.724 358.798 267.573C358.358 276.421 355.88 283.489 353.265 283.359C351.642 283.278 350.347 280.444 349.703 276.191L353.764 276.393L354.133 268.977L356.359 269.088L356.524 265.771L354.298 265.66L354.658 258.426L350.571 258.223C351.635 253.981 353.22 251.234 354.86 251.315Z"     />
<path d="M357.35 251.439C359.965 251.569 361.729 258.848 361.288 267.697C360.847 276.545 358.37 283.613 355.754 283.482L353.265 283.358C353.146 283.352 353.03 283.332 352.915 283.297V283.341L353.267 283.359C354.348 283.412 355.405 282.236 356.304 280.214L356.311 280.199C356.45 279.886 356.585 279.553 356.716 279.201L356.722 279.183L356.784 279.015L356.794 278.985C356.855 278.816 356.915 278.643 356.974 278.466L356.992 278.41C357.05 278.235 357.106 278.057 357.161 277.875L357.175 277.829C357.228 277.653 357.281 277.474 357.332 277.291L357.36 277.19L357.397 277.056L357.437 276.908L357.496 276.685L357.528 276.561L357.567 276.404L357.596 276.289L357.63 276.149L357.683 275.924V275.914L357.719 275.758L357.758 275.586L357.78 275.491C357.799 275.402 357.819 275.313 357.838 275.223L357.871 275.063L357.894 274.953L357.931 274.771L357.936 274.759L357.983 274.519L358.004 274.409L358.041 274.214L358.063 274.093L358.118 273.791V273.785C358.136 273.679 358.155 273.572 358.173 273.464L358.186 273.384L358.233 273.095L358.239 273.06L358.288 272.743L358.305 272.628L358.343 272.368L358.351 272.309C358.367 272.194 358.384 272.079 358.399 271.962L358.405 271.916L358.445 271.609L358.453 271.543C358.468 271.428 358.482 271.314 358.495 271.198V271.185L358.501 271.139L358.534 270.848L358.546 270.741L358.582 270.409L358.582 270.404V270.384L358.615 270.057L358.626 269.94L358.652 269.649L358.657 269.595L358.685 269.251L358.694 269.141L358.718 268.824V268.791L358.743 268.426L358.75 268.316L358.767 268.038L358.773 267.938C358.78 267.816 358.786 267.694 358.792 267.571C358.798 267.447 358.804 267.322 358.81 267.198L358.814 267.113C358.819 266.997 358.824 266.881 358.828 266.766V266.747L358.828 266.735C358.833 266.612 358.836 266.49 358.839 266.368V266.315L358.848 265.971V265.932V265.876L358.852 265.571V265.502C358.852 265.386 358.857 265.27 358.857 265.154L358.857 265.066L358.857 264.777L358.857 264.713V264.375V264.278L358.852 264.006V263.947V263.904L358.845 263.588V263.516L358.837 263.228V263.177V263.153L358.825 262.836L358.82 262.755L358.807 262.467V262.42L358.806 262.415V262.383L358.79 262.083L358.785 262.01L358.765 261.692V261.68V261.669L358.746 261.392L358.735 261.252L358.731 261.22L358.712 260.986L358.707 260.957L358.701 260.883L358.683 260.682L358.671 260.547V260.524L358.649 260.296L358.631 260.126L358.618 260.009L358.603 259.864V259.846L358.577 259.625V259.608L358.562 259.485L358.542 259.319L358.526 259.191L358.525 259.186L358.497 258.971V258.966L358.474 258.803L358.459 258.695C358.444 258.592 358.429 258.49 358.413 258.388L358.404 258.327L358.379 258.17L358.352 258.012L358.34 257.937V257.928L358.332 257.884L358.3 257.698L358.271 257.541L358.262 257.489C358.24 257.373 358.218 257.258 358.195 257.144V257.134C358.144 256.878 358.091 256.628 358.034 256.385L357.992 256.204L357.954 256.048L357.944 256.011C357.903 255.844 357.859 255.68 357.815 255.52L357.807 255.492C357.096 252.947 356.073 251.373 354.869 251.313L357.35 251.439ZM354.695 251.318V251.307L354.859 251.315C354.804 251.311 354.749 251.315 354.694 251.32L354.695 251.318Z"     />
<path d="M324.948 249.653C325.532 249.682 326.629 257.059 326.185 265.983C325.74 274.908 324.483 282.042 323.361 282.109L323.36 282.113H323.332L206.498 276.47L206.465 276.377C207.567 276.006 208.816 269.011 209.248 260.338C209.68 251.665 209.177 244.565 208.124 244.039L208.12 244.006L324.831 249.676C324.87 249.662 324.363 249.627 324.947 249.656L324.948 249.653Z"     />
<path d="M307.522 278.037L307.602 276.446C307.588 276.711 307.714 276.851 307.98 276.864L302.36 276.584C302.625 276.597 302.764 276.471 302.778 276.206L302.698 277.797C302.712 277.532 302.586 277.393 302.321 277.379L307.94 277.659C307.675 277.646 307.536 277.772 307.522 278.037Z"     />
<path d="M322.191 278.767L322.27 277.176C322.257 277.442 322.383 277.581 322.648 277.594L309.793 276.954C310.058 276.967 310.198 276.841 310.211 276.576L310.132 278.167C310.145 277.902 310.019 277.763 309.754 277.749L322.609 278.389C322.343 278.376 322.204 278.502 322.191 278.767Z"     />
<path d="M328.419 230.608L326.194 230.498L326.194 230.502C328.507 230.766 329.601 246.557 328.638 265.902C327.675 285.247 325.018 300.851 322.69 300.884L322.69 300.888L324.915 300.999C327.25 301.115 329.928 285.453 330.896 266.015C331.864 246.578 330.755 230.727 328.419 230.611V230.608Z"     />
<path d="M288.409 247.859C289.005 248.363 290.022 255.388 289.585 264.161C289.148 272.934 287.883 280.22 286.761 280.286V280.291H286.732L206.498 276.47V276.449C207.601 276.078 208.815 269.027 209.247 260.338C209.678 251.68 209.176 244.564 208.123 244.039L208.119 244.005L288.23 247.854L288.409 247.859Z"     />
<path d="M299.36 248.379C300.105 248.142 301.186 255.545 300.597 264.709C300.008 273.874 298.895 280.769 297.773 280.835L297.773 280.839H297.744L206.656 276.478L206.663 276.346C207.72 275.38 208.837 268.599 209.249 260.338C209.66 252.077 209.221 245.219 208.266 244.152L208.271 244.046L299.244 248.402C299.283 248.387 298.615 248.619 299.36 248.382V248.379Z"     />
<path d="M286.221 280.307C283.62 275.414 281.992 269.189 282.272 263.684C282.541 258.38 284.406 251.967 287.869 247.877"     />
<path d="M216.124 274.014L216.203 272.423C216.19 272.688 216.316 272.827 216.581 272.84L210.962 272.56C211.227 272.574 211.366 272.448 211.379 272.183L211.3 273.773C211.313 273.508 211.187 273.369 210.922 273.356L216.542 273.636C216.276 273.622 216.137 273.748 216.124 274.014Z"     />
<path d="M256.524 276.025L256.603 274.434C256.59 274.699 256.716 274.838 256.981 274.851L218.94 272.958C219.205 272.971 219.345 272.845 219.358 272.58L219.279 274.17C219.292 273.905 219.166 273.766 218.901 273.753L256.942 275.647C256.677 275.633 256.537 275.759 256.524 276.025Z"     />
<path d="M206.369 276.82C204.755 273.784 203.557 270.097 202.947 266.421M203.202 254.37C203.978 250.416 205.428 246.397 207.773 243.628"     />
<path d="M179.985 254.514L205.051 254.358C206.36 258.522 205.976 262.602 204.441 266.624L179.55 263.246L179.985 254.514Z"     />
<path d="M196.419 251.047C198.267 251.139 199.565 255.246 199.317 260.221C199.069 265.195 197.37 269.153 195.523 269.061C194.386 269.005 193.458 267.429 192.969 265.067L193.83 265.184C194.055 265.784 194.339 266.14 194.661 266.156C195.578 266.201 196.459 263.484 196.628 260.087C196.797 256.69 196.191 253.899 195.274 253.853C195.016 253.84 194.761 254.046 194.524 254.424L193.593 254.429C194.311 252.323 195.34 250.993 196.419 251.047Z"     />
<path d="M193.756 263.171L193.988 261.592C193.949 261.855 194.062 262.002 194.326 262.031L187.473 261.273C187.737 261.302 187.888 261.185 187.927 260.922L187.695 262.5C187.733 262.237 187.621 262.091 187.356 262.062L194.21 262.82C193.946 262.791 193.794 262.908 193.756 263.171Z"     />
<path d="M186.523 262.404L186.706 260.823C186.676 261.086 186.792 261.236 187.054 261.273L182.185 260.591C182.448 260.628 182.594 260.514 182.625 260.251L182.443 261.832C182.473 261.568 182.357 261.418 182.094 261.382L186.963 262.064C186.7 262.027 186.554 262.14 186.523 262.404Z"     />
<path d="M176.978 259.821L177.085 257.666L177.09 257.596L179.521 254.518L179.986 254.513L179.768 258.879L179.551 263.245L179.059 263.204L176.975 259.891L176.978 259.821Z"     />
<path d="M138.033 257.119L176.999 259.397L177.064 258.091L144.037 256.595L138.033 257.119Z"     />
<path d="M327.75 278.284C327.735 278.448 327.719 278.612 327.704 278.774M322.69 300.883C322.679 300.883 322.668 300.888 322.657 300.883C321.034 300.802 320.004 293.129 319.85 281.938L323.05 282.097H323.079L323.079 282.093C324.202 282.026 325.461 274.854 325.903 265.967C326.35 257.004 325.796 249.693 324.666 249.637C324.628 249.637 324.589 249.642 324.55 249.657L321.437 249.502C322.704 238.141 324.517 230.41 326.161 230.491M326.161 230.496C326.172 230.496 326.184 230.501 326.195 230.502L326.161 230.496Z"     />
<path d="M212.481 244.214C213.648 249.387 213.757 258.857 212.804 265.695"     />
<path d="M233.346 245.228C234.518 250.395 234.629 259.885 233.674 266.733"     />
<path d="M254.211 246.242C255.389 251.403 255.502 260.912 254.545 267.772"     />
<path d="M275.075 247.255C276.258 252.411 276.373 261.94 275.415 268.811"     />
<path d="M216.236 244.396C216.671 246.321 216.959 248.84 217.1 251.598"     />
<path d="M220.399 244.599C220.834 246.523 221.122 249.045 221.264 251.805"     />
<path d="M224.562 244.801C224.997 246.726 225.286 249.25 225.427 252.012"     />
<path d="M228.724 245.003C229.16 246.929 229.449 249.455 229.591 252.22"     />
<path d="M237.212 245.416C237.65 247.343 237.94 249.872 238.082 252.642"     />
<path d="M241.375 245.618C241.813 247.546 242.104 250.077 242.246 252.85"     />
<path d="M245.537 245.82C245.976 247.748 246.267 250.282 246.409 253.056"     />
<path d="M249.699 246.022C250.139 247.952 250.43 250.487 250.572 253.264"     />
<path d="M258.682 246.459C259.123 248.39 259.415 250.929 259.557 253.712"     />
<path d="M262.845 246.661C263.286 248.592 263.579 251.134 263.721 253.919"     />
<path d="M267.007 246.863C267.449 248.795 267.742 251.339 267.884 254.127"     />
<path d="M271.169 247.066C271.612 248.998 271.905 251.544 272.048 254.334"     />
<path d="M194.317 252.758L195.274 253.853C195.878 254.544 196.798 256.69 196.628 260.087C196.459 263.484 195.475 265.73 194.662 266.156L193.602 266.71L125.204 260.055L125.204 260.029C125.899 259.77 126.484 258.219 126.557 256.323C126.638 254.224 126.063 252.498 125.272 252.467C125.257 252.467 125.242 252.467 125.226 252.468V252.444L194.317 252.758Z"     />
<path d="M124.777 252.329C125.229 252.364 125.666 252.803 125.99 253.549C126.314 254.296 126.5 255.288 126.507 256.309C126.512 257.07 126.417 257.806 126.233 258.425C126.05 259.043 125.787 259.516 125.478 259.783C125.168 260.05 124.826 260.1 124.494 259.926C124.163 259.752 123.857 259.362 123.615 258.805C123.373 258.249 123.206 257.55 123.135 256.799C123.065 256.047 123.094 255.276 123.218 254.583C123.343 253.89 123.557 253.306 123.835 252.905C124.112 252.504 124.44 252.303 124.777 252.329Z"     />
<path d="M124.82 255.396C124.936 255.401 125.02 255.654 125.008 255.962C124.996 256.269 124.893 256.515 124.777 256.511C124.661 256.506 124.576 256.253 124.588 255.945C124.6 255.637 124.704 255.392 124.82 255.396Z"     />
<path d="M20.2532 111.686L25.85 125.479L21.0176 127.344L15.2915 129.76L9.69568 115.97L13.9463 114.245L13.4156 112.937L15.3648 112.146L15.8957 113.454L20.2532 111.686ZM27.0869 128.527L27.3404 129.152L38.1152 155.511C36.5735 155.994 34.7936 156.634 32.8415 157.426C30.8892 158.218 29.0598 159.104 27.5987 159.896L16.7919 133.458L16.5704 132.912L21.1152 130.782L27.0869 128.527Z"     />
<path d="M22.5936 130.114C22.316 130.223 22.0828 130.316 21.7537 130.45C21.4244 130.583 21.0081 130.756 20.6457 130.909M22.5936 130.114L20.6722 130.974L20.6457 130.909M22.5936 130.114L22.9317 130.947L33.6813 157.09C33.404 157.199 33.1706 157.292 32.8415 157.426C32.5123 157.559 32.0968 157.733 31.7354 157.89L20.984 131.743L20.6457 130.909M15.3649 112.146L21.4048 127.185C21.0859 127.312 20.7618 127.443 20.4441 127.571C20.1265 127.7 19.8189 127.826 19.5092 127.954L19.4507 127.964L13.4156 112.937L15.3649 112.146Z"     />
<path d="M19.4515 114.476L23.4475 124.324L22.9801 124.514L18.9841 114.666L19.4515 114.476Z"     />
<path d="M5.55816 117.753C4.93455 116.216 8.64394 113.259 13.8434 111.15C19.0428 109.04 23.7634 108.576 24.387 110.112C24.774 111.066 23.4921 112.566 21.2215 114.072L20.2534 111.686L15.8959 113.454L15.3652 112.146L13.4159 112.937L13.9467 114.245L9.69589 115.97L10.6702 118.371C7.9504 118.893 5.94913 118.716 5.55816 117.753Z"     />
<path d="M24.3869 110.112L23.7932 108.649C23.1696 107.112 18.449 107.577 13.2496 109.686C8.0502 111.796 4.34076 114.752 4.96442 116.289L5.55668 117.75C5.26965 117.043 5.90094 116.035 7.17239 114.947L7.1863 114.935C7.26638 114.867 7.34903 114.798 7.43407 114.729L7.45308 114.714L7.53216 114.651L7.62493 114.578C7.74926 114.481 7.87835 114.383 8.01186 114.285L8.0174 114.28C8.07658 114.237 8.13662 114.194 8.19751 114.15L8.22478 114.131L8.3076 114.073L8.40535 114.005L8.42899 113.988L8.43363 113.984L8.47345 113.956L8.55706 113.9L8.64101 113.843L8.67348 113.821C8.72751 113.785 8.78215 113.749 8.8373 113.713L8.89534 113.675L8.98234 113.619H8.98698L9.10306 113.545L9.17218 113.501L9.2619 113.445L9.32854 113.404L9.33781 113.398L9.4583 113.324L9.46758 113.319L9.54678 113.271L9.6107 113.233L9.70381 113.177L9.82894 113.104L9.84138 113.097L9.91572 113.054L10.0265 112.99L10.0673 112.967L10.0835 112.957L10.2127 112.884L10.2308 112.874L10.3086 112.831L10.4624 112.746L10.469 112.741L10.4754 112.737L10.6525 112.641L10.6936 112.618L10.8615 112.529L10.8791 112.52H10.8837L10.9102 112.506L11.0716 112.421L11.1176 112.398L11.296 112.306L11.3094 112.299L11.3386 112.285L11.5017 112.203L11.5424 112.182L11.7224 112.094L11.7469 112.082L11.7803 112.065L11.9355 111.99L11.9912 111.964L12.1843 111.873L12.221 111.855L12.3874 111.778L12.4379 111.755C12.5044 111.724 12.5715 111.694 12.6387 111.663L12.6781 111.646L12.8549 111.567L12.8874 111.553L12.9095 111.543L13.1094 111.456L13.1404 111.442C13.2113 111.412 13.2826 111.381 13.3542 111.351L13.3612 111.346L13.3727 111.342C13.44 111.313 13.5078 111.285 13.5756 111.257L13.6256 111.236C13.6981 111.206 13.771 111.176 13.8443 111.146C13.9164 111.117 13.9883 111.088 14.0601 111.059L14.1192 111.036L14.2833 110.971L14.3482 110.946L14.5649 110.863L14.5844 110.855L14.7728 110.784L14.8382 110.76L15.0435 110.685L15.0755 110.673L15.2499 110.611L15.3198 110.586L15.5164 110.517L15.5285 110.512L15.7291 110.444L15.7938 110.422L15.9694 110.363L15.9977 110.354L16.0055 110.349C16.0753 110.327 16.145 110.304 16.2145 110.282L16.2549 110.269L16.4418 110.21L16.47 110.201C16.541 110.179 16.6116 110.157 16.6821 110.136L16.7183 110.125L16.8777 110.078L16.9482 110.057L17.1433 110L17.165 109.994L17.3436 109.944L17.3933 109.93C17.4598 109.912 17.5261 109.894 17.592 109.876H17.5967L17.7847 109.827L17.86 109.807L17.9825 109.776L18.051 109.759L18.2017 109.722H18.2092L18.3238 109.695L18.3929 109.679L18.4936 109.655C18.5504 109.642 18.6067 109.63 18.6629 109.617L18.7235 109.604L18.8327 109.58L18.932 109.56H18.938L19.0817 109.53L19.1709 109.512L19.2449 109.498L19.3456 109.478L19.4255 109.464L19.5691 109.438L19.6648 109.421L19.7514 109.406L19.8171 109.395C19.9357 109.376 20.0525 109.358 20.1678 109.342L20.1979 109.337C20.3172 109.32 20.4348 109.305 20.5504 109.291L20.5875 109.287C20.7049 109.273 20.8201 109.261 20.9334 109.251H20.9533L21.0661 109.241H21.0782C21.3154 109.223 21.5427 109.212 21.7596 109.207L21.7698 109.207C23.1716 109.184 24.1292 109.477 24.3869 110.112ZM24.3869 110.112C24.4151 110.182 24.434 110.254 24.4448 110.329L24.4708 110.319L24.3869 110.112ZM5.60364 117.847L5.59719 117.851L5.55782 117.754C5.57079 117.787 5.5865 117.818 5.60318 117.849L5.60364 117.847Z"     />
<path d="M12.5906 135.375C12.4515 135.032 16.3948 132.432 21.6391 130.304C26.8835 128.176 31.3164 126.993 31.6541 127.62L31.661 127.637L69.2717 218.898L69.2272 218.942C68.7196 218.408 64.3691 219.559 59.2726 221.626C54.176 223.694 50.2328 225.879 50.2119 226.624L50.1938 226.635L12.6313 135.437C12.6128 135.418 12.7279 135.719 12.5887 135.376L12.5906 135.375Z"     />
<path d="M33.5451 137.803L32.6104 138.183C32.7661 138.119 32.8124 138.01 32.7492 137.854L34.0889 141.156C34.0257 141 33.9163 140.954 33.7605 141.017L34.6952 140.638C34.5395 140.701 34.4932 140.811 34.5564 140.966L33.2165 137.665C33.2797 137.82 33.3893 137.867 33.5451 137.803Z"     />
<path d="M30.0473 129.184L29.1125 129.564C29.2683 129.5 29.3146 129.391 29.2514 129.235L32.3165 136.789C32.2532 136.633 32.1437 136.587 31.9879 136.65L32.9226 136.271C32.7668 136.334 32.7206 136.443 32.7838 136.599L29.7188 129.045C29.7821 129.201 29.8915 129.248 30.0473 129.184Z"     />
<path d="M0.726356 138.467L1.25697 139.775C0.790778 138.376 9.56736 133.531 20.9348 128.918C32.3021 124.306 41.9731 121.665 42.6135 122.993L42.083 121.686C41.5261 120.313 31.8157 122.958 20.3943 127.592C8.97288 132.227 0.165408 137.096 0.722283 138.469L0.726356 138.467Z"     />
<path d="M26.043 167.969C26.1734 167.493 29.9359 165.033 35.0912 162.941C40.2463 160.849 44.7684 159.63 45.1063 160.257L45.1132 160.274L69.3492 218.867L69.3372 218.872C68.8295 218.338 64.4466 219.528 59.3501 221.596C54.2536 223.664 50.3104 225.848 50.2894 226.593L50.2713 226.605L26.0835 168.074L26.043 167.969Z"     />
<path d="M23.8199 162.619C23.4848 162.255 27.4479 159.656 32.8682 157.548C38.2887 155.439 42.5456 154.237 42.8833 154.864L42.8903 154.881L69.3491 218.867L69.2717 218.899C68.4343 218.55 64.242 219.718 59.3876 221.688C54.5333 223.658 50.7118 225.741 50.3544 226.575L50.292 226.6L23.8609 162.68C23.8419 162.662 24.1535 162.984 23.8184 162.619L23.8199 162.619Z"     />
<path d="M45.5306 161.143C43.4153 163.943 40.2749 166.54 37.0387 167.85C33.9203 169.111 29.7396 169.753 26.4657 168.856"     />
<path d="M60.5794 203.271L65.9555 216.71C66.007 216.838 65.9146 216.94 65.8166 217.038C65.7188 217.136 65.5395 217.028 65.4881 216.899L60.1121 203.46C60.0606 203.331 60.112 203.132 60.2508 203.132C60.3896 203.132 60.528 203.142 60.5794 203.271Z"     />
<path d="M45.8681 167.958L58.1967 198.35C58.2489 198.479 58.1965 198.678 58.0579 198.678C57.9194 198.678 57.7813 198.668 57.7294 198.54L45.4005 168.148C45.3485 168.019 45.4007 167.819 45.5394 167.819C45.678 167.819 45.8159 167.83 45.8681 167.958Z"     />
<path d="M69.351 218.866C68.0382 220.604 66.2407 222.277 64.2923 223.609M57.3032 226.68C54.8254 227.29 52.1299 227.53 49.9138 226.923"     />
<path d="M63.585 239.976L56.8025 225.621C58.8444 223.758 61.2897 222.889 64.0096 222.697L68.7162 237.894L63.585 239.976Z"     />
<path d="M57.2055 231.462C56.7649 230.377 58.7774 228.535 61.7003 227.349C64.6233 226.163 67.3501 226.082 67.7907 227.167C68.0617 227.835 67.4046 228.789 66.1786 229.7L66.0158 229.175C66.3005 228.885 66.4287 228.627 66.3519 228.438C66.1333 227.899 64.3377 228.119 62.3415 228.929C60.3453 229.739 58.9042 230.832 59.1229 231.371C59.1844 231.523 59.3706 231.614 59.6509 231.65L59.9028 232.183C58.5012 232.333 57.463 232.097 57.2055 231.462Z"     />
<path d="M64.8797 229.756L63.9111 230.044C64.0726 229.996 64.1264 229.892 64.0727 229.732L65.4673 233.871C65.4136 233.711 65.3061 233.656 65.1447 233.704L66.1132 233.416C65.9518 233.464 65.8979 233.567 65.9517 233.727L64.5569 229.588C64.6107 229.748 64.7183 229.804 64.8797 229.756Z"     />
<path d="M66.3703 234.114L65.4136 234.431C65.573 234.378 65.6283 234.272 65.5793 234.111L66.4875 237.089C66.4385 236.929 66.3343 236.875 66.1749 236.928L67.1315 236.61C66.9721 236.663 66.9169 236.77 66.9659 236.93L66.0577 233.952C66.1066 234.113 66.2108 234.167 66.3703 234.114Z"     />
<path d="M67.4366 240.286L66.1699 240.8L66.1286 240.816L63.7117 240.242L63.5852 239.976L66.1508 238.935L68.7164 237.894L68.8241 238.187L67.4775 240.269L67.4366 240.286Z"     />
<path d="M79.9625 269.859L67.1865 240.387L66.4196 240.698L78.0579 266.55L79.9625 269.859Z"     />
<path d="M28.2852 126.121C28.3835 126.086 28.4817 126.051 28.5792 126.016M42.6155 122.992C42.6201 122.999 42.6224 123.004 42.6252 123.011C43.0121 123.964 38.8806 126.604 32.4943 129.681L31.7312 127.801L31.7247 127.784C31.3871 127.158 26.9314 128.349 21.7096 130.468C16.443 132.605 12.392 134.876 12.6612 135.539C12.6704 135.562 12.6848 135.582 12.7034 135.6L13.446 137.43C7.22623 139.519 2.59904 140.556 1.49414 140.013"     />
<path d="M48.9313 223.312C48.8069 221.913 52.492 219.394 57.016 217.139"     />
<path d="M42.788 208.171C42.6657 206.796 46.2255 204.338 50.6447 202.112"     />
<path d="M36.6447 193.031C36.5245 191.679 39.9611 189.282 44.274 187.087"     />
<path d="M30.3384 177.846C30.2194 176.506 33.5973 174.137 37.8591 171.958"     />
<path d="M47.7921 220.506C47.7087 219.564 49.3497 218.117 51.8093 216.583"     />
<path d="M46.5671 217.486C46.4838 216.547 48.1132 215.106 50.5593 213.578"     />
<path d="M45.3412 214.465C45.2582 213.53 46.8765 212.095 49.309 210.573"     />
<path d="M44.1156 211.445C44.0328 210.513 45.6396 209.085 48.0587 207.568"     />
<path d="M41.4709 204.927C41.3888 204.002 42.9719 202.587 45.3615 201.083"     />
<path d="M40.2455 201.907C40.1634 200.985 41.7356 199.577 44.1114 198.079"     />
<path d="M39.02 198.887C38.9383 197.968 40.4991 196.566 42.8615 195.074"     />
<path d="M37.7946 195.866C37.713 194.951 39.2628 193.556 41.6113 192.069"     />
<path d="M35.343 190.18C35.2609 189.256 36.8414 187.843 39.2279 186.34"     />
<path d="M34.117 187.16C34.0357 186.239 35.6053 184.832 37.9783 183.335"     />
<path d="M32.8926 184.14C32.8109 183.222 34.3693 181.822 36.7284 180.331"     />
<path d="M31.6661 181.119C31.5849 180.204 33.1325 178.811 35.4779 177.325"     />
<path d="M58.7498 232.214L59.123 231.372C59.3585 230.84 60.3454 229.739 62.3416 228.929C64.3378 228.119 65.8906 228.085 66.3521 228.438L66.9537 228.899L85.6939 278.106L85.679 278.113C85.3445 277.783 84.3568 277.837 83.189 278.326C82.0213 278.815 81.2192 279.857 81.3179 280.093C81.4165 280.329 81.3262 280.111 81.3304 280.119L81.3174 280.125L58.7498 232.214Z"     />
<path d="M81.2873 280.19C81.2375 280.057 81.2452 279.898 81.3098 279.723C81.3745 279.547 81.4949 279.359 81.6643 279.168C81.8336 278.977 82.0485 278.787 82.2967 278.61C82.545 278.433 82.8217 278.271 83.1111 278.134C83.5468 277.928 83.995 277.786 84.399 277.726C84.8031 277.666 85.1448 277.691 85.3809 277.798C85.617 277.904 85.7369 278.087 85.7255 278.324C85.7142 278.561 85.5719 278.841 85.3169 279.129C85.0618 279.416 84.7054 279.698 84.2927 279.94C83.8799 280.181 83.4295 280.37 82.9982 280.484C82.5668 280.597 82.174 280.63 81.8695 280.578C81.565 280.525 81.3624 280.391 81.2873 280.19Z"     />
<path d="M83.0379 279.347C83.0096 279.279 83.1322 279.163 83.3122 279.088C83.4922 279.012 83.6611 279.006 83.6895 279.074C83.7178 279.142 83.5952 279.258 83.4152 279.333C83.2352 279.409 83.0662 279.415 83.0379 279.347Z"     />
</svg>
