<svg width="211" height="302" viewBox="0 0 211 302" stroke="#111E45" fill="none" xmlns="http://www.w3.org/2000/svg">
<path d="M87.8138 294.911L196.08 284.736C204.339 283.96 210.461 276.567 209.685 268.308C208.909 260.049 201.516 253.927 193.257 254.703L84.9912 264.879C87.134 268.156 88.8195 273.488 89.3952 279.614C89.9709 285.739 89.3084 291.292 87.8138 294.911Z"      />
<path d="M97.6061 273.282L187.114 264.869C188.683 264.722 189.769 265.949 190.236 267.455C193.337 277.468 187.835 285.366 187.506 285.542H187.491L95.9949 294.142C95.9949 294.142 95.9627 284.134 95.0206 276.402C94.8298 274.837 96.0363 273.428 97.6058 273.28L97.6061 273.282Z"      />
<path d="M91.8755 268.244C91.9289 268.812 92.2395 269.069 92.8073 269.016L194.381 259.469C194.949 259.416 195.206 259.105 195.152 258.537C195.099 257.969 194.788 257.712 194.221 257.766L92.6473 267.312C92.0794 267.365 91.8222 267.676 91.8755 268.244Z"      />
<path d="M77.3722 261.703C81.2411 261.339 85.1716 269.495 86.1512 279.919C87.1309 290.343 84.7888 299.088 80.92 299.452C79.8877 299.549 78.8512 299.039 77.8674 298.042L80.6439 297.796L80.6392 297.752C80.697 297.752 79.332 297.885 80.8124 297.746C82.2928 297.607 85.2831 289.459 84.402 280.083C83.5208 270.708 79.0152 263.02 77.5086 263.162C76.0019 263.303 77.2906 263.194 77.1843 263.226L74.7546 263.485C75.5097 262.426 76.3914 261.795 77.3716 261.703L77.3722 261.703Z"      />
<path d="M80.029 261.453C80.0911 261.447 80.1531 261.443 80.2153 261.441H80.2367C80.2957 261.441 80.3548 261.441 80.4138 261.442L80.4269 261.442C80.4888 261.442 80.5505 261.448 80.6122 261.453H80.6282C80.6864 261.459 80.745 261.466 80.803 261.475L80.8235 261.48C80.8848 261.489 80.946 261.501 81.0072 261.514H81.016C81.0761 261.527 81.1361 261.542 81.196 261.558L81.2142 261.563C81.2751 261.579 81.3359 261.598 81.3966 261.618H81.4013C81.4615 261.638 81.5218 261.661 81.5818 261.685L81.6065 261.694C81.6627 261.717 81.7186 261.741 81.7746 261.766L81.7946 261.775C81.8521 261.801 81.9098 261.829 81.9671 261.858L82.0002 261.876C82.0507 261.902 82.101 261.929 82.1514 261.958L82.1895 261.979C82.244 262.011 82.2984 262.044 82.3525 262.078L82.3857 262.099C82.4353 262.131 82.4849 262.164 82.5343 262.198L82.574 262.225C82.6214 262.258 82.6685 262.293 82.7158 262.328L82.7742 262.372C82.8194 262.406 82.8639 262.441 82.9088 262.477L82.9675 262.525C83.0062 262.557 83.0453 262.59 83.0839 262.623L83.1568 262.686C83.1979 262.723 83.2387 262.76 83.2797 262.797L83.3416 262.855C83.3808 262.892 83.4198 262.93 83.4587 262.968L83.5198 263.028C83.5575 263.066 83.5952 263.105 83.6327 263.143L83.7192 263.235L83.8235 263.348L83.8991 263.432L83.9913 263.538L84.0964 263.662L84.1674 263.747L84.2587 263.86L84.3506 263.977L84.4462 264.102L84.5167 264.196C84.5549 264.248 84.593 264.3 84.6312 264.353L84.6392 264.364C84.7569 264.528 84.8736 264.699 84.9887 264.875C86.5689 267.29 87.8991 270.823 88.7203 274.967V274.972V274.977V274.982V274.987V274.992V274.997L88.7646 275.225V275.23V275.235V275.24V275.25V275.255V275.261V275.266V275.271V275.276V275.281V275.286V275.291L88.7939 275.448M88.8496 275.751V275.756V275.761V275.767V275.772V275.777C88.9094 276.111 88.9657 276.449 89.0187 276.79M89.0233 276.818L89.0686 277.118V277.124V277.13V277.135V277.141V277.146V277.152C89.1681 277.828 89.254 278.516 89.3256 279.215L89.3345 279.306C89.3447 279.408 89.355 279.509 89.3648 279.611C90.3444 290.035 87.7399 298.805 83.5467 299.199L81.1537 299.424V299.409C84.865 298.683 87.0797 290.102 86.1224 279.916C86.0523 279.17 85.9664 278.436 85.8673 277.715V277.707C85.7419 276.797 85.5939 275.909 85.426 275.048C85.399 274.909 85.371 274.77 85.3427 274.631L85.338 274.613C85.2806 274.333 85.2209 274.056 85.1592 273.782V273.773C85.1284 273.636 85.097 273.5 85.0652 273.365V273.36C85.0021 273.092 84.9372 272.828 84.8703 272.567L84.8604 272.53C84.8305 272.414 84.8006 272.3 84.7702 272.186L84.7526 272.119C84.7218 272.005 84.6908 271.891 84.6593 271.778L84.6471 271.734C84.615 271.618 84.582 271.503 84.5487 271.388L84.5371 271.348C84.503 271.231 84.469 271.116 84.4344 271.001L84.4241 270.967C84.3892 270.852 84.3541 270.738 84.3187 270.624L84.3075 270.589C84.273 270.478 84.2378 270.369 84.2024 270.26L84.187 270.212C84.1511 270.102 84.1142 269.993 84.0776 269.884L84.0683 269.857C84.0309 269.748 83.9939 269.639 83.956 269.531L83.9415 269.49C83.9047 269.386 83.8678 269.283 83.8306 269.18L83.8138 269.134C83.7779 269.035 83.7415 268.938 83.705 268.841L83.6798 268.775L83.5786 268.512L83.544 268.425C83.51 268.34 83.4758 268.254 83.4413 268.169L83.4133 268.101C83.3779 268.015 83.3425 267.93 83.3068 267.845L83.2768 267.775C83.2405 267.689 83.2037 267.604 83.1667 267.52L83.1365 267.451L83.0363 267.228L82.9828 267.111L82.8949 266.922L82.8438 266.815C82.8102 266.745 82.7765 266.675 82.7426 266.606L82.7081 266.537C82.6717 266.464 82.6357 266.392 82.5992 266.321L82.5539 266.233L82.4537 266.041L82.4002 265.942L82.3077 265.772L82.2421 265.655L82.155 265.501L82.095 265.399C82.0629 265.343 82.0305 265.288 81.998 265.234L81.9489 265.154C81.9125 265.094 81.8759 265.034 81.8391 264.976L81.7957 264.907C81.7598 264.851 81.7243 264.795 81.6884 264.74L81.6243 264.644L81.5316 264.507L81.461 264.405L81.3734 264.281L81.2978 264.177L81.213 264.063L81.1324 263.958C81.1049 263.922 81.0779 263.887 81.0504 263.852C81.0229 263.818 80.9955 263.784 80.968 263.75L80.8875 263.652C80.8586 263.617 80.8294 263.583 80.8002 263.549L80.7216 263.458L80.643 263.371C80.6131 263.338 80.5835 263.305 80.5534 263.272C80.5287 263.246 80.5032 263.22 80.4781 263.194C80.4474 263.162 80.4166 263.129 80.3857 263.098C80.3605 263.073 80.3349 263.048 80.3096 263.023C80.2793 262.994 80.2485 262.963 80.2178 262.934L80.1425 262.865C80.1113 262.836 80.0797 262.807 80.0483 262.779C80.0198 262.754 79.9911 262.73 79.9625 262.705C79.9355 262.682 79.9079 262.658 79.8807 262.636C79.8504 262.611 79.8195 262.587 79.7888 262.563L79.7087 262.5C79.6793 262.477 79.6496 262.456 79.62 262.435C79.592 262.415 79.5645 262.394 79.5367 262.374C79.5059 262.353 79.4747 262.332 79.4438 262.312C79.4177 262.294 79.3911 262.276 79.3646 262.259C79.3334 262.239 79.3023 262.221 79.2712 262.202C79.2446 262.186 79.2175 262.169 79.1906 262.154C79.1603 262.136 79.13 262.12 79.0996 262.104C79.0721 262.089 79.0445 262.073 79.017 262.059C78.9825 262.041 78.9481 262.025 78.9136 262.009C78.8903 261.998 78.867 261.986 78.8439 261.975C78.8071 261.958 78.7699 261.943 78.7329 261.928C78.7115 261.919 78.6905 261.91 78.669 261.901C78.6247 261.884 78.5802 261.869 78.536 261.854L78.4955 261.839C78.4577 261.827 78.4201 261.816 78.3825 261.805C78.3606 261.799 78.3387 261.792 78.3166 261.786C78.2854 261.778 78.2538 261.772 78.2225 261.764C78.1954 261.758 78.1685 261.751 78.1413 261.746C78.1147 261.741 78.0878 261.737 78.0613 261.732C78.0286 261.727 77.9963 261.721 77.9637 261.716C77.9061 261.708 77.8483 261.702 77.7907 261.698C77.7321 261.693 77.674 261.691 77.6155 261.691L77.6152 261.677L80.0084 261.451"      />
<path d="M41.3694 267.035L77.185 263.226C77.2913 263.194 76.0027 263.303 77.5093 263.162C79.016 263.02 83.5215 270.707 84.4027 280.083C85.2838 289.459 82.2936 297.607 80.8131 297.746C79.3327 297.885 80.6978 297.752 80.64 297.752L80.6446 297.796L44.5609 300.988C48.2964 300.637 50.6104 292.752 49.7291 283.376C48.848 274 45.1055 266.684 41.37 267.035L41.3694 267.035Z"      />
<path d="M41.3696 267.035C42.2578 266.952 43.1787 267.308 44.0795 268.084C44.9803 268.86 45.8435 270.041 46.6198 271.558C47.396 273.075 48.0701 274.9 48.6036 276.928C49.1371 278.955 49.5195 281.147 49.729 283.376C50.0446 286.734 49.9564 290.053 49.4756 292.915C48.9948 295.776 48.1428 298.051 47.0277 299.453C45.9125 300.854 44.5841 301.318 43.2104 300.786C41.8368 300.254 40.4796 298.751 39.3105 296.465C38.1415 294.18 37.213 291.216 36.6425 287.947C36.072 284.679 35.8851 281.253 36.1055 278.102C36.3259 274.952 36.9437 272.219 37.8807 270.25C38.8177 268.28 40.0318 267.161 41.3696 267.035Z"      />
<path d="M41.3696 267.035C42.2578 266.952 43.1787 267.308 44.0795 268.084C44.9803 268.86 45.8435 270.041 46.6198 271.558C47.396 273.075 48.0701 274.9 48.6036 276.928C49.1371 278.955 49.5195 281.147 49.729 283.376C50.0446 286.734 49.9564 290.053 49.4756 292.915C48.9948 295.776 48.1428 298.051 47.0277 299.453C45.9125 300.854 44.5841 301.318 43.2104 300.786C41.8368 300.254 40.4796 298.751 39.3105 296.465C38.1415 294.18 37.213 291.216 36.6425 287.947C36.072 284.679 35.8851 281.253 36.1055 278.102C36.3259 274.952 36.9437 272.219 37.8807 270.25C38.8177 268.28 40.0318 267.161 41.3696 267.035Z"      />
<path d="M42.0268 274.032C42.549 273.983 43.0904 274.192 43.6199 274.649C44.1495 275.105 44.657 275.799 45.1133 276.691C45.5696 277.583 45.9659 278.655 46.2795 279.847C46.5931 281.039 46.818 282.328 46.9412 283.638C47.1267 285.612 47.0748 287.563 46.7921 289.246C46.5095 290.928 46.0086 292.265 45.3531 293.089C44.6975 293.913 43.9166 294.185 43.1091 293.873C42.3016 293.56 41.5037 292.676 40.8165 291.333C40.1292 289.989 39.5833 288.247 39.2479 286.325C38.9126 284.404 38.8027 282.39 38.9323 280.538C39.0618 278.686 39.425 277.08 39.9758 275.921C40.5267 274.763 41.2404 274.106 42.0268 274.032Z"      />
<path fill-rule="evenodd" clip-rule="evenodd" d="M57.1708 282.423C57.1836 282.559 57.2582 282.621 57.3947 282.608L84.3977 280.07C84.5341 280.057 84.5959 279.983 84.5831 279.846C84.5703 279.71 84.4958 279.648 84.3594 279.661L57.3562 282.199C57.2198 282.211 57.158 282.286 57.1708 282.423Z" fill="#ECECED"      />
<path fill-rule="evenodd" clip-rule="evenodd" d="M57.2248 281.109C66.2258 280.263 75.2269 279.417 84.228 278.571C84.3407 278.561 84.4412 278.644 84.4517 278.757C84.4625 278.869 84.3791 278.97 84.2664 278.98C75.2653 279.826 66.2643 280.672 57.2633 281.518C57.1507 281.529 57.0501 281.446 57.0395 281.333C57.0288 281.22 57.1122 281.12 57.2248 281.109Z" fill="#ECECED"      />
<path fill-rule="evenodd" clip-rule="evenodd" d="M57.0145 280.026C66.0154 279.18 75.0165 278.334 84.0176 277.488C84.1302 277.478 84.2308 277.561 84.2414 277.674C84.2521 277.786 84.1687 277.887 84.0561 277.897C75.055 278.743 66.0538 279.589 57.0529 280.435C56.9403 280.446 56.8396 280.363 56.8291 280.25C56.8183 280.137 56.9018 280.037 57.0145 280.026Z" fill="#ECECED"      />
<path fill-rule="evenodd" clip-rule="evenodd" d="M56.8573 278.939C65.8583 278.093 74.8594 277.247 83.8605 276.401C83.9732 276.39 84.0737 276.473 84.0843 276.586C84.095 276.699 84.0116 276.799 83.899 276.81C74.8979 277.656 65.8967 278.502 56.8958 279.348C56.7831 279.358 56.6827 279.275 56.6721 279.162C56.6613 279.05 56.7447 278.949 56.8573 278.939Z" fill="#ECECED"      />
<path fill-rule="evenodd" clip-rule="evenodd" d="M56.6274 277.858C65.6284 277.012 74.6294 276.166 83.6305 275.32C83.7432 275.31 83.8437 275.393 83.8543 275.506C83.8651 275.618 83.7817 275.719 83.669 275.729C74.6679 276.575 65.6668 277.421 56.6659 278.267C56.5532 278.278 56.4527 278.195 56.4421 278.082C56.4314 277.969 56.5148 277.869 56.6274 277.858Z" fill="#ECECED"      />
<path fill-rule="evenodd" clip-rule="evenodd" d="M56.3669 276.78C65.3679 275.934 74.3689 275.088 83.37 274.242C83.4827 274.231 83.5832 274.315 83.5938 274.427C83.6046 274.54 83.5211 274.641 83.4085 274.651C74.4074 275.497 65.4063 276.343 56.4054 277.189C56.2927 277.2 56.1922 277.116 56.1816 277.004C56.1709 276.891 56.2543 276.791 56.3669 276.78Z" fill="#ECECED"      />
<path fill-rule="evenodd" clip-rule="evenodd" d="M56.1629 275.697C65.1639 274.851 74.1649 274.005 83.166 273.159C83.2786 273.148 83.3793 273.231 83.3898 273.344C83.4006 273.457 83.3172 273.557 83.2045 273.568C74.2034 274.414 65.2023 275.26 56.2013 276.106C56.0887 276.116 55.9881 276.033 55.9775 275.92C55.9668 275.808 56.0503 275.707 56.1629 275.697Z" fill="#ECECED"      />
<path fill-rule="evenodd" clip-rule="evenodd" d="M55.7139 274.637C64.7148 273.791 73.7159 272.945 82.7171 272.099C82.8297 272.088 82.9302 272.171 82.9408 272.284C82.9515 272.397 82.8681 272.497 82.7554 272.508C73.7544 273.354 64.7533 274.2 55.7523 275.046C55.6397 275.056 55.5391 274.973 55.5285 274.86C55.5178 274.748 55.6012 274.647 55.7139 274.637Z" fill="#ECECED"      />
<path fill-rule="evenodd" clip-rule="evenodd" d="M55.452 273.559C64.453 272.713 73.4541 271.867 82.4552 271.021C82.5679 271.01 82.6685 271.094 82.679 271.206C82.6898 271.319 82.6064 271.42 82.4937 271.43C73.4926 272.276 64.4914 273.122 55.4905 273.968C55.3778 273.979 55.2774 273.895 55.2668 273.783C55.2561 273.67 55.3394 273.569 55.452 273.559Z" fill="#ECECED"      />
<path fill-rule="evenodd" clip-rule="evenodd" d="M55.0222 272.497C64.0231 271.651 73.0242 270.805 82.0253 269.959C82.1379 269.949 82.2385 270.032 82.2491 270.145C82.2598 270.257 82.1764 270.358 82.0638 270.368C73.0627 271.214 64.0615 272.06 55.0606 272.906C54.948 272.917 54.8475 272.834 54.8369 272.721C54.8261 272.608 54.9095 272.508 55.0222 272.497Z" fill="#ECECED"      />
<path fill-rule="evenodd" clip-rule="evenodd" d="M54.6838 271.426C63.6848 270.58 72.6858 269.734 81.6869 268.888C81.7996 268.877 81.9001 268.961 81.9107 269.073C81.9215 269.186 81.838 269.287 81.7254 269.297C72.7243 270.143 63.7232 270.989 54.7223 271.835C54.6096 271.846 54.5091 271.762 54.4985 271.65C54.4878 271.537 54.5712 271.437 54.6838 271.426Z" fill="#ECECED"      />
<path fill-rule="evenodd" clip-rule="evenodd" d="M54.2334 270.366C63.2344 269.52 72.2355 268.674 81.2366 267.828C81.3492 267.817 81.4497 267.901 81.4603 268.013C81.471 268.126 81.3877 268.227 81.2751 268.237C72.274 269.083 63.2728 269.929 54.2719 270.775C54.1592 270.786 54.0586 270.702 54.048 270.59C54.0373 270.477 54.1207 270.377 54.2334 270.366Z" fill="#ECECED"      />
<path fill-rule="evenodd" clip-rule="evenodd" d="M53.528 269.536C53.5408 269.673 53.6154 269.734 53.7518 269.722L80.755 267.184C80.8914 267.171 80.9532 267.096 80.9404 266.96C80.9276 266.824 80.853 266.762 80.7166 266.775L53.7135 269.312C53.5771 269.325 53.5152 269.4 53.528 269.536Z" fill="#ECECED"      />
<path fill-rule="evenodd" clip-rule="evenodd" d="M51.647 266.562L78.5281 263.762C78.6406 263.75 78.7414 263.834 78.7519 263.947C78.7627 264.06 78.679 264.159 78.5666 264.171L51.6854 266.971C51.573 266.983 51.4722 266.898 51.4616 266.786C51.4509 266.673 51.5344 266.574 51.647 266.562Z" fill="#ECECED"      />
<path fill-rule="evenodd" clip-rule="evenodd" d="M54.797 299.495L81.7292 297.237C81.8419 297.228 81.9251 297.126 81.9145 297.013C81.9038 296.901 81.8033 296.818 81.6907 296.828L54.7585 299.085C54.6459 299.095 54.5626 299.196 54.5732 299.309C54.5839 299.422 54.6842 299.504 54.797 299.495Z" fill="#ECECED"      />
<path fill-rule="evenodd" clip-rule="evenodd" d="M55.3885 298.585L82.3207 296.327C82.4335 296.318 82.5167 296.216 82.506 296.104C82.4953 295.991 82.3948 295.909 82.2822 295.918L55.3501 298.176C55.2375 298.185 55.1541 298.287 55.1647 298.4C55.1754 298.512 55.2758 298.594 55.3885 298.585Z" fill="#ECECED"      />
<path fill-rule="evenodd" clip-rule="evenodd" d="M55.7323 297.784L82.6645 295.526C82.7772 295.517 82.8604 295.415 82.8498 295.302C82.8391 295.19 82.7387 295.107 82.6261 295.117L55.6938 297.374C55.5812 297.384 55.4979 297.486 55.5085 297.598C55.5192 297.711 55.6195 297.793 55.7323 297.784Z" fill="#ECECED"      />
<path fill-rule="evenodd" clip-rule="evenodd" d="M55.9275 297.011L82.8598 294.754C82.9725 294.744 83.0556 294.643 83.045 294.53C83.0343 294.417 82.9339 294.335 82.8213 294.344L55.889 296.602C55.7764 296.611 55.6932 296.713 55.7038 296.826C55.7145 296.938 55.8147 297.021 55.9275 297.011Z" fill="#ECECED"      />
<path d="M87.8138 294.911L196.08 284.736C204.339 283.96 210.461 276.567 209.685 268.308C208.909 260.049 201.516 253.927 193.257 254.703L84.9912 264.879C87.134 268.156 88.8195 273.488 89.3952 279.614C89.9709 285.739 89.3084 291.292 87.8138 294.911Z"      />
<path d="M84.991 264.879L193.257 254.703C194.512 254.585 195.746 254.628 196.941 254.811C195.846 247.003 188.787 241.247 180.826 241.872L72.4158 250.381C74.2921 253.349 75.775 257.964 76.4082 263.309C77.551 263.16 77.9884 261.718 79.2467 261.526L81.5835 261.688L83.7214 263.238L84.991 264.879Z"      />
<path d="M84.9002 258.977L174.527 251.942C176.098 251.819 177.165 253.062 177.608 254.575C177.763 255.102 177.892 255.623 178.002 256.137L84.9911 264.879L82.2673 262.058C81.1724 260.925 83.3286 259.1 84.9002 258.977Z"      />
<path d="M80.0337 252.932L181.742 244.948C182.211 244.912 182.625 245.265 182.662 245.734C182.698 246.203 182.345 246.617 181.876 246.654L80.1675 254.638C79.6985 254.674 79.2845 254.321 79.2478 253.852C79.2109 253.383 79.5646 252.969 80.0337 252.932Z"      />
<path d="M64.8472 247.088C68.4974 246.802 72.0855 254.08 73.1733 263.653L71.4151 263.84C70.3214 255.251 66.3762 248.438 64.9615 248.549C63.4529 248.668 64.7433 248.579 64.6364 248.609L62.2029 248.83C62.974 247.783 63.8657 247.165 64.8472 247.088Z"      />
<path d="M28.7661 251.867L64.6361 248.609C64.7431 248.579 63.4527 248.668 64.9613 248.549C66.376 248.438 70.3212 255.251 71.4149 263.84L41.3693 267.036C39.459 267.215 37.9207 269.365 36.9912 272.678C37.0271 271.285 36.9911 269.829 36.8731 268.334C36.1362 258.946 32.5065 251.573 28.7661 251.867ZM49.7318 283.412C49.743 283.532 49.7538 283.652 49.764 283.772C49.7538 283.652 49.7435 283.532 49.7318 283.412ZM36.2908 285.51L31.4346 285.865C33.4306 285.708 35.0548 283.399 36.0238 279.854C35.9897 281.383 36.0453 282.992 36.201 284.648C36.2281 284.937 36.2583 285.225 36.2908 285.51Z"      />
<path d="M28.7661 251.867C32.5065 251.573 36.1362 258.946 36.8732 268.334C36.9905 269.829 37.0271 271.285 36.9912 272.678C36.4241 274.698 36.0837 277.151 36.0238 279.854C35.0548 283.399 33.4307 285.708 31.4346 285.864C27.6942 286.158 24.0645 278.785 23.3275 269.397C22.5906 260.009 25.0257 252.16 28.7661 251.867Z"      />
<path d="M28.7661 251.867C32.5065 251.573 36.1362 258.946 36.8732 268.334C36.9905 269.829 37.0271 271.285 36.9912 272.678C36.4241 274.698 36.0837 277.151 36.0238 279.854C35.0548 283.399 33.4307 285.708 31.4346 285.864C27.6942 286.158 24.0645 278.785 23.3275 269.397C22.5906 260.009 25.0257 252.16 28.7661 251.867Z"      />
<path d="M29.3158 258.873C31.515 258.7 33.6488 263.034 34.0821 268.553C34.5152 274.072 33.0836 278.686 30.8848 278.859C28.6859 279.032 26.5521 274.697 26.1188 269.178C25.6855 263.659 27.117 259.045 29.3158 258.873Z"      />
<path fill-rule="evenodd" clip-rule="evenodd" d="M44.4036 266.183L63.4379 264.688L48.6446 266.262L44.4357 266.592C44.3229 266.601 44.2236 266.516 44.2147 266.404C44.2059 266.291 44.2908 266.192 44.4036 266.183Z" fill="#ECECED"      />
<path fill-rule="evenodd" clip-rule="evenodd" d="M44.2099 265.097C53.2227 264.389 62.2357 263.682 71.2486 262.974C71.3615 262.965 71.4609 263.05 71.4698 263.163C71.4787 263.276 71.3936 263.375 71.2809 263.384C62.268 264.091 53.2549 264.799 44.242 265.506C44.1292 265.515 44.03 265.43 44.0211 265.318C44.0123 265.205 44.097 265.106 44.2099 265.097Z" fill="#ECECED"      />
<path fill-rule="evenodd" clip-rule="evenodd" d="M44.0692 264.007C53.082 263.299 62.0951 262.592 71.1083 261.884C71.2209 261.876 71.3202 261.96 71.3292 262.073C71.338 262.186 71.2531 262.285 71.1402 262.294C62.1274 263.001 53.1143 263.709 44.1015 264.416C43.9886 264.426 43.8893 264.34 43.8805 264.228C43.8717 264.115 43.9563 264.016 44.0692 264.007Z" fill="#ECECED"      />
<path fill-rule="evenodd" clip-rule="evenodd" d="M43.8555 262.922C52.8685 262.215 61.8815 261.508 70.8946 260.8C71.0074 260.791 71.1068 260.876 71.1155 260.989C71.1243 261.101 71.0395 261.201 70.9268 261.21C61.9137 261.917 52.9008 262.625 43.8879 263.332C43.775 263.341 43.6757 263.256 43.6669 263.143C43.658 263.031 43.7427 262.931 43.8555 262.922Z" fill="#ECECED"      />
<path fill-rule="evenodd" clip-rule="evenodd" d="M43.6119 261.841C52.6248 261.133 61.6379 260.426 70.6508 259.718C70.7637 259.71 70.863 259.794 70.8717 259.907C70.8805 260.02 70.796 260.119 70.6832 260.128C61.6701 260.836 52.6571 261.543 43.6442 262.251C43.5314 262.259 43.4321 262.174 43.4232 262.062C43.4144 261.949 43.4992 261.85 43.6119 261.841Z" fill="#ECECED"      />
<path fill-rule="evenodd" clip-rule="evenodd" d="M43.4245 260.754C52.4374 260.047 61.4505 259.339 70.4635 258.632C70.5763 258.623 70.6756 258.708 70.6844 258.821C70.6933 258.933 70.6086 259.033 70.4958 259.042C61.4827 259.749 52.4697 260.456 43.4567 261.164C43.3439 261.173 43.2447 261.088 43.236 260.975C43.2271 260.862 43.3117 260.763 43.4245 260.754Z" fill="#ECECED"      />
<path fill-rule="evenodd" clip-rule="evenodd" d="M42.9915 259.687C52.0043 258.98 61.0177 258.273 70.0306 257.565C70.1434 257.556 70.2427 257.641 70.2516 257.754C70.2604 257.867 70.1754 257.966 70.0626 257.975C61.0497 258.682 52.0366 259.39 43.0236 260.097C42.911 260.106 42.8118 260.021 42.8029 259.908C42.794 259.796 42.8787 259.696 42.9915 259.687Z" fill="#ECECED"      />
<path fill-rule="evenodd" clip-rule="evenodd" d="M42.7468 258.606C51.7597 257.898 60.7727 257.191 69.7858 256.484C69.8985 256.475 69.9977 256.56 70.0066 256.672C70.0154 256.785 69.9305 256.884 69.8178 256.893C60.8048 257.601 51.7917 258.308 42.7789 259.016C42.6661 259.025 42.567 258.94 42.558 258.827C42.5491 258.714 42.6339 258.615 42.7468 258.606Z" fill="#ECECED"      />
<path fill-rule="evenodd" clip-rule="evenodd" d="M42.3331 257.537C51.346 256.83 60.359 256.122 69.3721 255.415C69.485 255.406 69.5841 255.491 69.5931 255.604C69.602 255.716 69.5171 255.816 69.4044 255.825C60.3911 256.532 51.3781 257.239 42.3652 257.947C42.2523 257.956 42.1532 257.871 42.1444 257.758C42.1356 257.645 42.2202 257.546 42.3331 257.537Z" fill="#ECECED"      />
<path fill-rule="evenodd" clip-rule="evenodd" d="M42.0116 256.462C51.0244 255.754 60.0376 255.047 69.0506 254.34C69.1634 254.331 69.2625 254.416 69.2714 254.528C69.2803 254.641 69.1955 254.74 69.0827 254.749C60.0697 255.457 51.0565 256.164 42.0436 256.871C41.9311 256.88 41.8318 256.796 41.8227 256.683C41.8138 256.57 41.8988 256.471 42.0116 256.462Z" fill="#ECECED"      />
<path fill-rule="evenodd" clip-rule="evenodd" d="M41.5771 255.395C50.5901 254.688 59.603 253.98 68.616 253.273C68.7289 253.264 68.8282 253.349 68.837 253.461C68.8459 253.574 68.7612 253.673 68.6484 253.682C59.6353 254.39 50.6223 255.097 41.6094 255.805C41.4966 255.814 41.3973 255.729 41.3886 255.616C41.3797 255.503 41.4643 255.404 41.5771 255.395Z" fill="#ECECED"      />
<path fill-rule="evenodd" clip-rule="evenodd" d="M41.0732 254.334L68.1121 252.211C68.2249 252.202 68.3241 252.287 68.3331 252.4C68.342 252.513 68.257 252.612 68.1443 252.621L41.1053 254.743C40.9926 254.752 40.8933 254.667 40.8844 254.554C40.8756 254.442 40.9603 254.342 41.0732 254.334Z" fill="#ECECED"      />
<path fill-rule="evenodd" clip-rule="evenodd" d="M39.0498 251.552L65.9709 249.165C66.0837 249.155 66.1829 249.241 66.1917 249.354C66.2006 249.467 66.1155 249.565 66.003 249.575L39.082 251.961C38.9695 251.971 38.8699 251.885 38.8612 251.773C38.8524 251.66 38.9371 251.562 39.0498 251.552Z" fill="#ECECED"      />
<path d="M49.5209 281.576C49.5055 281.463 49.4896 281.35 49.4734 281.238"      />
<path d="M41.3696 267.035L77.1852 263.226C77.2916 263.194 76.0028 263.303 77.5095 263.162C79.0161 263.02 83.5216 270.707 84.4029 280.083C85.284 289.459 82.2937 297.607 80.8133 297.746C79.3329 297.885 80.6979 297.752 80.6402 297.752L80.6448 297.796L44.5611 300.988C40.8256 301.339 37.0831 294.023 36.2018 284.647C35.3207 275.272 37.6346 267.386 41.3701 267.035L41.3696 267.035ZM49.9147 287.639C49.9147 287.365 49.9147 287.089 49.9147 286.81C49.9193 287.089 49.9193 287.365 49.9147 287.639Z"      />
<path d="M67.1307 246.742C67.1928 246.736 67.2546 246.732 67.3168 246.73H67.3383C67.3973 246.73 67.4565 246.73 67.5155 246.73L67.5286 246.73C67.5905 246.73 67.6522 246.736 67.7139 246.742H67.7297C67.788 246.748 67.8466 246.755 67.9047 246.763L67.9252 246.768C67.9865 246.778 68.0478 246.789 68.1089 246.802H68.1178C68.1779 246.815 68.2379 246.83 68.2978 246.846L68.316 246.851C68.3769 246.868 68.4377 246.887 68.4984 246.907H68.5031C68.5633 246.927 68.6235 246.949 68.6836 246.973L68.7083 246.983C68.7645 247.005 68.8204 247.029 68.8764 247.055L68.8964 247.064C68.9539 247.09 69.0115 247.118 69.0689 247.147L69.102 247.165C69.1525 247.191 69.2028 247.218 69.2532 247.247L69.2908 247.268C69.3453 247.299 69.3997 247.333 69.4539 247.367L69.4875 247.388C69.537 247.42 69.5866 247.453 69.636 247.487L69.6756 247.514C69.7231 247.547 69.7703 247.582 69.8176 247.617L69.876 247.661C69.9212 247.695 69.9657 247.73 70.0106 247.766L70.0693 247.814C70.108 247.846 70.1469 247.879 70.1855 247.912L70.2586 247.975C70.2997 248.012 70.3406 248.048 70.3815 248.086L70.4434 248.144C70.4826 248.181 70.5215 248.219 70.5604 248.257L70.6215 248.317C70.6593 248.355 70.6968 248.394 70.7344 248.432L70.821 248.524L70.9253 248.637L71.0009 248.721L71.093 248.827L71.1982 248.951L71.2691 249.036L71.3605 249.149L71.4524 249.266L71.548 249.391L71.6185 249.485C71.6567 249.537 71.6948 249.589 71.733 249.642L71.7408 249.653C71.8585 249.817 71.9753 249.988 72.0905 250.164C73.6706 252.579 75.0009 256.112 75.8221 260.256V260.261V260.266V260.271V260.276V260.281V260.286L75.8664 260.514V260.519V260.524V260.529V260.539V260.544V260.55V260.555V260.56V260.565V260.57V260.575V260.58L75.8957 260.737M75.9514 261.04V261.045V261.051V261.056V261.061V261.066C76.0112 261.4 76.0675 261.738 76.1205 262.079M76.1251 262.107L76.1703 262.407V262.413V262.419V262.424V262.43V262.435V262.441C76.2698 263.117 76.3558 263.805 76.4274 264.504L76.4363 264.595L76.4534 264.765M73.1796 264.765C73.1184 264.17 73.0475 263.583 72.9679 263.004V262.996C72.8425 262.086 72.6944 261.198 72.5266 260.337C72.4995 260.198 72.4716 260.059 72.4432 259.921L72.4387 259.903C72.3812 259.622 72.3215 259.345 72.2597 259.071V259.062C72.229 258.925 72.1976 258.789 72.1658 258.654V258.649C72.1027 258.382 72.0377 258.117 71.9708 257.856L71.961 257.819C71.9312 257.703 71.9013 257.589 71.8709 257.475L71.8532 257.408C71.8224 257.294 71.7913 257.18 71.7599 257.067L71.7478 257.024C71.7151 256.907 71.6825 256.792 71.6492 256.677L71.6376 256.637C71.6035 256.521 71.5695 256.405 71.5349 256.29L71.5247 256.256C71.4897 256.141 71.4547 256.027 71.4192 255.914L71.4081 255.878C71.3736 255.768 71.3382 255.658 71.3028 255.549L71.2874 255.502C71.2515 255.392 71.2148 255.282 71.1781 255.173L71.1688 255.146C71.1315 255.037 71.0944 254.929 71.0565 254.821L71.0421 254.779C71.0052 254.675 70.9683 254.572 70.9311 254.47L70.9143 254.423C70.8784 254.325 70.8421 254.228 70.8056 254.131L70.7804 254.065L70.6792 253.802L70.6447 253.715C70.6106 253.629 70.5763 253.544 70.5417 253.459L70.5139 253.391C70.4784 253.305 70.4429 253.219 70.4072 253.135L70.3774 253.064C70.341 252.979 70.3042 252.894 70.2673 252.81L70.2369 252.741L70.1367 252.517L70.0832 252.401L69.9953 252.212L69.9442 252.105C69.9106 252.035 69.877 251.965 69.8431 251.896L69.8085 251.827C69.7721 251.754 69.7362 251.682 69.6997 251.61L69.6545 251.523L69.5542 251.331L69.5007 251.232L69.4081 251.062L69.3425 250.944L69.2556 250.791L69.1954 250.688C69.1633 250.633 69.131 250.578 69.0985 250.524L69.0493 250.443C69.0129 250.383 68.9763 250.324 68.9395 250.265L68.8962 250.197C68.8603 250.141 68.8247 250.085 68.7888 250.03L68.7248 249.934L68.632 249.796L68.5615 249.695L68.4738 249.571L68.3982 249.467L68.3134 249.352L68.2328 249.247C68.2053 249.212 68.1784 249.176 68.1508 249.142C68.1233 249.107 68.0959 249.074 68.0684 249.04L67.9879 248.941C67.959 248.907 67.9299 248.873 67.9007 248.839L67.8221 248.748L67.7434 248.661C67.7136 248.628 67.684 248.594 67.6539 248.562C67.6292 248.536 67.6038 248.51 67.5787 248.484C67.5479 248.451 67.517 248.419 67.4861 248.388C67.4609 248.362 67.4354 248.338 67.4102 248.313C67.3794 248.283 67.349 248.253 67.3183 248.224L67.2429 248.154C67.2117 248.126 67.1802 248.097 67.1487 248.069C67.1202 248.044 67.0915 248.02 67.063 247.995C67.0359 247.972 67.0083 247.948 66.9811 247.926C66.9508 247.901 66.9199 247.877 66.8892 247.853L66.8091 247.79C66.7797 247.767 66.7502 247.746 66.7205 247.725C66.6925 247.704 66.6649 247.683 66.6371 247.664C66.6063 247.642 66.5751 247.622 66.5442 247.601C66.5176 247.584 66.4916 247.566 66.4652 247.549C66.4339 247.529 66.4028 247.511 66.3716 247.492C66.345 247.476 66.3179 247.459 66.291 247.443C66.2607 247.426 66.2305 247.41 66.2 247.394C66.1725 247.379 66.1451 247.363 66.1175 247.349C66.083 247.331 66.0486 247.315 66.0141 247.299C65.9908 247.287 65.9675 247.276 65.9445 247.265C65.9076 247.248 65.8703 247.233 65.8334 247.218C65.8119 247.209 65.791 247.199 65.7694 247.191C65.7251 247.174 65.6808 247.158 65.6365 247.143L65.5959 247.129C65.5581 247.117 65.5205 247.106 65.4829 247.095C65.461 247.089 65.4392 247.082 65.4171 247.076C65.3859 247.068 65.3543 247.062 65.323 247.054C65.296 247.048 65.2689 247.041 65.2417 247.036C65.2151 247.03 65.1884 247.027 65.1618 247.022C65.1292 247.017 65.0967 247.01 65.0641 247.006C65.0065 246.998 64.9487 246.992 64.8911 246.987C64.8325 246.983 65.0161 247.2 64.9576 247.2L65.0052 246.93L67.1075 246.741"      />
<path d="M62.2021 248.83L54.2836 249.549C54.2919 248.077 54.226 246.544 54.0783 244.974C53.5026 238.848 51.8173 233.516 49.6743 230.239L193.961 218.497C202.229 217.824 209.613 223.843 210.389 232.102C211.165 240.362 205.052 247.857 196.784 248.53L194.647 248.704C191.723 244.227 186.504 241.426 180.825 241.872L73.5372 250.293C70.7573 250.511 69.9871 246.784 67.7133 246.741C64.0592 246.673 64.5153 249.197 62.2021 248.83Z"      />
<path d="M62.2893 238.642L187.818 228.663C189.389 228.538 190.473 229.743 190.939 231.248C192.588 236.57 191.806 241.294 190.662 244.58C187.889 242.626 184.45 241.579 180.825 241.872L72.5608 250.616C72.5715 250.616 66.1652 243.168 62.2021 248.83L60.3297 249C60.1872 246.604 59.9867 244.081 59.7042 241.763C59.5137 240.199 60.7179 238.767 62.2893 238.642Z"      />
<path d="M57.3303 232.672L194.925 221.56C195.394 221.522 195.856 221.861 195.856 222.331C195.856 222.802 195.554 223.225 195.085 223.263L57.4904 234.376C57.0216 234.413 56.5586 234.075 56.5586 233.604C56.5586 233.133 56.8615 232.71 57.3303 232.672Z"      />
<path d="M42.0556 227.063C45.9245 226.699 49.8548 234.855 50.8346 245.279C50.9818 246.846 51.0535 248.374 51.0568 249.842L49.228 250.008C49.2718 248.542 49.2331 247.01 49.0859 245.443C48.2048 236.068 43.6992 228.38 42.1927 228.522C40.6861 228.663 41.9745 228.554 41.8682 228.586L39.4385 228.845C40.1936 227.786 41.0753 227.155 42.0556 227.063Z"      />
<path d="M44.713 226.813C44.775 226.807 44.8368 226.803 44.899 226.801H44.9205C44.9795 226.801 45.0387 226.801 45.0976 226.801L45.1107 226.802C45.1726 226.802 45.2343 226.808 45.2961 226.813H45.3119C45.3701 226.819 45.4287 226.826 45.4868 226.835L45.5073 226.84C45.5686 226.849 45.6299 226.861 45.691 226.874H45.6999C45.7599 226.887 45.8199 226.902 45.8799 226.918L45.8981 226.923C45.9589 226.94 46.0198 226.958 46.0804 226.978H46.0851C46.1453 226.998 46.2055 227.021 46.2656 227.044L46.2903 227.054C46.3464 227.077 46.4023 227.1 46.4583 227.126L46.4783 227.135C46.5358 227.161 46.5934 227.189 46.6508 227.219L46.6839 227.236C46.7344 227.262 46.7847 227.29 46.8351 227.318L46.8734 227.34C46.9278 227.371 46.9822 227.404 47.0364 227.438L47.0695 227.46C47.1191 227.491 47.1687 227.524 47.2181 227.558L47.2577 227.586C47.3051 227.619 47.3523 227.653 47.3995 227.688L47.4579 227.732C47.5032 227.766 47.5476 227.802 47.5925 227.838L47.6512 227.885C47.6904 227.917 47.7289 227.95 47.7676 227.983L47.8406 228.047C47.8816 228.083 47.9225 228.12 47.9634 228.157L48.0253 228.215C48.0645 228.252 48.1034 228.29 48.1424 228.328L48.2035 228.389C48.2413 228.426 48.2788 228.465 48.3164 228.504L48.4029 228.595L48.5072 228.708L48.5828 228.792L48.675 228.898L48.7801 229.022L48.8511 229.108L48.9424 229.221L49.0343 229.338L49.1299 229.462L49.2004 229.556C49.2386 229.608 49.2767 229.66 49.3149 229.713L49.3229 229.724C49.4406 229.889 49.5574 230.059 49.6725 230.235C51.2527 232.651 52.5828 236.184 53.404 240.327V240.332V240.337V240.342V240.347V240.353V240.358L53.4483 240.585V240.59V240.595V240.6V240.61V240.615V240.62V240.625V240.631V240.636V240.641V240.646V240.651L53.4778 240.808M53.5335 241.111V241.116V241.121V241.126V241.131V241.137C53.5932 241.471 53.6496 241.809 53.7025 242.15M53.7072 242.178L53.7524 242.478V242.484V242.489V242.495V242.501V242.506V242.512C53.8518 243.187 53.9378 243.876 54.0094 244.575L54.0183 244.666C54.0286 244.768 54.0388 244.869 54.0486 244.971C54.1961 246.541 54.2618 248.074 54.2536 249.546M51.0273 249.839C51.0227 248.371 50.9521 246.843 50.8049 245.276C50.7348 244.53 50.649 243.796 50.5499 243.075V243.067C50.4244 242.157 50.2764 241.269 50.1085 240.408C50.0815 240.269 50.053 240.13 50.0247 239.991L50.0201 239.973C49.9626 239.693 49.903 239.416 49.8412 239.142V239.133C49.8104 238.996 49.7791 238.86 49.7473 238.725V238.72C49.6842 238.452 49.6193 238.188 49.5524 237.927L49.5431 237.889C49.5132 237.774 49.4832 237.66 49.4528 237.546L49.4351 237.479C49.4044 237.365 49.3734 237.251 49.3419 237.138L49.3298 237.094C49.2977 236.978 49.2645 236.863 49.2313 236.748L49.2196 236.708C49.1856 236.591 49.1516 236.476 49.117 236.361L49.1067 236.327C49.0717 236.212 49.0367 236.098 49.0013 235.984L48.9901 235.949C48.9556 235.838 48.9203 235.729 48.8848 235.62L48.8695 235.572C48.8336 235.462 48.7967 235.353 48.7601 235.244L48.7508 235.217C48.714 235.108 48.6765 234.999 48.6386 234.892L48.6241 234.85C48.5873 234.746 48.5504 234.643 48.5131 234.54L48.4958 234.494C48.4599 234.396 48.4236 234.298 48.3871 234.202L48.362 234.135L48.2606 233.873L48.2261 233.786C48.1921 233.7 48.1578 233.614 48.1233 233.53L48.0954 233.462C48.06 233.376 48.0245 233.29 47.9888 233.206L47.959 233.135C47.9226 233.05 47.8858 232.965 47.8489 232.88L47.8186 232.812L47.7183 232.588L47.6648 232.472L47.5769 232.283L47.5258 232.176C47.4922 232.106 47.4586 232.036 47.4247 231.967L47.3902 231.898C47.3538 231.825 47.3177 231.753 47.2813 231.681L47.2361 231.593L47.1358 231.402L47.0823 231.303L46.9897 231.132L46.9241 231.015L46.8372 230.862L46.777 230.759C46.7449 230.704 46.7126 230.649 46.6801 230.595L46.631 230.514C46.5946 230.454 46.5579 230.395 46.5211 230.336L46.4778 230.268C46.4419 230.212 46.4063 230.156 46.3704 230.101L46.3063 230.005L46.2136 229.867L46.1431 229.766L46.0554 229.642L45.9798 229.538L45.895 229.423L45.8144 229.318C45.7869 229.283 45.7599 229.247 45.7324 229.213C45.7049 229.178 45.6776 229.144 45.65 229.111L45.5695 229.012C45.5406 228.977 45.5115 228.944 45.4823 228.91L45.4037 228.819L45.325 228.731C45.2951 228.698 45.2656 228.665 45.2355 228.633C45.2108 228.606 45.1853 228.58 45.1603 228.554C45.1295 228.522 45.0986 228.49 45.0677 228.459C45.0425 228.433 45.0169 228.409 44.9917 228.384C44.9609 228.354 44.9305 228.324 44.8998 228.295L44.8245 228.225C44.7933 228.196 44.7618 228.167 44.7303 228.139C44.7018 228.114 44.6731 228.09 44.6446 228.066C44.6175 228.043 44.5899 228.019 44.5627 227.996C44.5319 227.971 44.5016 227.948 44.4708 227.923L44.3907 227.86C44.3613 227.838 44.3317 227.816 44.302 227.795C44.274 227.775 44.2465 227.754 44.2187 227.735C44.1879 227.713 44.1566 227.693 44.1258 227.672C44.0997 227.655 44.0731 227.637 44.0467 227.62C44.0154 227.6 43.9843 227.581 43.9532 227.563C43.9266 227.546 43.8995 227.53 43.8726 227.514C43.8423 227.496 43.812 227.481 43.7816 227.464C43.7541 227.449 43.7266 227.434 43.6991 227.42C43.6646 227.402 43.6302 227.386 43.5956 227.369C43.5723 227.358 43.5495 227.346 43.5261 227.336C43.4892 227.319 43.4519 227.304 43.415 227.289C43.3935 227.28 43.3726 227.27 43.351 227.262C43.3067 227.245 43.2624 227.229 43.2181 227.214L43.1775 227.2C43.1397 227.188 43.102 227.177 43.0644 227.166C43.0425 227.16 43.0206 227.153 42.9986 227.147C42.9674 227.139 42.9358 227.133 42.9045 227.125C42.8774 227.119 42.8505 227.112 42.8233 227.106C42.7967 227.101 42.7699 227.098 42.7433 227.093C42.7106 227.087 42.6783 227.081 42.6457 227.077C42.5881 227.069 42.5303 227.063 42.4727 227.059C42.4142 227.054 42.356 227.053 42.2975 227.052L42.2974 227.038L44.6905 226.813"      />
<path d="M6.05273 232.396L41.8683 228.586C41.9747 228.555 40.6862 228.664 42.1928 228.522C43.6993 228.38 48.2049 236.068 49.086 245.443C49.2332 247.01 49.2721 248.542 49.2281 250.008L28.7657 251.867C25.6124 252.115 23.3871 257.731 23.2075 265.113L9.24384 266.348C12.9792 265.997 15.2932 258.112 14.4119 248.736C13.5308 239.361 9.7881 232.045 6.05273 232.396Z"      />
<path d="M6.05276 232.395C9.78813 232.044 13.5308 239.36 14.412 248.736C15.2932 258.112 12.9792 265.997 9.24387 266.348C5.50818 266.699 1.76575 259.383 0.884449 250.008C0.00333502 240.632 2.31721 232.747 6.05276 232.395Z"      />
<path d="M6.05276 232.395C9.78813 232.044 13.5308 239.36 14.412 248.736C15.2932 258.112 12.9792 265.997 9.24387 266.348C5.50818 266.699 1.76575 259.383 0.884449 250.008C0.00333502 240.632 2.31721 232.747 6.05276 232.395Z"      />
<path d="M6.7102 239.392C8.90627 239.186 11.1063 243.486 11.6244 248.998C12.1424 254.51 10.7821 259.145 8.5862 259.352C6.39008 259.558 4.19006 255.257 3.6721 249.745C3.154 244.234 4.51422 239.598 6.7102 239.392Z"      />
<path fill-rule="evenodd" clip-rule="evenodd" d="M22.04 247.559L49.0432 245.021C49.1558 245.01 49.2563 245.094 49.2669 245.206C49.2777 245.319 49.1943 245.419 49.0816 245.43L22.0785 247.968C21.9658 247.979 21.8653 247.895 21.8547 247.783C21.844 247.67 21.9273 247.57 22.04 247.559Z" fill="#ECECED"      />
<path fill-rule="evenodd" clip-rule="evenodd" d="M21.9083 246.469C30.9094 245.623 39.9105 244.777 48.9115 243.931C49.0242 243.92 49.1248 244.004 49.1355 244.116C49.1462 244.229 49.0627 244.33 48.95 244.34C39.9489 245.186 30.948 246.032 21.947 246.878C21.8343 246.889 21.7337 246.805 21.7231 246.693C21.7124 246.58 21.7957 246.48 21.9083 246.469Z" fill="#ECECED"      />
<path fill-rule="evenodd" clip-rule="evenodd" d="M21.6982 245.387C30.6991 244.54 39.6999 243.695 48.7012 242.849C48.8138 242.838 48.9144 242.921 48.9249 243.034C48.9356 243.147 48.8524 243.247 48.7397 243.258C39.7386 244.104 30.7374 244.95 21.7365 245.796C21.6239 245.806 21.5233 245.723 21.5126 245.61C21.5019 245.498 21.5855 245.397 21.6982 245.387Z" fill="#ECECED"      />
<path fill-rule="evenodd" clip-rule="evenodd" d="M21.5408 244.299C30.5417 243.453 39.5427 242.607 48.5438 241.761C48.6565 241.75 48.7571 241.833 48.7675 241.946C48.7783 242.059 48.695 242.159 48.5823 242.17C39.5813 243.016 30.58 243.862 21.5791 244.708C21.4666 244.718 21.3661 244.635 21.3554 244.522C21.3447 244.41 21.4281 244.309 21.5408 244.299Z" fill="#ECECED"      />
<path fill-rule="evenodd" clip-rule="evenodd" d="M21.3106 243.218C30.3116 242.372 39.3127 241.526 48.3137 240.68C48.4264 240.669 48.5269 240.753 48.5375 240.865C48.5483 240.978 48.4649 241.079 48.3522 241.089C39.3511 241.935 30.35 242.781 21.3491 243.627C21.2364 243.638 21.1359 243.554 21.1252 243.442C21.1145 243.329 21.1979 243.229 21.3106 243.218Z" fill="#ECECED"      />
<path fill-rule="evenodd" clip-rule="evenodd" d="M21.05 242.14C30.0511 241.294 39.0521 240.448 48.0534 239.602C48.1659 239.591 48.2664 239.675 48.2771 239.787C48.2878 239.9 48.2045 240 48.0918 240.011C39.0906 240.857 30.0894 241.703 21.0885 242.549C20.976 242.56 20.8755 242.476 20.8647 242.364C20.854 242.251 20.9375 242.15 21.05 242.14Z" fill="#ECECED"      />
<path fill-rule="evenodd" clip-rule="evenodd" d="M20.8464 241.057C29.8473 240.211 38.8484 239.365 47.8496 238.519C47.9621 238.508 48.0627 238.592 48.0733 238.704C48.084 238.817 48.0006 238.918 47.888 238.928C38.8869 239.774 29.8858 240.62 20.8849 241.466C20.7722 241.477 20.6717 241.393 20.6611 241.281C20.6504 241.168 20.7338 241.067 20.8464 241.057Z" fill="#ECECED"      />
<path fill-rule="evenodd" clip-rule="evenodd" d="M20.3973 239.997C29.3984 239.151 38.3995 238.305 47.4007 237.459C47.5133 237.448 47.6138 237.532 47.6245 237.644C47.6352 237.757 47.5516 237.857 47.4391 237.868C38.4381 238.714 29.4369 239.56 20.4358 240.406C20.3233 240.417 20.2226 240.333 20.2121 240.221C20.2014 240.108 20.2847 240.007 20.3973 239.997Z" fill="#ECECED"      />
<path fill-rule="evenodd" clip-rule="evenodd" d="M20.1356 238.919C29.1365 238.073 38.1376 237.227 47.1388 236.381C47.2514 236.37 47.352 236.453 47.3625 236.566C47.3732 236.679 47.2899 236.779 47.1772 236.79C38.1761 237.636 29.175 238.482 20.1741 239.328C20.0614 239.339 19.9608 239.255 19.9501 239.142C19.9394 239.03 20.0229 238.929 20.1356 238.919Z" fill="#ECECED"      />
<path fill-rule="evenodd" clip-rule="evenodd" d="M19.7054 237.857C28.7063 237.011 37.7076 236.165 46.7085 235.319C46.8212 235.308 46.9217 235.391 46.9322 235.504C46.9429 235.617 46.8596 235.717 46.747 235.728C37.7459 236.574 28.7448 237.42 19.7439 238.266C19.6312 238.276 19.5306 238.193 19.52 238.08C19.5092 237.968 19.5928 237.867 19.7054 237.857Z" fill="#ECECED"      />
<path fill-rule="evenodd" clip-rule="evenodd" d="M19.3674 236.786C28.3685 235.94 37.3696 235.094 46.3706 234.248C46.4831 234.238 46.5837 234.321 46.5943 234.434C46.605 234.546 46.5218 234.647 46.4091 234.658C37.4079 235.504 28.4069 236.35 19.4061 237.196C19.2934 237.206 19.1929 237.123 19.1821 237.01C19.1714 236.898 19.2549 236.797 19.3674 236.786Z" fill="#ECECED"      />
<path fill-rule="evenodd" clip-rule="evenodd" d="M18.9164 235.726C27.9173 234.88 36.9185 234.034 45.9196 233.188C46.0321 233.178 46.1328 233.261 46.1433 233.374C46.154 233.486 46.0706 233.587 45.9579 233.598C36.9569 234.444 27.956 235.29 18.9549 236.135C18.8422 236.146 18.7416 236.063 18.7312 235.95C18.7204 235.837 18.8037 235.737 18.9164 235.726Z" fill="#ECECED"      />
<path fill-rule="evenodd" clip-rule="evenodd" d="M18.3966 234.673L45.3996 232.135C45.5123 232.124 45.6128 232.207 45.6235 232.32C45.6342 232.433 45.5507 232.533 45.438 232.544L18.4351 235.082C18.3224 235.092 18.2218 235.009 18.2111 234.896C18.2004 234.784 18.2839 234.683 18.3966 234.673Z" fill="#ECECED"      />
<path fill-rule="evenodd" clip-rule="evenodd" d="M16.3305 231.922L43.2117 229.122C43.3242 229.11 43.4249 229.194 43.4355 229.307C43.4463 229.42 43.3625 229.519 43.2503 229.531L16.369 232.331C16.2565 232.343 16.1559 232.258 16.1452 232.146C16.1345 232.033 16.218 231.934 16.3305 231.922Z" fill="#ECECED"      />
<path fill-rule="evenodd" clip-rule="evenodd" d="M19.4805 264.854L23.226 264.541C23.2316 264.402 23.2376 264.264 23.2446 264.126L19.4421 264.445C19.3296 264.455 19.2461 264.556 19.2568 264.669C19.2675 264.782 19.3676 264.864 19.4805 264.854Z" fill="#ECECED"      />
<path fill-rule="evenodd" clip-rule="evenodd" d="M20.0723 263.945L23.2699 263.677C23.2787 263.538 23.2881 263.4 23.2979 263.262L20.0337 263.536C19.9211 263.545 19.8376 263.647 19.8483 263.759C19.8586 263.872 19.9594 263.954 20.0723 263.945Z" fill="#ECECED"      />
<path fill-rule="evenodd" clip-rule="evenodd" d="M20.4158 263.143L23.3268 262.899C23.3385 262.76 23.3511 262.621 23.3642 262.484L20.3774 262.734C20.2648 262.744 20.1814 262.845 20.1921 262.958C20.2028 263.071 20.3031 263.153 20.4158 263.143Z" fill="#ECECED"      />
<path fill-rule="evenodd" clip-rule="evenodd" d="M20.6106 262.371L23.3992 262.138C23.4141 261.998 23.4301 261.859 23.4464 261.721L20.5722 261.962C20.4596 261.971 20.3761 262.073 20.3869 262.186C20.3977 262.298 20.4978 262.381 20.6106 262.371Z" fill="#ECECED"      />
<path d="M14.2045 246.935C14.1891 246.822 14.1732 246.71 14.157 246.598"      />
<path d="M6.05276 232.396L41.8684 228.587C41.9748 228.555 40.6861 228.664 42.1928 228.522C43.6994 228.38 48.2048 236.068 49.0861 245.443C49.2333 247.01 49.2721 248.542 49.2281 250.008L28.7657 251.867C25.6124 252.115 23.3871 257.731 23.2075 265.113L9.24375 266.348C5.5082 266.699 1.76575 259.383 0.884449 250.008C0.00333502 240.632 2.31721 232.747 6.05276 232.396ZM14.5977 252.999C14.5977 252.725 14.5977 252.449 14.5977 252.171C14.6024 252.449 14.6024 252.725 14.5977 252.999Z"      />
<path d="M149.654 112.473C158.2 113.202 164.372 115.294 164.372 117.76C164.372 120.833 154.797 123.324 142.986 123.324C131.174 123.324 121.599 120.833 121.599 117.76C121.599 115.429 127.113 113.433 134.934 112.605V116.049C134.934 117.136 140.298 118.025 141.385 118.025H144.586C145.673 118.025 149.654 117.136 149.654 116.049V112.473Z"      />
<path d="M164.372 121.896C164.372 124.969 154.797 127.46 142.986 127.46C131.174 127.46 121.599 124.969 121.599 121.896V117.797V117.765C121.599 115.433 127.113 113.437 134.934 112.61V116.054C134.934 117.141 140.298 118.03 141.385 118.03H144.586C145.673 118.03 149.654 117.14 149.654 116.054V112.478C158.2 113.206 164.372 115.298 164.372 117.765C164.372 117.777 164.372 117.789 164.372 117.802V121.896Z"      />
<path d="M140.723 118.262V154.855C140.723 155.922 141.257 156.455 142.324 156.455C143.391 156.455 143.925 155.922 143.925 154.855V118.262H140.723Z"      />
<path d="M149.654 106.505L149.736 106.524L149.654 116.049C149.644 117.135 145.673 118.025 144.586 118.025H141.385C140.299 118.025 134.937 117.136 134.934 116.049L134.91 106.52L134.934 106.506C135.57 107.324 138.623 107.945 142.294 107.945C145.965 107.945 149.018 107.324 149.654 106.505Z"      />
<path d="M149.654 106.183V106.189C149.654 107.158 146.358 107.944 142.294 107.944C138.229 107.944 134.934 107.158 134.934 106.189V106.183V105.44V105.434C134.934 105.029 135.509 104.656 136.475 104.359V105.336C136.475 105.914 140.717 106.386 141.575 106.386H143.041C143.9 106.386 148.112 105.913 148.112 105.336V104.359C149.078 104.656 149.654 105.029 149.654 105.434V105.44V106.183Z"      />
<path d="M149.652 105.422C149.624 106.482 146.341 107.339 142.293 107.339C138.246 107.339 134.962 106.482 134.934 105.422C134.945 105.022 135.519 104.653 136.475 104.359V105.336C136.475 105.914 140.717 106.386 141.575 106.386H143.041C143.9 106.386 148.112 105.914 148.112 105.336V104.359C149.068 104.653 149.641 105.022 149.652 105.422Z"      />
<path d="M149.654 106.183V106.189C149.654 107.158 146.358 107.944 142.294 107.944C138.229 107.944 134.934 107.158 134.934 106.189V106.183V105.44V105.434C134.934 105.029 135.509 104.656 136.475 104.359V105.336C136.475 105.914 140.717 106.386 141.575 106.386H143.041C143.9 106.386 148.112 105.913 148.112 105.336V104.359C149.078 104.656 149.654 105.029 149.654 105.434V105.44V106.183Z"      />
<path d="M148.112 97.2155V99.4044V105.337C148.112 105.914 143.9 106.386 143.041 106.386H141.575C140.716 106.386 136.475 105.914 136.475 105.337V99.4044V97.2155V97.0151L139.154 93.8962V91.232L139.985 88.5679H144.663L145.494 91.232V93.8962H145.539L148.112 96.962L148.112 97.2155Z"      />
<path fill-rule="evenodd" clip-rule="evenodd" d="M143.136 117.712H141.512L142.326 20.0595L143.136 14.5024V117.712Z"      />
<path d="M142.986 205.534C145.794 205.534 148.575 205.669 151.17 205.932C153.765 206.195 156.122 206.58 158.108 207.065C160.094 207.55 161.67 208.126 162.744 208.76C163.819 209.394 164.372 210.074 164.372 210.76C164.372 211.793 163.118 212.804 160.768 213.663C158.418 214.522 155.078 215.192 151.17 215.588C147.262 215.983 142.962 216.087 138.813 215.885C134.665 215.683 130.854 215.186 127.863 214.455C124.872 213.724 122.835 212.793 122.01 211.779C121.185 210.766 121.608 209.715 123.227 208.76C124.846 207.805 127.587 206.989 131.104 206.415C134.621 205.841 138.756 205.534 142.986 205.534Z"      />
<path d="M142.986 215.985C154.797 215.985 164.372 213.645 164.372 210.76L164.372 117.797C164.373 117.785 164.372 117.773 164.372 117.76C164.372 115.294 158.2 113.202 149.654 112.473V116.049C149.654 117.136 145.673 118.025 144.586 118.025H141.385C140.298 118.025 134.934 117.136 134.934 116.049V112.605C127.113 113.433 121.599 115.429 121.599 117.76C121.599 117.773 121.599 117.785 121.599 117.797V210.76C121.599 213.645 131.174 215.985 142.986 215.985Z"      />
<path d="M117.226 205.527C116.988 204.859 118.415 203.986 118.991 203.719C132.964 197.228 148.259 196.603 165.747 202.695L170.442 216.632C170.55 218.192 169.136 219.541 166.663 220.638L154.047 221.665C153.278 221.005 152.471 220.696 151.721 220.854C151.591 220.882 151.466 220.923 151.346 220.976L133.761 223.315C129.903 222.912 126.13 222.281 122.669 221.402L117.226 205.527Z"      />
<path d="M88.786 131.137C94.312 131.137 99.6117 131.703 103.519 132.71C107.427 133.717 109.622 135.083 109.622 136.508C109.622 137.57 108.4 138.608 106.11 139.492C103.821 140.375 100.567 141.063 96.7595 141.47C92.9522 141.876 88.7629 141.983 84.7212 141.775C80.6794 141.568 76.9668 141.057 74.0529 140.306C71.139 139.554 69.1545 138.597 68.3506 137.556C67.5466 136.514 67.9592 135.434 69.5362 134.452C71.1132 133.471 73.7838 132.632 77.2102 132.042C80.6366 131.452 84.6651 131.137 88.786 131.137Z"      />
<path d="M97.0683 100.063V107.211L88.3165 113.675H79.1299V100.027C83.45 101.401 92.5677 101.627 97.0683 100.063Z"      />
<path fill-rule="evenodd" clip-rule="evenodd" d="M97.0681 103.06H103.252C105.808 103.169 105.268 105.992 103.252 106.967L103.953 107.767C106.035 107.81 107.26 108.682 106.877 111.11C105.764 114.12 99.9041 116.496 100.859 123.69" fill="#ECECED"/>
<path d="M97.0681 103.06H103.252C105.808 103.169 105.268 105.992 103.252 106.967L103.953 107.767C106.035 107.81 107.26 108.682 106.877 111.11C105.764 114.12 99.9041 116.496 100.859 123.69"      />
<path fill-rule="evenodd" clip-rule="evenodd" d="M103.048 118.007C109.687 118.848 113.926 118.352 114.678 115.915L103.048 118.007Z" fill="#ECECED"/>
<path d="M103.048 118.007C109.687 118.848 113.926 118.352 114.678 115.915"      />
<path d="M108.358 114.123C108.966 114.123 109.548 114.218 109.978 114.389C110.408 114.559 110.649 114.79 110.649 115.031C110.649 115.211 110.515 115.386 110.263 115.535C110.011 115.685 109.653 115.801 109.235 115.87C108.816 115.939 108.355 115.957 107.911 115.922C107.466 115.887 107.058 115.8 106.737 115.673C106.417 115.546 106.199 115.384 106.11 115.208C106.022 115.032 106.067 114.849 106.241 114.683C106.414 114.517 106.708 114.375 107.085 114.276C107.461 114.176 107.905 114.123 108.358 114.123Z"      />
<path fill-rule="evenodd" clip-rule="evenodd" d="M79.1296 113.675C78.6349 113.536 74.2417 113.176 74.2744 109.997L79.1296 113.675Z" fill="#ECECED"/>
<path d="M79.1296 113.675C78.6349 113.536 74.2417 113.176 74.2744 109.997"      />
<path fill-rule="evenodd" clip-rule="evenodd" d="M82.1756 116.429C77.6579 116.148 70.4881 114.966 70.5209 111.788L82.1756 116.429Z" fill="#ECECED"/>
<path d="M82.1756 116.429C77.6579 116.148 70.4881 114.966 70.5209 111.788"      />
<path fill-rule="evenodd" clip-rule="evenodd" d="M77.332 118.979C74.6746 118.814 67.95 116.982 70.5692 114.33L77.332 118.979Z" fill="#ECECED"/>
<path d="M77.332 118.979C74.6746 118.814 67.95 116.982 70.5692 114.33"      />
<path d="M109.185 123.814C109.471 124.169 109.622 124.536 109.622 124.912C109.622 127.878 100.293 130.283 88.786 130.283C78.2945 130.283 69.6156 128.284 68.1649 125.683H67.9503V124.912V114.868C67.95 114.855 67.9503 116.416 67.9503 114.83C67.9503 114.3 68.6259 112.857 70.5212 111.97C70.5212 107.442 74.4584 106.171 79.1301 106.473V113.675H88.3167L96.7657 107.435L106.878 111.111L109.454 111.18C110.155 111.37 110.809 111.576 111.4 111.801C113.342 112.54 114.671 114.598 114.671 115.472C114.671 116.417 114.79 117.638 114.709 121.162C114.895 122.744 114.122 123.444 112.667 123.516L109.186 123.741L109.185 123.814Z"      />
<path d="M89.9354 221.701C102.078 221.701 111.921 219.296 111.921 216.329L111.953 216.265V150.322L109.076 144.791L109.185 123.741L112.666 123.516C114.121 123.444 114.894 122.744 114.708 121.162C114.789 117.638 114.671 116.417 114.671 115.472C114.671 114.598 113.342 112.54 111.399 111.8C110.809 111.576 110.155 111.37 109.453 111.18L106.877 111.111L96.765 107.435L88.316 113.675H79.1294V106.473C74.4578 106.171 70.5206 107.442 70.5206 111.97C68.6253 112.857 67.9497 114.3 67.9497 114.83C67.9497 116.416 67.9497 114.855 67.9497 114.868V216.329C67.9497 219.295 77.7928 221.701 89.935 221.701L89.9354 221.701Z"      />
<path d="M96.9414 125.701V129.855C94.4365 130.13 91.6802 130.283 88.7858 130.283C85.8912 130.283 83.1352 130.13 80.6304 129.855V125.701C83.1352 125.976 85.8912 126.129 88.7858 126.129C91.6802 126.129 94.4365 125.976 96.9414 125.701Z"      />
<path d="M109.185 123.814C109.471 124.169 109.622 124.536 109.622 124.912C109.622 127.878 100.293 130.283 88.786 130.283C78.2945 130.283 69.6156 128.284 68.1649 125.683H67.9503V124.912V114.868C67.95 114.855 67.9503 116.416 67.9503 114.83C67.9503 114.3 68.6259 112.857 70.5212 111.97C70.5212 107.442 74.4584 106.171 79.1301 106.473V113.675H88.3167L96.7657 107.435L106.878 111.111L109.454 111.18C110.155 111.37 110.809 111.576 111.4 111.801C113.342 112.54 114.671 114.598 114.671 115.472C114.671 116.417 114.79 117.638 114.709 121.162C114.895 122.744 114.122 123.444 112.667 123.516L109.186 123.741L109.185 123.814Z"      />
<path d="M86.2104 131.2H91.0043V161.147C91.0043 162.465 89.9258 163.544 88.6076 163.544C87.2894 163.544 86.2104 162.465 86.2104 161.147V131.2Z"      />
<path d="M77.2403 89.0913C80.1431 91.5269 95.2678 92.0655 98.9051 89.0913H99.3216V98.6996C96.4955 102.314 78.5201 101.599 76.8762 98.6996V89.0913H77.2403Z"      />
<path d="M99.2762 88.7281L98.8041 85.282L93.9508 2.97436C93.9858 2.90591 94.0042 2.83647 94.0042 2.76592C94.0042 1.79052 90.5745 1 86.3437 1C82.1129 1 78.6831 1.79052 78.6831 2.76592L77.2854 85.2293L76.8762 88.6754C78.5119 91.5604 96.3155 92.2822 99.2762 88.7281Z"      />
<path d="M86.3439 1.88867C87.3535 1.88867 88.3216 1.98117 89.0355 2.14573C89.7494 2.31029 90.1505 2.53344 90.1505 2.76617C90.1505 2.93971 89.9272 3.10934 89.509 3.25364C89.0907 3.39794 88.4962 3.51042 87.8007 3.57683C87.1051 3.64325 86.3396 3.66067 85.6012 3.62681C84.8628 3.59295 84.1846 3.50932 83.6523 3.3866C83.1199 3.26389 82.7574 3.1076 82.6105 2.93738C82.4636 2.76717 82.539 2.59067 82.8271 2.43033C83.1152 2.26999 83.6031 2.13297 84.2291 2.03655C84.8551 1.94013 85.5911 1.88867 86.3439 1.88867Z"      />
<path d="M89.5683 91.1121C87.9477 91.1442 86.3077 91.2722 84.7783 90.9849V87.3594C86.3077 87.6467 87.9477 87.7831 89.5683 87.7506V91.1121Z"      />
<path fill-rule="evenodd" clip-rule="evenodd" d="M67.9499 207.141C66.4691 207.68 65.225 208.432 64.3684 209.533C62.6856 211.586 63.3836 213.594 65.0721 215.585C66.3768 218 64.2909 219.851 65.3536 222.832C71.0168 229.403 105.499 228.785 113.273 218.61C115.204 215.304 114.729 211.097 111.953 210.8" fill="#ECECED"/>
<path d="M67.9499 207.141C66.4691 207.68 65.225 208.432 64.3684 209.533C62.6856 211.586 63.3836 213.594 65.0721 215.585C66.3768 218 64.2909 219.851 65.3536 222.832C71.0168 229.403 105.499 228.785 113.273 218.61C115.204 215.304 114.729 211.097 111.953 210.8"      />
<path fill-rule="evenodd" clip-rule="evenodd" d="M65.3535 219.672C71.0167 226.242 105.499 225.624 113.273 215.45C115.204 212.144 114.729 207.937 111.953 207.639" fill="#ECECED"/>
<path d="M65.3535 219.672C71.0167 226.242 105.499 225.624 113.273 215.45C115.204 212.144 114.729 207.937 111.953 207.639"      />
<path d="M89.9355 210.746C102.078 210.746 111.921 213.151 111.921 216.117L111.953 216.182V216.265L111.921 216.329C111.921 219.295 102.078 221.701 89.9355 221.701C77.7933 221.701 67.9502 219.295 67.9502 216.329V216.117C67.9502 213.151 77.7933 210.746 89.9355 210.746Z"      />
<path d="M89.9354 221.701C102.078 221.701 111.921 219.296 111.921 216.329L111.953 216.265V150.322L109.076 144.791L109.185 123.741L112.666 123.516C114.121 123.444 114.894 122.744 114.708 121.162C114.789 117.638 114.671 116.417 114.671 115.472C114.671 114.598 113.342 112.54 111.399 111.8C110.809 111.576 110.155 111.37 109.453 111.18L106.877 111.111L96.765 107.435L88.316 113.675H79.1294V106.473C74.4578 106.171 70.5206 107.442 70.5206 111.97C68.6253 112.857 67.9497 114.3 67.9497 114.83C67.9497 116.416 67.9497 114.855 67.9497 114.868V216.329C67.9497 219.295 77.7928 221.701 89.935 221.701L89.9354 221.701Z"      />
<path d="M89.9297 204.691C98.6531 204.691 106.501 205.607 111.953 207.066V217.173C110.791 219.602 97.4655 221.7 90.388 221.7C83.3105 221.7 68.1918 219.607 67.9502 217.185V207.054C73.4007 205.602 81.2295 204.691 89.9297 204.691Z"      />
<path fill-rule="evenodd" clip-rule="evenodd" d="M87.1621 126.128H88.7855L86.565 20.0595L85.7554 14.5024L87.1621 126.128Z"      />
</svg>
