<svg viewBox="0 0 100 100" xmlns="http://www.w3.org/2000/svg">
  <path d="M78.3,65.2c-2.5,5.9-8.3,9.6-14.2,11.1c-6.9,1.7-14.1,0.5-20.7-2.1c-6.1-2.4-11.5-6.3-16.2-10.9c-4.5-4.3-8.5-9.2-11.4-14.7c-3.1-5.8-5.2-12.3-4.6-18.8c0.5-5.3,2.5-10.7,6.7-14.1c2.2-1.8,5.5-2.5,8.1-1.1c3.4,1.8,6.5,4.1,9.2,6.8c2,2,2.1,4.8,1,7.4c-0.7,1.6-1.8,3-2.9,4.3c-1.1,1.3-2.3,2.3-3.2,3.7c-0.8,1.3-0.8,2.9,0,4.2c2.9,4.8,6.5,9.2,11.1,12.3c1.3,0.9,2.8,1.4,4.3,1.8c1.5,0.4,3.1,0.9,4.7,0.5c2.5-0.6,3.6-3.1,5.1-5c1.6-2,4.2-2.8,6.7-1.7c3.3,1.4,6.5,3.2,9.3,5.5C74.2,57.4,80.7,59.3,78.3,65.2z" fill="#1E4062"/>
</svg>