<svg width="88" height="40" viewBox="0 0 88 40" fill="none" xmlns="http://www.w3.org/2000/svg">
<g clip-path="url(#clip0_2013_3006)">
<path fill-rule="evenodd" clip-rule="evenodd" d="M6.05622 13.6211H10.6334V19.7H6.05622V13.6211ZM16.6617 4.54872H10.6334V10.4209H6.05622V4.54872H0V0.694176H16.6617V4.54872ZM23.4744 9.74197H27.2143C27.5677 9.74197 27.8938 9.64477 28.1909 9.44766C28.4886 9.25192 28.7312 8.95764 28.9167 8.56479C29.1029 8.17194 29.196 7.69012 29.196 7.11933C29.196 6.52938 29.0845 6.04756 28.861 5.67251C28.6564 5.28103 28.3867 4.99494 28.0516 4.817C27.7349 4.63768 27.4004 4.54872 27.0471 4.54872H23.4744V9.74197ZM18.8971 19.7V0.694176H27.3542C28.303 0.694176 29.1681 0.88171 29.9498 1.25539C30.7496 1.61265 31.438 2.10407 32.015 2.72824C32.5914 3.33599 33.0379 4.02311 33.3546 4.78963C33.6707 5.55753 33.829 6.34184 33.829 7.14533C33.829 8.2349 33.5592 9.26973 33.0195 10.2512C32.4984 11.2326 31.7637 12.0361 30.8148 12.6602C29.8845 13.2666 28.7774 13.5705 27.4936 13.5705H23.4744V19.7H18.8971ZM42.294 5.11131L44.6107 12.4193H39.9214L42.294 5.11131ZM44.7779 0.694176H39.8378L33.0001 19.7H37.6888L39.1962 15.4444H45.3637L46.899 19.7H51.5878L44.7779 0.694176ZM51.6051 10.0363C51.6051 8.87688 51.828 7.74351 52.2745 6.63752C52.721 5.51236 53.3722 4.49533 54.2279 3.58508C55.0841 2.67482 56.1259 1.95211 57.354 1.4169C58.582 0.863907 59.9774 0.58604 61.5405 0.58604C63.4013 0.58604 65.0106 0.970665 66.3686 1.73719C67.7454 2.50509 68.7689 3.50432 69.4389 4.73624L65.9221 7.09195C65.6249 6.41303 65.2246 5.88741 64.7224 5.51236C64.2385 5.13731 63.6989 4.8786 63.1036 4.73624C62.5266 4.57609 61.9681 4.49534 61.4285 4.49534C60.5544 4.49534 59.7918 4.66507 59.1402 5.00454C58.489 5.32484 57.9494 5.76287 57.5213 6.31586C57.0937 6.86886 56.7771 7.48481 56.5724 8.16373C56.3679 8.84129 56.2659 9.51884 56.2659 10.1978C56.2659 10.9479 56.3869 11.6692 56.6288 12.366C56.8701 13.0613 57.2146 13.6773 57.6611 14.2125C58.1261 14.7477 58.6841 15.1761 59.3358 15.4978C59.9868 15.8016 60.7032 15.9536 61.4847 15.9536C62.0433 15.9536 62.6102 15.8632 63.1872 15.6853C63.7642 15.5073 64.2943 15.2295 64.7781 14.8558C65.2804 14.463 65.6623 13.9538 65.9221 13.3296L69.6626 15.4444C69.2718 16.3724 68.6296 17.1663 67.7366 17.8261C66.8435 18.4872 65.829 18.9964 64.6945 19.3537C63.5779 19.6918 62.4708 19.8615 61.3732 19.8615C59.9406 19.8615 58.6188 19.585 57.4098 19.032C56.2191 18.4599 55.1866 17.7111 54.3119 16.7831C53.4563 15.8372 52.7857 14.7846 52.3019 13.6239C51.8375 12.4454 51.6051 11.2504 51.6051 10.0363ZM81.0345 4.54872H87.0633V0.694176H70.4012V4.54872H76.4573V19.7H81.0345V4.54872ZM79.0283 36.7128H83.7816V29.5526H80.2826L80.2385 31.1747C80.2095 32.2464 80.1516 33.1567 80.0641 33.9013C79.9765 34.6377 79.85 35.2359 79.6843 35.6917C79.5194 36.1487 79.3009 36.4898 79.0283 36.7128ZM76.4623 40V36.7128H76.9579C77.2299 36.7128 77.4635 36.6107 77.6575 36.4054C77.8621 36.2006 78.0321 35.8737 78.1681 35.4261C78.3142 34.9785 78.4257 34.3913 78.5037 33.6645C78.5912 32.9281 78.6548 32.0274 78.6927 30.9652L78.7663 28.1674H85.4295V36.7128H86.7418V40H85.2984V38.0976H77.9056V40H76.4623ZM70.4022 27.4967C69.8772 27.4967 69.4251 27.4173 69.0461 27.2585C68.6669 27.0915 68.3799 26.867 68.1858 26.5878C67.9913 26.299 67.8943 25.9814 67.8943 25.6365H69.075C69.075 25.8883 69.1725 26.1169 69.3666 26.3223C69.5711 26.5262 69.9161 26.6302 70.4022 26.6302C70.8783 26.6302 71.2183 26.5358 71.423 26.3496C71.6265 26.1635 71.7284 25.9253 71.7284 25.6365H72.9097C72.9097 25.9814 72.8127 26.299 72.6182 26.5878C72.4241 26.867 72.1371 27.0915 71.7579 27.2585C71.389 27.4173 70.9364 27.4967 70.4022 27.4967ZM66.0569 38.0976V28.1674H67.6898V35.8874L73.2163 28.1674H74.7471V38.0976H73.1142V30.5039L67.6462 38.0976H66.0569ZM64.2993 36.7128V38.0976H57.1979V28.1674H64.1683V29.5526H58.8312V32.3778H63.4531V33.6782H58.8312V36.7128H64.2993ZM49.7464 33.2594H52.444C52.755 33.2594 53.0276 33.1799 53.2606 33.0212C53.4936 32.8528 53.6737 32.6297 53.8003 32.3491C53.9363 32.0698 54.0042 31.7523 54.0042 31.3991C54.0042 31.035 53.9268 30.7134 53.7708 30.4328C53.6158 30.1535 53.4112 29.94 53.1586 29.7908C52.9155 29.632 52.648 29.5526 52.3564 29.5526H49.7464V33.2594ZM48.1131 38.0976V28.1674H52.4585C52.9251 28.1674 53.3532 28.2605 53.7417 28.448C54.1308 28.6341 54.4709 28.8805 54.7625 29.1885C55.054 29.4965 55.2775 29.8414 55.433 30.2233C55.5886 30.6066 55.6667 30.9981 55.6667 31.3991C55.6667 31.9494 55.5357 32.475 55.2731 32.9787C55.0199 33.4729 54.6554 33.8739 54.1794 34.1819C53.7127 34.4899 53.1681 34.6432 52.5459 34.6432H49.7464V38.0976H48.1131ZM46.725 29.5526H43.2839V38.0976H41.6361V29.5526H38.1804V28.1674H46.725V29.5526ZM29.6582 36.7128H24.9042C25.1768 36.4898 25.3954 36.1487 25.5609 35.6917C25.7259 35.2359 25.8525 34.6377 25.94 33.9013C26.0274 33.1567 26.0855 32.2464 26.1151 31.1747L26.1584 29.5526H29.6582V36.7128ZM22.3383 36.7128V40H23.7821V38.0976H31.1745V40H32.6182V36.7128H31.3055V28.1674H24.6422L24.5692 30.9652C24.5474 31.5675 24.5173 32.1164 24.4795 32.6133C24.4509 32.9952 24.4176 33.3442 24.3796 33.6645C24.3021 34.3913 24.1901 34.9785 24.0447 35.4261C23.9087 35.8737 23.738 36.2006 23.534 36.4054C23.3985 36.5482 23.2446 36.6411 23.0712 36.6845C22.996 36.7036 22.9163 36.7128 22.8338 36.7128H22.3383ZM21.3388 38.0976V36.7128H15.8712V33.6782H20.4931V32.3778H15.8712V29.5526H21.2078V28.1674H14.2379V38.0976H21.3388ZM10.2555 31.0214V38.0976H11.9034V28.1674H10.1535L6.72681 34.238L3.30011 28.1674H1.55095V38.0976H3.18366V31.0214L6.24574 36.3914H7.20787L10.2555 31.0214Z" fill="#1E4062"/>
</g>
<defs>
<clipPath id="clip0_2013_3006">
<rect width="88" height="40" fill="white"/>
</clipPath>
</defs>
</svg>
