<svg width="209" height="100" viewBox="0 0 209 100" fill="none" xmlns="http://www.w3.org/2000/svg">
<g clip-path="url(#clip0_2003_3082)">
<path fill-rule="evenodd" clip-rule="evenodd" d="M14.3835 34.0529H25.2544V49.25H14.3835V34.0529ZM39.5715 11.3718H25.2544V26.0522H14.3835V11.3718H0V1.73547H39.5715V11.3718ZM55.7517 24.3549H64.634C65.4732 24.3549 66.2477 24.112 66.9533 23.6192C67.6603 23.1298 68.2365 22.3941 68.6771 21.412C69.1195 20.4299 69.3404 19.2253 69.3404 17.7984C69.3404 16.3235 69.0757 15.1189 68.545 14.1813C68.0589 13.2026 67.4184 12.4874 66.6225 12.0425C65.8705 11.5942 65.076 11.3718 64.2368 11.3718H55.7517V24.3549ZM44.8805 49.25V1.73547H64.9662C67.2197 1.73547 69.2743 2.2043 71.1307 3.13851C73.0304 4.03165 74.6654 5.2602 76.0357 6.82064C77.4046 8.34 78.4651 10.0578 79.2172 11.9741C79.9679 13.8939 80.3438 15.8546 80.3438 17.8633C80.3438 20.5873 79.7032 23.1744 78.4214 25.6279C77.1836 28.0815 75.4388 30.0902 73.1853 31.6507C70.9758 33.1666 68.3464 33.9263 65.2973 33.9263H55.7517V49.25H44.8805ZM100.448 12.7783L105.95 31.0484H94.8134L100.448 12.7783ZM106.348 1.73547H94.6148L78.3753 49.25H89.5109L93.091 38.611H107.739L111.385 49.25H122.521L106.348 1.73547ZM122.562 25.0907C122.562 22.1922 123.091 19.3588 124.152 16.5938C125.212 13.7809 126.759 11.2383 128.791 8.96272C130.825 6.68709 133.299 4.88029 136.216 3.54229C139.132 2.1598 142.446 1.46513 146.159 1.46513C150.578 1.46513 154.4 2.42669 157.625 4.34301C160.895 6.26276 163.326 8.76083 164.917 11.8406L156.565 17.7299C155.859 16.0326 154.908 14.7186 153.716 13.7809C152.566 12.8433 151.285 12.1965 149.871 11.8406C148.501 11.4403 147.174 11.2384 145.893 11.2384C143.817 11.2384 142.005 11.6627 140.458 12.5114C138.911 13.3121 137.63 14.4072 136.613 15.7897C135.598 17.1722 134.846 18.712 134.359 20.4094C133.874 22.1032 133.631 23.7971 133.631 25.4945C133.631 27.3697 133.919 29.1731 134.493 30.9149C135.067 32.6533 135.885 34.1932 136.945 35.5312C138.049 36.8692 139.375 37.9403 140.923 38.7444C142.469 39.5041 144.17 39.884 146.026 39.884C147.353 39.884 148.699 39.6581 150.07 39.2132C151.44 38.7684 152.699 38.0738 153.848 37.1396C155.041 36.1574 155.948 34.8845 156.565 33.324L165.449 38.611C164.521 40.9311 162.995 42.9159 160.874 44.5653C158.753 46.2181 156.344 47.4911 153.649 48.3842C150.998 49.2295 148.368 49.6538 145.761 49.6538C142.359 49.6538 139.22 48.9625 136.348 47.5801C133.52 46.1497 131.068 44.2778 128.991 41.9577C126.959 39.5931 125.366 36.9616 124.217 34.0598C123.114 31.1134 122.562 28.126 122.562 25.0907ZM192.457 11.3718H206.775V1.73547H167.203V11.3718H181.586V49.25H192.457V11.3718ZM187.692 91.7821H198.981V73.8816H190.671L190.566 77.9367C190.498 80.6161 190.36 82.8917 190.152 84.7533C189.944 86.5943 189.644 88.0897 189.25 89.2293C188.859 90.3719 188.34 91.2246 187.692 91.7821ZM181.598 100V91.7821H182.775C183.421 91.7821 183.976 91.5268 184.436 91.0135C184.923 90.5016 185.326 89.6844 185.649 88.5654C185.996 87.4464 186.261 85.9784 186.446 84.1613C186.654 82.3203 186.805 80.0685 186.895 77.4131L187.07 70.4185H202.895V91.7821H206.012V100H202.584V95.2441H185.026V100H181.598ZM167.205 68.7417C165.958 68.7417 164.885 68.5433 163.984 68.1463C163.084 67.7288 162.402 67.1676 161.941 66.4695C161.479 65.7475 161.249 64.9536 161.249 64.0912H164.053C164.053 64.7209 164.285 65.2924 164.746 65.8057C165.231 66.3156 166.051 66.5756 167.205 66.5756C168.336 66.5756 169.144 66.3395 169.63 65.8741C170.113 65.4087 170.355 64.8133 170.355 64.0912H173.161C173.161 64.9536 172.93 65.7475 172.468 66.4695C172.007 67.1676 171.326 67.7288 170.425 68.1463C169.549 68.5433 168.474 68.7417 167.205 68.7417ZM156.885 95.2441V70.4185H160.763V89.7186L173.889 70.4185H177.524V95.2441H173.646V76.2599L160.66 95.2441H156.885ZM152.711 91.7821V95.2441H135.845V70.4185H152.4V73.8816H139.724V80.9446H150.701V84.1955H139.724V91.7821H152.711ZM118.148 83.1484H124.555C125.293 83.1484 125.94 82.9499 126.494 82.5529C127.047 82.132 127.475 81.5742 127.776 80.8727C128.099 80.1747 128.26 79.3808 128.26 78.4979C128.26 77.5876 128.076 76.7834 127.706 76.0819C127.338 75.3838 126.852 74.8501 126.252 74.4771C125.674 74.0801 125.039 73.8816 124.346 73.8816H118.148V83.1484ZM114.269 95.2441V70.4185H124.589C125.697 70.4185 126.714 70.6512 127.636 71.12C128.561 71.5854 129.368 72.2014 130.061 72.9713C130.753 73.7413 131.284 74.6037 131.653 75.5584C132.023 76.5166 132.208 77.4952 132.208 78.4979C132.208 79.8735 131.897 81.1876 131.274 82.4469C130.672 83.6822 129.807 84.6849 128.676 85.4548C127.568 86.2248 126.274 86.608 124.797 86.608H118.148V95.2441H114.269ZM110.972 73.8816H102.799V95.2441H98.8857V73.8816H90.6785V70.4185H110.972V73.8816ZM70.4382 91.7821H59.1474C59.7948 91.2246 60.314 90.3719 60.7072 89.2293C61.099 88.0897 61.3996 86.5943 61.6074 84.7533C61.8152 82.8917 61.9531 80.6161 62.0233 77.9367L62.1263 73.8816H70.4382V91.7821ZM53.0535 91.7821V100H56.4824V95.2441H74.0394V100H77.4683V91.7821H74.3505V70.4185H58.5252L58.352 77.4131C58.3001 78.9187 58.2286 80.291 58.1388 81.5332C58.071 82.4879 57.9917 83.3605 57.9015 84.1613C57.7175 85.9784 57.4514 87.4464 57.1061 88.5654C56.7831 89.6844 56.3777 90.5016 55.8934 91.0135C55.5714 91.3704 55.206 91.6028 54.7942 91.7112C54.6156 91.7591 54.4261 91.7821 54.2302 91.7821H53.0535ZM50.6796 95.2441V91.7821H37.6942V84.1955H48.6711V80.9446H37.6942V73.8816H50.3685V70.4185H33.8151V95.2441H50.6796ZM24.3569 77.5534V95.2441H28.2705V70.4185H24.1146L15.9762 85.5951L7.83776 70.4185H3.6835V95.2441H7.5612V77.5534L14.8336 90.9786H17.1187L24.3569 77.5534Z" fill="white"/>
</g>
<defs>
<clipPath id="clip0_2003_3082">
<rect width="209" height="100" fill="white"/>
</clipPath>
</defs>
</svg>
