<svg width="162" height="48" viewBox="0 0 162 48" fill="none" xmlns="http://www.w3.org/2000/svg">
<g opacity="0.3" clip-path="url(#clip0_48_533)">
<path d="M150.975 16.9187C148.793 16.9187 146.661 17.5294 144.847 18.6736C143.033 19.8178 141.62 21.4441 140.785 23.3465C139.951 25.2491 139.734 27.3422 140.16 29.3614C140.587 31.3806 141.639 33.235 143.182 34.6899C144.726 36.1449 146.692 37.1351 148.832 37.5351C150.972 37.9353 153.19 37.7271 155.205 36.9374C157.22 36.1475 158.941 34.8115 160.151 33.0983C161.361 31.3851 162.005 29.3715 162.003 27.3127C162.003 25.9465 161.717 24.5938 161.163 23.3319C160.608 22.07 159.796 20.9235 158.772 19.9582C157.748 18.9929 156.532 18.2275 155.194 17.706C153.856 17.1845 152.422 16.9169 150.975 16.9187ZM150.975 32.5163C149.884 32.5163 148.818 32.2112 147.912 31.6393C147.005 31.0675 146.298 30.2549 145.881 29.304C145.463 28.3531 145.354 27.3068 145.567 26.2974C145.78 25.288 146.305 24.3609 147.076 23.6331C147.847 22.9052 148.83 22.4098 149.899 22.2089C150.969 22.0082 152.077 22.1111 153.085 22.5051C154.092 22.8988 154.954 23.5659 155.559 24.4217C156.165 25.2773 156.489 26.2834 156.489 27.3127C156.491 27.9964 156.349 28.6739 156.073 29.3061C155.796 29.9383 155.39 30.5125 154.878 30.9961C154.366 31.4796 153.757 31.8629 153.087 32.1239C152.417 32.3847 151.7 32.518 150.975 32.5163Z" fill="#1F3740"/>
<path d="M116.501 32.5164C115.411 32.5164 114.345 32.2111 113.438 31.6394C112.531 31.0675 111.824 30.2549 111.407 29.3039C110.99 28.3532 110.881 27.3068 111.093 26.2974C111.306 25.2879 111.831 24.3608 112.602 23.633C113.373 22.9054 114.356 22.4097 115.426 22.209C116.495 22.0081 117.604 22.1112 118.611 22.505C119.619 22.899 120.48 23.5658 121.086 24.4216C121.692 25.2773 122.015 26.2835 122.015 27.3126C122.015 28.6927 121.434 30.0163 120.4 30.9921C119.366 31.9681 117.964 32.5164 116.501 32.5164ZM116.501 16.9052C114.569 16.8873 112.667 17.3525 110.987 18.2533V11.7015C110.987 11.6166 110.97 11.5324 110.935 11.4539C110.901 11.3754 110.85 11.3041 110.787 11.244C110.723 11.1839 110.647 11.1362 110.564 11.1037C110.481 11.0712 110.392 11.0544 110.302 11.0544H106.159C105.979 11.0579 105.806 11.1272 105.678 11.2478C105.551 11.3684 105.477 11.531 105.474 11.7015V27.3126C105.474 29.371 106.12 31.3832 107.332 33.0947C108.544 34.8062 110.266 36.14 112.281 36.9278C114.296 37.7155 116.513 37.9215 118.653 37.5201C120.792 37.1185 122.757 36.1272 124.299 34.6718C125.841 33.2163 126.891 31.3619 127.317 29.343C127.742 27.3242 127.524 25.2316 126.689 23.3299C125.855 21.4282 124.441 19.8028 122.628 18.6591C120.814 17.5156 118.682 16.9052 116.501 16.9052Z" fill="#1F3740"/>
<path d="M131.677 17.5255C131.586 17.5237 131.495 17.5391 131.411 17.5709C131.326 17.6026 131.248 17.65 131.183 17.7102C131.118 17.7705 131.066 17.8424 131.031 17.9219C130.996 18.0012 130.977 18.0865 130.978 18.1726V37.0462C130.978 37.1398 131 37.2323 131.043 37.3171C131.085 37.4019 131.146 37.4771 131.222 37.5374C131.298 37.5976 131.387 37.6415 131.483 37.6661C131.579 37.6908 131.679 37.6954 131.777 37.6798C133.089 37.5011 134.287 36.8819 135.153 35.9358C136.02 34.9896 136.495 33.7802 136.491 32.5299V18.2131C136.493 18.1276 136.477 18.0426 136.443 17.9633C136.409 17.884 136.359 17.8118 136.295 17.7514C136.231 17.691 136.154 17.6434 136.07 17.6115C135.986 17.5796 135.896 17.5641 135.806 17.566L131.677 17.5255Z" fill="#1F3740"/>
<path d="M81.3509 36.318C81.1559 35.0828 80.4981 33.9546 79.4969 33.1384C78.4956 32.3221 77.2173 31.8718 75.8941 31.8693H68.3091L79.1652 18.5768C79.2483 18.4794 79.2995 18.3614 79.3129 18.2371C79.3265 18.1128 79.3014 17.9875 79.2409 17.8762C79.1805 17.765 79.0872 17.6727 78.9725 17.6104C78.8576 17.5482 78.7261 17.5186 78.5939 17.5254H58.5957C58.4952 17.524 58.3955 17.5436 58.304 17.5826C58.2124 17.6217 58.1308 17.6792 58.0655 17.7513C58.0001 17.8232 57.9523 17.908 57.9253 17.9994C57.8986 18.0908 57.8933 18.1868 57.9101 18.2803C58.1048 19.5153 58.7626 20.6435 59.764 21.4599C60.7652 22.2762 62.0435 22.7265 63.3666 22.729H68.9234L57.8814 36.0215C57.8112 36.1189 57.7705 36.2328 57.7637 36.3507C57.7569 36.4684 57.7844 36.5857 57.8434 36.6899C57.9022 36.7941 57.9901 36.881 58.0975 36.9413C58.2049 37.0017 58.3279 37.0332 58.4528 37.0325H80.5936C80.6942 37.0337 80.7939 37.0142 80.8854 36.9752C80.9772 36.9361 81.0586 36.8785 81.1239 36.8065C81.1893 36.7345 81.2371 36.6497 81.2641 36.5584C81.291 36.467 81.2961 36.3712 81.2793 36.2775" fill="#1F3740"/>
<path d="M97.5341 17.9432L92.3632 28.7281L87.1636 18.0241C87.099 17.886 86.9929 17.7688 86.8583 17.6873C86.7236 17.6058 86.5665 17.5635 86.4065 17.5658H81.9926C81.8773 17.5649 81.7635 17.5916 81.662 17.6432C81.5605 17.6949 81.4744 17.7699 81.4117 17.8613C81.3491 17.9527 81.3118 18.0575 81.3035 18.1662C81.2952 18.2746 81.316 18.3836 81.3642 18.4824L89.3207 35.0508L85.8066 42.3845C85.7655 42.4679 85.7437 42.5585 85.7427 42.6504C85.7416 42.7423 85.7614 42.8335 85.8005 42.9176C85.8397 43.0019 85.8976 43.0773 85.9699 43.1386C86.0424 43.2001 86.1279 43.2463 86.2208 43.2741C87.5055 43.6465 88.8897 43.5644 90.1148 43.0433C91.34 42.5223 92.322 41.598 92.8773 40.4431L103.419 18.523C103.467 18.4239 103.488 18.3151 103.48 18.2065C103.472 18.0979 103.434 17.9932 103.372 17.9018C103.309 17.8103 103.223 17.7353 103.121 17.6837C103.02 17.632 102.906 17.6054 102.791 17.6062H98.1627C98.0308 17.6069 97.9019 17.6427 97.7908 17.7095C97.6795 17.7762 97.5906 17.8712 97.5341 17.9836" fill="#1F3740"/>
<path d="M17.2556 11.0544C13.8444 11.0518 10.509 12.0042 7.67147 13.7911C4.83397 15.578 2.62189 18.1191 1.31516 21.093C0.0084338 24.0668 -0.334206 27.3396 0.330599 30.4972C0.995405 33.6549 2.63777 36.5554 5.04988 38.8318C7.46198 41.1083 10.5354 42.6583 13.8812 43.2857C17.227 43.9132 20.6949 43.5899 23.8458 42.3566C26.9969 41.1234 29.6895 39.0357 31.5828 36.3577C33.4764 33.6798 34.4855 30.5321 34.4826 27.3127V11.9712C34.4845 11.8514 34.4612 11.7325 34.4139 11.6214C34.3668 11.5102 34.2965 11.409 34.2074 11.3237C34.1183 11.2384 34.0123 11.1707 33.8951 11.1245C33.7781 11.0782 33.6525 11.0544 33.5255 11.0544H17.2556ZM28.2831 27.3127C28.2831 29.371 27.6364 31.3831 26.4247 33.0946C25.213 34.8062 23.4908 36.1401 21.4757 36.9278C19.4607 37.7156 17.2434 37.9216 15.1042 37.52C12.9651 37.1184 11.0002 36.1273 9.45794 34.6718C7.9157 33.2162 6.86541 31.3618 6.43991 29.3429C6.01442 27.3241 6.2328 25.2316 7.06746 23.33C7.9021 21.4283 9.31555 19.8028 11.129 18.6592C12.9425 17.5156 15.0746 16.9052 17.2556 16.9052H28.2831V27.3127Z" fill="#1F3740"/>
<path d="M28.9715 0C25.565 0.00266583 22.2357 0.958457 19.4046 2.74654C16.5735 4.53463 14.3677 7.07476 13.066 10.0458C11.7644 13.0168 11.4252 16.2854 12.0916 19.4382C12.7579 22.5911 14.3997 25.4868 16.8095 27.7593C19.2193 30.0316 22.289 31.5787 25.6303 32.205C28.9717 32.8311 32.4347 32.5084 35.5817 31.2775C38.7286 30.0466 41.4184 27.9627 43.3106 25.2892C45.203 22.616 46.2128 19.4732 46.2128 16.2582V0.916713C46.2128 0.673586 46.1105 0.440416 45.9284 0.2685C45.7462 0.096582 45.4991 0 45.2416 0H28.9715ZM40.0278 16.2582C40.0278 18.3166 39.3809 20.3287 38.1693 22.0402C36.9575 23.7516 35.2353 25.0857 33.2202 25.8734C31.2052 26.661 28.9879 26.8672 26.8487 26.4656C24.7096 26.064 22.7447 25.0729 21.2025 23.6172C19.6603 22.1618 18.6099 20.3074 18.1844 18.2885C17.7589 16.2697 17.9773 14.1771 18.812 12.2754C19.6465 10.3737 21.0601 8.74832 22.8735 7.60475C24.687 6.46117 26.8192 5.85079 29.0001 5.85079H40.0278V16.2582Z" fill="#1F3740"/>
</g>
<defs>
<clipPath id="clip0_48_533">
<rect width="162" height="48" fill="white"/>
</clipPath>
</defs>
</svg>
